<svg width="139" height="25" viewBox="0 0 139 25" fill="none" xmlns="http://www.w3.org/2000/svg">
<path d="M49.9415 20.8242C45.5049 20.8242 42 17.3297 42 12.9121C42 8.49451 45.5049 5 49.9415 5C52.3594 5 54.4446 6.03297 55.7977 7.54945C56.0417 7.79121 56.1527 8.14286 56.1527 8.42857C56.1527 9.13187 55.5759 9.7033 54.8439 9.7033C54.5111 9.7033 54.134 9.5055 53.8013 9.1978C52.8696 8.16483 51.5386 7.48352 49.9415 7.48352C47.0133 7.48352 44.6841 9.87912 44.6841 12.9121C44.6841 15.9231 47.0133 18.3187 49.9415 18.3187C52.2485 18.3187 54.2227 16.8242 54.9104 14.5385H51.1171C50.4295 14.5385 49.8971 14.011 49.8971 13.3516C49.8971 12.6703 50.4295 12.1429 51.1171 12.1429H56.6407C57.3062 12.1429 57.8385 12.6703 57.8385 13.4176C57.7276 17.044 54.4889 20.8242 49.9415 20.8242Z" fill="#111111"/>
<path d="M65.4038 20.8242C62.032 20.8242 59.5253 18.2527 59.5253 15C59.5253 11.7473 62.032 9.17582 65.4038 9.17582C68.7977 9.17582 71.2822 11.7473 71.2822 15C71.2822 18.2527 68.7977 20.8242 65.4038 20.8242ZM65.4038 18.5824C67.3558 18.5824 68.8199 16.956 68.8199 15C68.8199 13.022 67.3558 11.4176 65.4038 11.4176C63.4517 11.4176 61.9876 13.022 61.9876 15C61.9876 16.956 63.4517 18.5824 65.4038 18.5824Z" fill="#111111"/>
<path d="M73.6605 19.5714V14.2967C73.6605 11.1538 75.8566 9.17582 78.6516 9.17582C81.4466 9.17582 83.6427 11.1538 83.6427 14.2967V19.5714C83.6427 20.2527 83.0882 20.8022 82.4227 20.8022C81.735 20.8022 81.2026 20.2527 81.2026 19.5714V14.2088C81.2026 12.3846 80.0713 11.4176 78.6516 11.4176C77.2319 11.4176 76.1006 12.3846 76.1006 14.2088V19.5714C76.1006 20.2527 75.5682 20.8022 74.8805 20.8022C74.1928 20.8022 73.6605 20.2527 73.6605 19.5714Z" fill="#111111"/>
<path d="M91.6097 20.8242C88.4153 20.8242 85.9974 18.2527 85.9974 15C85.9974 11.7473 88.4153 9.17582 91.6097 9.17582C93.0294 9.17582 94.316 9.68132 95.292 10.5604V10.4066C95.292 9.72527 95.8244 9.1978 96.5121 9.1978C97.1997 9.1978 97.7321 9.72527 97.7321 10.4066V19.1758C97.7321 22.4725 95.0702 25 91.7428 25C89.8572 25 88.371 24.2088 87.5058 23.2418C87.284 22.978 87.1509 22.6703 87.1509 22.4286C87.1509 21.7473 87.6833 21.2857 88.3488 21.2857C88.8368 21.2857 89.103 21.5714 89.4136 21.8352C90.0125 22.3846 90.7667 22.7582 91.7428 22.7582C93.6727 22.7582 95.1367 21.2857 95.2698 19.4615C94.2938 20.3187 93.0294 20.8242 91.6097 20.8242ZM91.8759 18.5824C93.7392 18.5824 95.2033 17.1319 95.292 15.1538V15C95.292 12.956 93.7836 11.4176 91.8759 11.4176C89.9681 11.4176 88.4597 12.956 88.4597 15C88.4597 17.044 89.9681 18.5824 91.8759 18.5824Z" fill="#111111"/>
<path d="M100.566 11.6374C99.9447 11.6374 99.4345 11.1319 99.4345 10.5165C99.4345 9.87912 99.9447 9.3956 100.566 9.3956H101.364V7.74725C101.364 7.06593 101.897 6.53846 102.584 6.53846C103.272 6.53846 103.805 7.06593 103.805 7.74725V9.3956H106.4C107.021 9.3956 107.531 9.87912 107.531 10.5165C107.531 11.1319 107.021 11.6374 106.4 11.6374H103.805V15.6154C103.805 17.5495 104.891 18.5385 106.4 18.5385C107.021 18.5385 107.531 19.044 107.531 19.6593C107.531 20.2967 107.021 20.8022 106.4 20.8022C103.538 20.8022 101.364 18.8022 101.364 15.6154V11.6374H100.566Z" fill="#111111"/>
<path d="M109.643 19.5714V10.4066C109.643 9.72527 110.175 9.1978 110.863 9.1978C111.55 9.1978 112.083 9.72527 112.083 10.4066V19.5714C112.083 20.2527 111.55 20.8022 110.863 20.8022C110.175 20.8022 109.643 20.2527 109.643 19.5714ZM110.863 7.92308C110.064 7.92308 109.421 7.26374 109.421 6.49451C109.421 5.7033 110.064 5.06593 110.863 5.06593C111.661 5.06593 112.305 5.7033 112.305 6.49451C112.305 7.26374 111.661 7.92308 110.863 7.92308Z" fill="#111111"/>
<path d="M114.928 19.5714V14.2967C114.928 11.1538 117.124 9.17582 119.919 9.17582C122.714 9.17582 124.911 11.1538 124.911 14.2967V19.5714C124.911 20.2527 124.356 20.8022 123.691 20.8022C123.003 20.8022 122.47 20.2527 122.47 19.5714V14.2088C122.47 12.3846 121.339 11.4176 119.919 11.4176C118.5 11.4176 117.368 12.3846 117.368 14.2088V19.5714C117.368 20.2527 116.836 20.8022 116.148 20.8022C115.461 20.8022 114.928 20.2527 114.928 19.5714Z" fill="#111111"/>
<path d="M132.878 20.8242C129.683 20.8242 127.265 18.2527 127.265 15C127.265 11.7473 129.683 9.17582 132.878 9.17582C134.297 9.17582 135.584 9.68132 136.56 10.5604V10.4066C136.56 9.72527 137.092 9.1978 137.78 9.1978C138.468 9.1978 139 9.72527 139 10.4066V19.1758C139 22.4725 136.338 25 133.011 25C131.125 25 129.639 24.2088 128.774 23.2418C128.552 22.978 128.419 22.6703 128.419 22.4286C128.419 21.7473 128.951 21.2857 129.617 21.2857C130.105 21.2857 130.371 21.5714 130.681 21.8352C131.28 22.3846 132.035 22.7582 133.011 22.7582C134.941 22.7582 136.405 21.2857 136.538 19.4615C135.562 20.3187 134.297 20.8242 132.878 20.8242ZM133.144 18.5824C135.007 18.5824 136.471 17.1319 136.56 15.1538V15C136.56 12.956 135.051 11.4176 133.144 11.4176C131.236 11.4176 129.728 12.956 129.728 15C129.728 17.044 131.236 18.5824 133.144 18.5824Z" fill="#111111"/>
<path d="M0.768723 0.87207H16.7739C20.8985 0.87207 24.2481 4.23811 24.2481 8.38369C24.2481 12.5293 20.8985 15.8953 16.7732 15.8953H11.0557C4.9543 15.8946 0 10.9167 0 4.78457V1.64457C0 1.21783 0.344068 0.87207 0.768723 0.87207Z" fill="url(#paint0_linear_13_1715)"/>
<path d="M33.2313 23.8023L17.2266 23.8023C13.1014 23.8023 9.75195 20.4363 9.75195 16.2907C9.75195 12.1451 13.1014 8.7791 17.2266 8.7791H22.9439C29.0458 8.7791 34 13.7577 34 19.8899V23.0298C34 23.4559 33.6559 23.8023 33.2313 23.8023Z" fill="url(#paint1_linear_13_1715)"/>
<defs>
<linearGradient id="paint0_linear_13_1715" x1="0.0445455" y1="0.872069" x2="24.2666" y2="16.0512" gradientUnits="userSpaceOnUse">
<stop stop-color="#8D91FF"/>
<stop offset="1" stop-color="#B4ACFF"/>
</linearGradient>
<linearGradient id="paint1_linear_13_1715" x1="9.73338" y1="8.62318" x2="33.9554" y2="23.8023" gradientUnits="userSpaceOnUse">
<stop stop-color="#646AFF"/>
<stop offset="1" stop-color="#7D67FF"/>
</linearGradient>
</defs>
</svg>
