<svg width="133" height="133" viewBox="0 0 133 133" fill="none" xmlns="http://www.w3.org/2000/svg">
<circle cx="66.5" cy="66.5" r="65.5" fill="white" stroke="#E0DBFF" stroke-width="2"/>
<path d="M27.9515 42.1672H66.5095C76.4461 42.1672 84.5156 50.2764 84.5156 60.2635C84.5156 70.2506 76.4461 78.3597 66.5078 78.3597H52.734C38.035 78.358 26.0996 66.3657 26.0996 51.5928V44.0283C26.0996 43.0002 26.9285 42.1672 27.9515 42.1672Z" fill="url(#paint0_linear_11_1703)"/>
<path d="M106.157 97.4084H67.6003C57.6622 97.4084 49.593 89.2993 49.593 79.3122C49.593 69.3251 57.6622 61.2159 67.6003 61.2159L81.3737 61.2159C96.0739 61.2159 108.009 73.21 108.009 87.9829V95.5474C108.009 96.5738 107.18 97.4084 106.157 97.4084Z" fill="url(#paint1_linear_11_1703)"/>
<defs>
<linearGradient id="paint0_linear_11_1703" x1="26.2069" y1="42.1672" x2="84.5603" y2="78.7353" gradientUnits="userSpaceOnUse">
<stop stop-color="#8D91FF"/>
<stop offset="1" stop-color="#B4ACFF"/>
</linearGradient>
<linearGradient id="paint1_linear_11_1703" x1="49.5483" y1="60.8403" x2="107.902" y2="97.4084" gradientUnits="userSpaceOnUse">
<stop stop-color="#646AFF"/>
<stop offset="1" stop-color="#7D67FF"/>
</linearGradient>
</defs>
</svg>
