<svg width="37" height="36" viewBox="0 0 37 36" fill="none" xmlns="http://www.w3.org/2000/svg">
<path fill-rule="evenodd" clip-rule="evenodd" d="M14.2647 13.7648C14.8264 13.7648 15.365 13.5417 15.7621 13.1446C16.1593 12.7474 16.3824 12.2088 16.3824 11.6472C16.3824 11.0855 16.1593 10.5469 15.7621 10.1498C15.365 9.75262 14.8264 9.52951 14.2647 9.52951C13.7031 9.52951 13.1644 9.75262 12.7673 10.1498C12.3702 10.5469 12.1471 11.0855 12.1471 11.6472C12.1471 12.2088 12.3702 12.7474 12.7673 13.1446C13.1644 13.5417 13.7031 13.7648 14.2647 13.7648ZM14.2647 15.8825C15.388 15.8825 16.4653 15.4362 17.2595 14.642C18.0538 13.8477 18.5 12.7704 18.5 11.6472C18.5 10.5239 18.0538 9.44663 17.2595 8.65235C16.4653 7.85808 15.388 7.41187 14.2647 7.41187C13.1414 7.41187 12.0642 7.85808 11.2699 8.65235C10.4756 9.44663 10.0294 10.5239 10.0294 11.6472C10.0294 12.7704 10.4756 13.8477 11.2699 14.642C12.0642 15.4362 13.1414 15.8825 14.2647 15.8825Z" fill="#7D67FF" fill-opacity="0.2"/>
<path fill-rule="evenodd" clip-rule="evenodd" d="M21.147 17.5299L27.5147 24.8824H14.7792L21.147 17.5299ZM22.027 15.6029C22.3033 15.7291 22.5491 15.9133 22.7479 16.1429L29.1157 23.4953C29.3817 23.8022 29.5538 24.179 29.6116 24.5809C29.6694 24.9829 29.6104 25.3929 29.4417 25.7623C29.273 26.1316 29.0017 26.4447 28.66 26.6642C28.3183 26.8836 27.9208 27.0002 27.5147 27.0001H17.2501L17.2505 27.0003H9.1611C8.7689 26.9999 8.38451 26.8906 8.05079 26.6846C7.71706 26.4786 7.4471 26.1839 7.271 25.8335C7.0949 25.483 7.01958 25.0906 7.05344 24.6998C7.08729 24.3091 7.22899 23.9355 7.46274 23.6205L11.5053 18.1739C11.7023 17.9085 11.9587 17.6929 12.254 17.5443C12.5493 17.3957 12.8753 17.3184 13.2058 17.3184C13.5364 17.3184 13.8623 17.3957 14.1576 17.5443C14.4529 17.6929 14.7093 17.9085 14.9063 18.1739L16.1786 20.031L19.546 16.1429C19.7448 15.9133 19.9907 15.7291 20.2669 15.6029C20.5431 15.4767 20.8433 15.4114 21.147 15.4114C21.4507 15.4114 21.7508 15.4767 22.027 15.6029ZM12.6608 24.8826H9.1611L13.2058 19.4361L14.816 21.6043L13.1783 23.4953C12.9123 23.8022 12.7401 24.179 12.6823 24.5809C12.6679 24.6813 12.6608 24.7821 12.6608 24.8826Z" fill="#7D67FF" fill-opacity="0.2"/>
<path fill-rule="evenodd" clip-rule="evenodd" d="M33.3236 2.11765H3.67647C3.39566 2.11765 3.12634 2.2292 2.92777 2.42777C2.7292 2.62634 2.61765 2.89566 2.61765 3.17647V32.8236C2.61765 33.1044 2.7292 33.3737 2.92777 33.5723C3.12634 33.7708 3.39566 33.8824 3.67647 33.8824H33.3236C33.6044 33.8824 33.8737 33.7708 34.0723 33.5723C34.2708 33.3737 34.3824 33.1044 34.3824 32.8236V3.17647C34.3824 2.89566 34.2708 2.62634 34.0723 2.42777C33.8737 2.2292 33.6044 2.11765 33.3236 2.11765ZM3.67647 0C2.83402 0 2.02607 0.334663 1.43037 0.930368C0.834663 1.52607 0.5 2.33402 0.5 3.17647V32.8236C0.5 33.666 0.834663 34.474 1.43037 35.0697C2.02607 35.6654 2.83402 36 3.67647 36H33.3236C34.166 36 34.974 35.6654 35.5697 35.0697C36.1654 34.474 36.5 33.666 36.5 32.8236V3.17647C36.5 2.33402 36.1654 1.52607 35.5697 0.930368C34.974 0.334663 34.166 0 33.3236 0H3.67647Z" fill="#7D67FF" fill-opacity="0.2"/>
</svg>
