<svg width="144" height="120" viewBox="0 0 144 120" fill="none" xmlns="http://www.w3.org/2000/svg">
<rect x="67" y="7" width="77" height="77" rx="38.5" fill="url(#paint0_linear_1515_2096)"/>
<g filter="url(#filter0_b_1515_2096)">
<rect width="120" height="120" rx="60" fill="#AFA2FF" fill-opacity="0.5"/>
<path fill-rule="evenodd" clip-rule="evenodd" d="M79.5762 52.9837C80.0492 52.4724 80.4182 51.8718 80.662 51.2161C80.9058 50.5603 81.0197 49.8624 80.9972 49.1621C80.9747 48.4618 80.8163 47.7728 80.5309 47.1345C80.2455 46.4963 79.8388 45.9212 79.3339 45.4421C78.8291 44.963 78.2361 44.5893 77.5886 44.3424C76.9412 44.0954 76.2521 43.98 75.5607 44.0028C74.8693 44.0256 74.189 44.1861 73.5588 44.4751C72.9286 44.7642 72.3608 45.1761 71.8878 45.6874L55.6526 63.2348L47.6324 56.0185C46.5816 55.1338 45.2324 54.6974 43.8699 54.8015C42.5073 54.9056 41.238 55.5421 40.3302 56.5765C39.4223 57.6109 38.947 58.9622 39.0047 60.345C39.0624 61.7278 39.6484 63.0337 40.6391 63.9869L52.4877 74.654C53.5129 75.5764 54.853 76.0573 56.2229 75.9945C57.5928 75.9318 58.8845 75.3303 59.8233 74.318L79.5762 52.9837Z" fill="white"/>
<rect x="0.5" y="0.5" width="119" height="119" rx="59.5" stroke="url(#paint1_linear_1515_2096)"/>
</g>
<defs>
<filter id="filter0_b_1515_2096" x="-20" y="-20" width="160" height="160" filterUnits="userSpaceOnUse" color-interpolation-filters="sRGB">
<feFlood flood-opacity="0" result="BackgroundImageFix"/>
<feGaussianBlur in="BackgroundImageFix" stdDeviation="10"/>
<feComposite in2="SourceAlpha" operator="in" result="effect1_backgroundBlur_1515_2096"/>
<feBlend mode="normal" in="SourceGraphic" in2="effect1_backgroundBlur_1515_2096" result="shape"/>
</filter>
<linearGradient id="paint0_linear_1515_2096" x1="144" y1="65" x2="84.0504" y2="33.8259" gradientUnits="userSpaceOnUse">
<stop stop-color="#646AFF"/>
<stop offset="1" stop-color="#7D67FF"/>
</linearGradient>
<linearGradient id="paint1_linear_1515_2096" x1="14.5" y1="104" x2="120" y2="40.5" gradientUnits="userSpaceOnUse">
<stop stop-color="#B3A6FF"/>
<stop offset="1" stop-color="white"/>
</linearGradient>
</defs>
</svg>
