<svg width="380" height="23" viewBox="0 0 380 23" fill="none" xmlns="http://www.w3.org/2000/svg">
<g style="mix-blend-mode:luminosity" opacity="0.5" clip-path="url(#clip0_1487_1546)">
<path d="M0.792559 0H17.2971C21.5513 0 25.0049 3.382 25.0049 7.54762C25.0049 11.7132 21.5509 15.0952 17.2967 15.0952H11.4011C5.10869 15.0948 0 10.0926 0 3.93085V0.776047C0 0.347567 0.354962 0 0.792559 0Z" fill="url(#paint0_linear_1487_1546)"/>
<path d="M34.2074 23L17.7029 23C13.4487 23 9.99471 19.618 9.99471 15.4524C9.99471 11.2868 13.4487 7.90476 17.7029 7.90476H23.5985C29.8909 7.90476 35 12.907 35 19.0687V22.224C35 22.6524 34.645 23 34.2074 23Z" fill="url(#paint1_linear_1487_1546)"/>
</g>
<path d="M50.9415 18.8242C46.5049 18.8242 43 15.3297 43 10.9121C43 6.49451 46.5049 3 50.9415 3C53.3594 3 55.4446 4.03297 56.7977 5.54945C57.0417 5.79121 57.1527 6.14286 57.1527 6.42857C57.1527 7.13187 56.5759 7.7033 55.8439 7.7033C55.5111 7.7033 55.134 7.5055 54.8013 7.1978C53.8696 6.16483 52.5386 5.48352 50.9415 5.48352C48.0133 5.48352 45.6841 7.87912 45.6841 10.9121C45.6841 13.9231 48.0133 16.3187 50.9415 16.3187C53.2485 16.3187 55.2227 14.8242 55.9104 12.5385H52.1171C51.4295 12.5385 50.8971 12.011 50.8971 11.3516C50.8971 10.6703 51.4295 10.1429 52.1171 10.1429H57.6407C58.3062 10.1429 58.8385 10.6703 58.8385 11.4176C58.7276 15.044 55.4889 18.8242 50.9415 18.8242Z" fill="#B1B8BE"/>
<path d="M66.4038 18.8242C63.032 18.8242 60.5253 16.2527 60.5253 13C60.5253 9.74725 63.032 7.17582 66.4038 7.17582C69.7977 7.17582 72.2822 9.74725 72.2822 13C72.2822 16.2527 69.7977 18.8242 66.4038 18.8242ZM66.4038 16.5824C68.3558 16.5824 69.8199 14.956 69.8199 13C69.8199 11.022 68.3558 9.41758 66.4038 9.41758C64.4517 9.41758 62.9876 11.022 62.9876 13C62.9876 14.956 64.4517 16.5824 66.4038 16.5824Z" fill="#B1B8BE"/>
<path d="M74.6605 17.5714V12.2967C74.6605 9.15385 76.8566 7.17582 79.6516 7.17582C82.4466 7.17582 84.6427 9.15385 84.6427 12.2967V17.5714C84.6427 18.2527 84.0882 18.8022 83.4227 18.8022C82.735 18.8022 82.2026 18.2527 82.2026 17.5714V12.2088C82.2026 10.3846 81.0713 9.41758 79.6516 9.41758C78.2319 9.41758 77.1006 10.3846 77.1006 12.2088V17.5714C77.1006 18.2527 76.5682 18.8022 75.8805 18.8022C75.1928 18.8022 74.6605 18.2527 74.6605 17.5714Z" fill="#B1B8BE"/>
<path d="M92.6097 18.8242C89.4153 18.8242 86.9974 16.2527 86.9974 13C86.9974 9.74725 89.4153 7.17582 92.6097 7.17582C94.0294 7.17582 95.316 7.68132 96.292 8.56044V8.40659C96.292 7.72528 96.8244 7.1978 97.5121 7.1978C98.1997 7.1978 98.7321 7.72528 98.7321 8.40659V17.1758C98.7321 20.4725 96.0702 23 92.7428 23C90.8572 23 89.371 22.2088 88.5058 21.2418C88.284 20.978 88.1509 20.6703 88.1509 20.4286C88.1509 19.7473 88.6833 19.2857 89.3488 19.2857C89.8368 19.2857 90.103 19.5714 90.4136 19.8352C91.0125 20.3846 91.7667 20.7582 92.7428 20.7582C94.6727 20.7582 96.1367 19.2857 96.2698 17.4615C95.2938 18.3187 94.0294 18.8242 92.6097 18.8242ZM92.8759 16.5824C94.7392 16.5824 96.2033 15.1319 96.292 13.1538V13C96.292 10.956 94.7836 9.41758 92.8759 9.41758C90.9681 9.41758 89.4597 10.956 89.4597 13C89.4597 15.044 90.9681 16.5824 92.8759 16.5824Z" fill="#B1B8BE"/>
<path d="M101.566 9.63736C100.945 9.63736 100.434 9.13187 100.434 8.51648C100.434 7.87912 100.945 7.3956 101.566 7.3956H102.364V5.74725C102.364 5.06593 102.897 4.53846 103.584 4.53846C104.272 4.53846 104.805 5.06593 104.805 5.74725V7.3956H107.4C108.021 7.3956 108.531 7.87912 108.531 8.51648C108.531 9.13187 108.021 9.63736 107.4 9.63736H104.805V13.6154C104.805 15.5495 105.891 16.5385 107.4 16.5385C108.021 16.5385 108.531 17.044 108.531 17.6593C108.531 18.2967 108.021 18.8022 107.4 18.8022C104.538 18.8022 102.364 16.8022 102.364 13.6154V9.63736H101.566Z" fill="#B1B8BE"/>
<path d="M110.643 17.5714V8.40659C110.643 7.72528 111.175 7.1978 111.863 7.1978C112.55 7.1978 113.083 7.72528 113.083 8.40659V17.5714C113.083 18.2527 112.55 18.8022 111.863 18.8022C111.175 18.8022 110.643 18.2527 110.643 17.5714ZM111.863 5.92308C111.064 5.92308 110.421 5.26374 110.421 4.49451C110.421 3.7033 111.064 3.06593 111.863 3.06593C112.661 3.06593 113.305 3.7033 113.305 4.49451C113.305 5.26374 112.661 5.92308 111.863 5.92308Z" fill="#B1B8BE"/>
<path d="M115.928 17.5714V12.2967C115.928 9.15385 118.124 7.17582 120.919 7.17582C123.715 7.17582 125.911 9.15385 125.911 12.2967V17.5714C125.911 18.2527 125.356 18.8022 124.691 18.8022C124.003 18.8022 123.47 18.2527 123.47 17.5714V12.2088C123.47 10.3846 122.339 9.41758 120.919 9.41758C119.5 9.41758 118.368 10.3846 118.368 12.2088V17.5714C118.368 18.2527 117.836 18.8022 117.148 18.8022C116.461 18.8022 115.928 18.2527 115.928 17.5714Z" fill="#B1B8BE"/>
<path d="M133.878 18.8242C130.683 18.8242 128.265 16.2527 128.265 13C128.265 9.74725 130.683 7.17582 133.878 7.17582C135.297 7.17582 136.584 7.68132 137.56 8.56044V8.40659C137.56 7.72528 138.092 7.1978 138.78 7.1978C139.468 7.1978 140 7.72528 140 8.40659V17.1758C140 20.4725 137.338 23 134.011 23C132.125 23 130.639 22.2088 129.774 21.2418C129.552 20.978 129.419 20.6703 129.419 20.4286C129.419 19.7473 129.951 19.2857 130.617 19.2857C131.105 19.2857 131.371 19.5714 131.681 19.8352C132.28 20.3846 133.035 20.7582 134.011 20.7582C135.941 20.7582 137.405 19.2857 137.538 17.4615C136.562 18.3187 135.297 18.8242 133.878 18.8242ZM134.144 16.5824C136.007 16.5824 137.471 15.1319 137.56 13.1538V13C137.56 10.956 136.051 9.41758 134.144 9.41758C132.236 9.41758 130.728 10.956 130.728 13C130.728 15.044 132.236 16.5824 134.144 16.5824Z" fill="#B1B8BE"/>
<defs>
<linearGradient id="paint0_linear_1487_1546" x1="3.48571" y1="-2.80724" x2="20.2739" y2="15.1944" gradientUnits="userSpaceOnUse">
<stop stop-color="#8E92FF"/>
<stop offset="1" stop-color="#AEA8FF"/>
</linearGradient>
<linearGradient id="paint1_linear_1487_1546" x1="14.3475" y1="8.15866" x2="31.1357" y2="26.1603" gradientUnits="userSpaceOnUse">
<stop stop-color="#686AFF"/>
<stop offset="1" stop-color="#7B67FF"/>
</linearGradient>
<clipPath id="clip0_1487_1546">
<rect width="35" height="23" fill="white"/>
</clipPath>
</defs>
</svg>
