<svg width="20" height="20" viewBox="0 0 20 20" fill="none" xmlns="http://www.w3.org/2000/svg">
<rect width="20" height="20" rx="10" fill="#7D67FF" fill-opacity="0.2"/>
<path fill-rule="evenodd" clip-rule="evenodd" d="M14.7661 8.28512C14.8813 8.16017 14.9711 8.0134 15.0305 7.85316C15.0898 7.69293 15.1176 7.52238 15.1121 7.35126C15.1066 7.18013 15.068 7.01177 14.9986 6.8558C14.9291 6.69983 14.8301 6.5593 14.7071 6.44223C14.5842 6.32516 14.4398 6.23385 14.2822 6.1735C14.1246 6.11316 13.9568 6.08497 13.7885 6.09053C13.6201 6.0961 13.4545 6.13532 13.3011 6.20595C13.1477 6.27658 13.0094 6.37724 12.8943 6.50218L8.94155 10.7901L6.98891 9.0267C6.73308 8.81051 6.40459 8.70387 6.07285 8.72931C5.74111 8.75475 5.43208 8.91029 5.21105 9.16305C4.99003 9.41582 4.87431 9.74603 4.88835 10.0839C4.90239 10.4218 5.04508 10.7409 5.28628 10.9739L8.17101 13.5805C8.42061 13.8059 8.74686 13.9234 9.08039 13.9081C9.41391 13.8927 9.72839 13.7457 9.95697 13.4984L14.7661 8.28512Z" fill="#7D67FF"/>
</svg>
