<svg width="164" height="150" viewBox="0 0 164 150" fill="none" xmlns="http://www.w3.org/2000/svg">
<path d="M19.8692 52.8242C18.0066 49.6351 16.6237 46.0509 15.6077 42.5232C10.7817 25.844 16.4826 7.13277 34.968 3.29457C42.8702 1.6577 50.8852 2.22214 58.1947 5.80633C60.2267 6.7941 62.2304 7.9512 64.0649 9.24941C66.0122 10.6323 67.8466 12.1563 69.5682 13.7649" fill="#C8A287"/>
<path d="M19.8693 55.2231C19.0508 55.2231 18.2606 54.7998 17.8091 54.0378C16.0311 50.9898 14.5353 47.3492 13.3218 43.2005C10.2456 32.5326 11.2898 21.7518 16.1722 13.6521C20.1515 7.01993 26.5015 2.64551 34.4883 0.980416C43.3218 -0.854015 51.873 0.0773133 59.2672 3.66151C61.4685 4.73395 63.5569 5.94749 65.4478 7.30215C67.3105 8.62859 69.2013 10.1808 71.2051 12.0152C72.1647 12.9183 72.2493 14.4141 71.3462 15.3736C70.4431 16.3332 68.9473 16.3896 67.9878 15.5148C66.1251 13.8214 64.4036 12.3821 62.7103 11.1968C61.0452 10.0115 59.1261 8.88258 57.1788 7.95126C50.6595 4.79039 43.3782 4.00018 35.4761 5.63705C28.8157 7.01993 23.5664 10.6323 20.2644 16.1074C16.1158 22.9936 15.2409 32.6173 17.922 41.8741C19.0226 45.6276 20.3491 48.9296 21.9295 51.6389C22.5786 52.7678 22.2117 54.2354 21.0828 54.9127C20.7159 55.1385 20.2926 55.2513 19.8975 55.2513L19.8693 55.2231Z" fill="#B3896F"/>
<path d="M144.103 52.8242C145.965 49.6351 147.348 46.0509 148.364 42.5232C153.19 25.844 147.489 7.13277 129.004 3.29457C121.102 1.6577 113.087 2.22214 105.777 5.80633C103.773 6.7941 101.741 7.9512 99.9069 9.24941C97.9595 10.6323 96.1251 12.1563 94.4036 13.7649" fill="#C8A287"/>
<path d="M144.102 55.2231C143.707 55.2231 143.284 55.1102 142.917 54.8845C141.788 54.2071 141.393 52.7678 142.071 51.6389C143.651 48.9296 145.006 45.6276 146.078 41.8741C148.759 32.6173 147.884 22.9936 143.736 16.1074C140.434 10.6323 135.184 7.01993 128.552 5.63705C120.65 4.00018 113.341 4.76217 106.849 7.95126C104.902 8.9108 102.983 10.0397 101.318 11.1968C99.6246 12.4103 97.9031 13.8214 96.0404 15.5148C95.0809 16.4179 93.5569 16.3614 92.682 15.3736C91.7789 14.4141 91.8636 12.8901 92.8231 12.0152C94.8269 10.1526 96.7178 8.62859 98.5804 7.30215C100.471 5.94749 102.56 4.73395 104.761 3.66151C112.127 0.0773133 120.706 -0.854015 129.54 0.980416C137.527 2.64551 143.849 7.01993 147.856 13.6521C152.738 21.7518 153.783 32.5326 150.706 43.2005C149.521 47.321 147.997 50.9898 146.219 54.0378C145.768 54.7998 144.977 55.2231 144.159 55.2231H144.102Z" fill="#B3896F"/>
<path d="M160.782 102.834C160.048 97.923 158.721 93.0688 156.661 88.5533C155.645 86.3237 154.432 84.1506 153.049 82.1469C151.976 80.6229 150.114 78.732 149.973 76.7847C149.239 66.2579 146.812 55.8157 141.845 46.6154C140.18 43.5392 138.26 40.6041 136.031 37.8665C131.628 32.4479 126.435 27.7066 120.622 23.8684C116.812 21.3284 112.72 19.2118 108.43 17.5467C100.302 14.3858 89.8879 11.6765 81.1109 11.9869C71.9388 12.2974 62.7384 14.7245 54.2153 18.3651C51.5625 19.494 48.9943 20.7358 46.4825 22.0622C38.6086 26.2391 31.5531 32.589 26.2473 39.9832C24.046 43.0594 22.1269 46.3049 20.5747 49.6351C16.6801 58.0453 14.6481 67.5843 14.0272 76.8129C13.9143 78.6191 12.1646 80.4818 11.1486 81.8929C9.90681 83.6144 8.74971 85.3359 7.81838 87.255C5.44773 92.1374 4.00841 97.5279 3.18997 102.89C0.621772 119.682 9.42703 133.116 24.9209 139.353C42.1363 146.267 63.6133 147.594 81.9858 147.594C100.358 147.594 121.863 146.295 139.051 139.353C154.545 133.116 163.35 119.682 160.782 102.89V102.834Z" fill="#C8A287"/>
<path d="M108.43 17.4903C100.302 14.3294 89.8882 11.6201 81.1111 11.9305C71.939 12.241 62.7386 14.6681 54.2156 18.3087" fill="#C8A287"/>
<path d="M54.2155 20.6795C53.2842 20.6795 52.4093 20.1432 52.0142 19.2401C51.5062 18.0266 52.0706 16.6155 53.2842 16.1075C62.8232 12.0435 72.1647 9.8422 81.0264 9.55998C92.2023 9.16487 104.535 13.4546 109.277 15.289C110.49 15.7688 111.111 17.1517 110.631 18.3652C110.151 19.607 108.769 20.1997 107.555 19.7199C98.0725 16.0228 88.477 14.0473 81.1957 14.3013C72.8985 14.5835 64.1496 16.6719 55.1468 20.4819C54.8364 20.623 54.5259 20.6795 54.2155 20.6795Z" fill="#B3896F"/>
<path d="M26.2473 39.9269C24.046 43.0031 22.1269 46.2486 20.5747 49.5788C16.6801 57.989 14.6481 67.528 14.0272 76.7566C13.9143 78.5628 12.1646 80.4255 11.1486 81.8366C9.90681 83.5581 8.74971 85.2797 7.81838 87.1988C5.44773 92.0812 4.00841 97.4716 3.18997 102.834C0.621772 119.626 9.42703 133.06 24.9209 139.297C42.1363 146.211 63.6133 147.537 81.9858 147.537C100.358 147.537 121.863 146.239 139.051 139.297C154.545 133.06 163.35 119.626 160.782 102.834C160.048 97.9231 158.721 93.069 156.661 88.5534C155.645 86.3239 154.432 84.1508 153.049 82.147C151.976 80.623 150.114 78.7322 149.973 76.7849C149.239 66.258 146.812 55.8159 141.845 46.6155C140.18 43.5393 138.26 40.6042 136.031 37.8667" fill="#C8A287"/>
<path d="M81.9859 149.908C66.0687 149.908 42.7573 149.033 24.0179 141.498C7.08473 134.696 -1.80519 119.739 0.819453 102.467C1.75078 96.3144 3.38765 90.8393 5.67364 86.1545C6.77429 83.8685 8.15717 81.8929 9.20139 80.4536C9.39894 80.1714 9.62471 79.8892 9.87871 79.5787C10.556 78.7039 11.572 77.3774 11.6285 76.6154C12.334 66.3144 14.6765 56.606 18.4018 48.591C20.0104 45.1197 21.986 41.7612 24.3002 38.5439C25.0622 37.4715 26.5579 37.2457 27.6304 38.0077C28.7028 38.7697 28.9286 40.2655 28.1666 41.3379C26.0217 44.3012 24.1873 47.4339 22.7197 50.623C19.2484 58.13 17.0471 67.2175 16.3698 76.9541C16.2287 79.1554 14.7893 81.0181 13.6322 82.5138C13.4347 82.7678 13.2371 83.0218 13.0678 83.2758C11.6567 85.2231 10.6972 86.7471 9.96338 88.2711C7.90317 92.5326 6.40741 97.5562 5.53253 103.201C3.21832 118.384 10.7818 131.056 25.7959 137.095C43.7451 144.32 66.4638 145.167 81.9859 145.167C97.508 145.167 120.227 144.32 138.176 137.095C153.19 131.056 160.754 118.384 158.439 103.201C157.677 98.2053 156.351 93.6051 154.516 89.5411C153.529 87.368 152.372 85.336 151.102 83.5016C150.876 83.1629 150.622 82.8243 150.34 82.4856C149.183 81.0181 147.771 79.1554 147.602 76.9541C146.84 65.8064 144.187 55.9851 139.756 47.7443C138.148 44.7246 136.257 41.9306 134.168 39.3624C133.35 38.3464 133.491 36.8506 134.507 36.004C135.523 35.1855 137.019 35.3266 137.865 36.3426C140.123 39.1366 142.183 42.2128 143.933 45.4865C148.703 54.3483 151.525 64.8186 152.343 76.6437C152.4 77.4056 153.388 78.6756 154.093 79.5787C154.432 80.0021 154.742 80.4254 155.024 80.8205C156.464 82.8807 157.762 85.1667 158.863 87.5938C160.895 92.0529 162.334 97.0764 163.181 102.495C165.805 119.767 156.915 134.725 139.982 141.526C121.271 149.061 97.9314 149.936 82.0141 149.936L81.9859 149.908Z" fill="#B3896F"/>
<path d="M53.2277 110.567C53.2277 106.446 46.9906 103.116 39.3142 103.116C31.6378 103.116 25.4008 106.446 25.4008 110.567C25.4008 114.687 31.6378 118.017 39.3142 118.017C46.9906 118.017 53.2277 114.687 53.2277 110.567Z" fill="#B3896F"/>
<path d="M110.744 110.567C110.744 106.446 116.981 103.116 124.658 103.116C132.334 103.116 138.571 106.446 138.571 110.567C138.571 114.687 132.334 118.017 124.658 118.017C116.981 118.017 110.744 114.687 110.744 110.567Z" fill="#B3896F"/>
<path d="M93.7827 108.167C93.7827 108.167 92.2022 102.89 81.9859 102.89C71.7695 102.89 70.1891 108.167 70.1891 108.167" fill="#C8A287"/>
<path d="M70.1891 110.566C69.9634 110.566 69.7376 110.538 69.4836 110.453C68.2136 110.087 67.508 108.704 67.9032 107.462C67.9878 107.18 70.1045 100.463 81.9859 100.463C93.8674 100.463 95.984 107.18 96.0687 107.462C96.4356 108.732 95.73 110.058 94.4601 110.425C93.2183 110.792 91.9201 110.115 91.525 108.873C91.4121 108.619 89.9445 105.232 81.9859 105.232C74.0273 105.232 72.5033 108.732 72.4469 108.901C72.1365 109.917 71.2051 110.566 70.1891 110.566Z" fill="#B3896F"/>
<path d="M86.7553 110.566C86.7553 109.212 84.6105 108.111 81.9858 108.111C79.3612 108.111 77.2163 109.212 77.2163 110.566C77.2163 111.921 79.3612 113.022 81.9858 113.022C84.6105 113.022 86.7553 111.921 86.7553 110.566Z" fill="#3F3B3A"/>
<path d="M68.8062 102.184C68.8062 105.486 66.1251 108.168 62.8231 108.168C59.5212 108.168 56.8401 105.486 56.8401 102.184C56.8401 98.8825 59.5212 96.2014 62.8231 96.2014C66.1251 96.2014 68.8062 98.8825 68.8062 102.184Z" fill="#3F3B3A"/>
<path d="M107.273 102.184C107.273 105.486 104.592 108.168 101.29 108.168C97.9877 108.168 95.3066 105.486 95.3066 102.184C95.3066 98.8825 97.9877 96.2014 101.29 96.2014C104.592 96.2014 107.273 98.8825 107.273 102.184Z" fill="#3F3B3A"/>
<path d="M75.3538 26.7754C75.9464 32.194 73.2089 36.1451 70.1045 40.1244C72.1647 42.6079 82.2399 41.7048 84.8082 40.576C89.9163 38.5157 93.2748 32.8149 93.8392 27.7067" fill="#C8A287"/>
<path d="M76.6802 44.0755C73.2371 44.0755 69.8505 43.4829 68.2983 41.6202C67.5927 40.7453 67.5645 39.5036 68.2418 38.6287C71.2334 34.7905 73.4629 31.4885 73.0113 27.0012C72.8702 25.703 73.8298 24.5177 75.128 24.3766C76.4544 24.2355 77.6115 25.195 77.7526 26.4932C78.2889 31.6014 76.398 35.496 73.8298 39.1367C76.7649 39.5318 82.0706 39.1367 83.8768 38.3747C88.3077 36.5967 91.0452 31.5167 91.4967 27.4245C91.6379 26.1263 92.8514 25.1668 94.1214 25.3079C95.4196 25.449 96.3792 26.6343 96.238 27.9325C95.6454 33.2665 92.0894 40.1809 85.7112 42.7491C84.4695 43.3135 80.5466 44.0473 76.6802 44.0473V44.0755Z" fill="#B3896F"/>
</svg>
