<svg width="164" height="180" viewBox="0 0 164 180" fill="none" xmlns="http://www.w3.org/2000/svg">
<path d="M143.482 83.1887C143.482 83.1887 163.293 10.8275 130.866 3.20756C130.866 3.20756 96.3791 -3.84795 95.0244 60.6958" fill="white"/>
<path d="M143.482 85.5876C143.284 85.5876 143.058 85.5876 142.861 85.5029C141.591 85.1643 140.857 83.8378 141.196 82.5678C141.337 82.0881 154.037 34.8162 141.76 14.1859C138.994 9.52925 135.241 6.70705 130.33 5.54995C130.076 5.4935 121.864 3.99774 113.707 10.5735C103.576 18.7578 97.9313 36.1144 97.3951 60.7804C97.3951 62.1069 96.3226 63.1229 94.968 63.1229C93.6416 63.1229 92.5973 61.994 92.6256 60.6958C93.19 34.1106 99.3142 15.9921 110.829 6.79171C120.763 -1.13867 130.923 0.83687 131.346 0.921536C137.583 2.38908 142.437 6.02972 145.852 11.787C159.173 34.1671 146.36 81.8623 145.796 83.866C145.514 84.9385 144.554 85.6158 143.51 85.6158L143.482 85.5876Z" fill="#F8C6BE"/>
<path d="M20.5184 83.1887C20.5184 83.1887 0.706581 10.8275 33.1337 3.20756C33.1337 3.20756 67.6209 -3.84795 68.9756 60.6958" fill="white"/>
<path d="M20.5184 85.5877C19.4742 85.5877 18.5146 84.8821 18.2324 83.8379C17.668 81.8059 4.85518 34.1389 18.176 11.7589C21.5908 6.00158 26.445 2.36094 32.6256 0.921622C33.1336 0.808734 43.2936 -1.13858 53.1995 6.7918C64.714 15.9922 70.8382 34.1107 71.4027 60.6958C71.4027 62.0223 70.3867 63.0947 69.0602 63.1229C69.0602 63.1229 69.032 63.1229 69.0038 63.1229C67.7056 63.1229 66.6614 62.0787 66.6331 60.7805C66.1251 36.0298 60.4243 18.645 50.2362 10.5171C42.0236 3.9696 33.7263 5.57825 33.6416 5.57825C28.7874 6.70713 25.0339 9.55756 22.2681 14.186C9.96335 34.8445 22.6915 82.0881 22.8326 82.5679C23.1712 83.8379 22.4375 85.1361 21.1675 85.503C20.9699 85.5594 20.7442 85.5877 20.5466 85.5877H20.5184Z" fill="#F8C6BE"/>
<path d="M160.81 132.295C160.076 127.384 158.75 122.53 156.69 118.015C155.674 115.785 154.46 113.612 153.077 111.608C152.005 110.084 150.142 108.193 150.001 106.246C149.295 95.7193 146.84 85.2772 141.873 76.0768C140.208 73.0006 138.289 70.0655 136.059 67.328C131.657 61.9093 126.464 57.168 120.65 53.3298C116.84 50.8181 112.748 48.6732 108.458 47.0081C100.33 43.8472 89.9163 41.1379 81.1392 41.4484C71.9671 41.7588 62.7667 44.1859 54.2437 47.8265C51.5908 48.9554 48.9944 50.1972 46.5108 51.5236C38.6369 55.7005 31.6096 62.0504 26.2757 69.4446C24.0743 72.5208 22.1553 75.7663 20.6031 79.0965C16.6802 87.5067 14.6764 97.0457 14.0555 106.274C13.9426 108.081 12.1929 109.943 11.1769 111.354C9.93513 113.076 8.77803 114.797 7.8467 116.716C5.47605 121.599 4.00851 126.989 3.21829 132.351C0.650092 149.144 9.45535 162.577 24.9492 168.814C42.1646 175.729 63.6416 177.055 82.0141 177.055C100.387 177.055 121.864 175.757 139.079 168.814C154.573 162.577 163.35 149.144 160.81 132.351V132.295Z" fill="white"/>
<path d="M108.43 46.98C100.302 43.8192 89.8879 41.1099 81.1109 41.4203C71.9387 41.7307 62.7384 44.1578 54.2153 47.7985" fill="white"/>
<path d="M54.2436 50.1691C53.3122 50.1691 52.4374 49.6329 52.0422 48.7298C51.5343 47.5162 52.0987 46.1051 53.3122 45.5971C62.8513 41.5332 72.1928 39.3318 81.0545 39.0496C92.2868 38.6827 104.563 42.9443 109.305 44.7787C110.518 45.2585 111.139 46.6413 110.659 47.8549C110.18 49.0684 108.797 49.6893 107.583 49.2095C98.1005 45.5125 88.5051 43.5651 81.2238 43.7909C72.9265 44.0731 64.1777 46.1616 55.1749 49.9715C54.8644 50.0844 54.554 50.1691 54.2436 50.1691Z" fill="#F8C6BE"/>
<path d="M26.2474 69.3881C24.0461 72.4643 22.1269 75.7098 20.5747 79.04C16.6519 87.4502 14.6481 96.9892 14.0272 106.218C13.9143 108.024 12.1646 109.887 11.1486 111.298C9.90681 113.019 8.74971 114.741 7.81838 116.66C5.44773 121.542 3.98019 126.933 3.18997 132.295C0.621771 149.087 9.42705 162.521 24.9209 168.758C42.1363 175.672 63.6133 176.999 81.9858 176.999C100.358 176.999 121.835 175.7 139.051 168.758C154.545 162.521 163.322 149.087 160.782 132.295C160.048 127.384 158.721 122.53 156.661 118.015C155.645 115.785 154.432 113.612 153.049 111.608C151.976 110.084 150.114 108.193 149.973 106.246C149.267 95.7192 146.812 85.2771 141.845 76.0767C140.18 73.0005 138.26 70.0654 136.031 67.3279" fill="white"/>
<path d="M81.9859 179.369C66.0687 179.369 42.7291 178.494 24.0179 170.959C7.08474 164.158 -1.80519 149.2 0.819453 131.928C1.75078 125.804 3.38766 120.301 5.67364 115.616C6.7743 113.358 8.15718 111.382 9.20139 109.887C9.39894 109.605 9.62471 109.322 9.87871 109.012C10.556 108.137 11.572 106.811 11.6285 106.049C12.334 95.7193 14.6764 86.0391 18.4017 78.0241C20.0104 74.5528 21.986 71.1944 24.3002 67.977C25.0622 66.9046 26.5579 66.6788 27.6303 67.4408C28.7028 68.2028 28.9286 69.6986 28.1666 70.771C26.0499 73.7343 24.2155 76.8388 22.7197 80.0561C19.2484 87.5631 17.0471 96.6506 16.3698 106.387C16.2287 108.589 14.7893 110.451 13.6322 111.947C13.4347 112.201 13.2371 112.455 13.0678 112.709C12.1082 114.007 10.9229 115.757 9.96338 117.704C7.87495 121.966 6.4074 126.989 5.53252 132.634C3.21832 147.817 10.81 160.489 25.7959 166.528C43.7451 173.753 66.4638 174.6 81.9859 174.6C97.508 174.6 120.227 173.753 138.176 166.528C153.19 160.489 160.754 147.817 158.439 132.634C157.677 127.638 156.351 123.038 154.516 119.002C153.529 116.829 152.372 114.797 151.102 112.963C150.876 112.624 150.622 112.286 150.34 111.947C149.183 110.451 147.743 108.617 147.602 106.387C146.84 95.2395 144.187 85.4182 139.756 77.1774C138.148 74.1859 136.257 71.3637 134.168 68.7955C133.35 67.7795 133.491 66.2837 134.507 65.4371C135.523 64.6186 137.019 64.7597 137.866 65.7757C140.123 68.5697 142.183 71.6459 143.933 74.9197C148.703 83.7814 151.525 94.2517 152.343 106.077C152.4 106.867 153.388 108.109 154.093 109.04C154.432 109.463 154.742 109.887 155.024 110.254C156.464 112.314 157.762 114.6 158.863 117.027C160.895 121.486 162.362 126.509 163.181 131.928C165.805 149.2 156.915 164.158 139.982 170.959C121.271 178.494 97.9313 179.369 82.0141 179.369H81.9859Z" fill="#F8C6BE"/>
<path d="M53.2276 140.028C53.2276 135.908 46.9906 132.577 39.3142 132.577C31.6378 132.577 25.4008 135.908 25.4008 140.028C25.4008 144.148 31.6378 147.479 39.3142 147.479C46.9906 147.479 53.2276 144.148 53.2276 140.028Z" fill="#F8C6BE"/>
<path d="M110.772 140.028C110.772 135.908 117.009 132.577 124.686 132.577C132.362 132.577 138.599 135.908 138.599 140.028C138.599 144.148 132.362 147.479 124.686 147.479C117.009 147.479 110.772 144.148 110.772 140.028Z" fill="#F8C6BE"/>
<path d="M86.7554 140.028C86.7554 138.673 84.6105 137.573 81.9858 137.573C79.3612 137.573 77.2163 138.673 77.2163 140.028C77.2163 141.382 79.3612 142.483 81.9858 142.483C84.6105 142.483 86.7554 141.382 86.7554 140.028Z" fill="#3F3B3A"/>
<path d="M68.8062 131.646C68.8062 134.948 66.1251 137.629 62.8231 137.629C59.5212 137.629 56.8401 134.948 56.8401 131.646C56.8401 128.344 59.5212 125.663 62.8231 125.663C66.1251 125.663 68.8062 128.344 68.8062 131.646Z" fill="#3F3B3A"/>
<path d="M107.301 131.646C107.301 134.948 104.62 137.629 101.318 137.629C98.016 137.629 95.335 134.948 95.335 131.646C95.335 128.344 98.016 125.663 101.318 125.663C104.62 125.663 107.301 128.344 107.301 131.646Z" fill="#3F3B3A"/>
<path d="M75.3819 56.2368C75.9463 61.6554 73.237 65.6065 70.1326 69.5858C72.1928 72.0694 82.268 71.1663 84.8362 70.0374C89.9444 67.9772 93.3028 62.2763 93.8672 57.1681" fill="white"/>
<path d="M76.6801 73.565C73.2652 73.565 69.8504 72.9724 68.2981 71.1097C67.5926 70.2631 67.5644 69.0213 68.2417 68.1182C71.2332 64.28 73.4628 60.978 72.983 56.4907C72.8419 55.1925 73.8014 54.0072 75.0997 53.8661C76.4261 53.725 77.5832 54.6845 77.7243 55.9827C78.2605 61.0909 76.3696 64.9855 73.8014 68.6262C76.7365 69.0213 82.0423 68.6262 83.8485 67.8642C88.2794 66.0862 91.0169 61.0062 91.4684 56.914C91.6095 55.6158 92.8231 54.6563 94.0931 54.7974C95.3913 54.9385 96.3508 56.1238 96.2097 57.422C95.617 62.756 92.0611 69.6704 85.6829 72.2386C84.4411 72.803 80.5183 73.565 76.6519 73.565H76.6801Z" fill="#F8C6BE"/>
<path d="M81.9859 145.08C81.1111 145.08 80.4055 144.374 80.4055 143.499V139.153C80.4055 138.278 81.1111 137.573 81.9859 137.573C82.8608 137.573 83.5664 138.278 83.5664 139.153V143.499C83.5664 144.374 82.8608 145.08 81.9859 145.08Z" fill="#3F3B3A"/>
</svg>
