<svg width="196" height="154" viewBox="0 0 196 154" fill="none" xmlns="http://www.w3.org/2000/svg">
<path d="M74.1807 75.8887C74.1807 56.1897 58.207 40.2161 38.5081 40.2161C18.8091 40.2161 2.83545 56.1897 2.83545 75.8887C2.83545 95.5877 18.8091 111.561 38.5081 111.561C58.207 111.561 74.1807 95.5877 74.1807 75.8887Z" fill="#EBC0A1"/>
<path d="M38.5363 113.932C17.5673 113.932 0.493042 96.8577 0.493042 75.8887C0.493042 54.9198 17.5673 37.8455 38.5363 37.8455C59.5052 37.8455 76.5795 54.9198 76.5795 75.8887C76.5795 96.8577 59.5052 113.932 38.5363 113.932ZM38.5363 42.5868C20.192 42.5868 5.26257 57.5162 5.26257 75.8605C5.26257 94.2048 20.192 109.134 38.5363 109.134C56.8806 109.134 71.81 94.2048 71.81 75.8605C71.81 57.5162 56.8806 42.5868 38.5363 42.5868Z" fill="#987356"/>
<path d="M193.136 75.8887C193.136 56.1897 177.163 40.2161 157.464 40.2161C137.765 40.2161 121.791 56.1897 121.791 75.8887C121.791 95.5877 137.765 111.561 157.464 111.561C177.163 111.561 193.136 95.5877 193.136 75.8887Z" fill="#EBC0A1"/>
<path d="M157.464 113.932C136.495 113.932 119.421 96.8577 119.421 75.8887C119.421 54.9198 136.495 37.8455 157.464 37.8455C178.433 37.8455 195.507 54.9198 195.507 75.8887C195.507 96.8577 178.433 113.932 157.464 113.932ZM157.464 42.5868C139.12 42.5868 124.19 57.5162 124.19 75.8605C124.19 94.2048 139.12 109.134 157.464 109.134C175.808 109.134 190.737 94.2048 190.737 75.8605C190.737 57.5162 175.808 42.5868 157.464 42.5868Z" fill="#987356"/>
<path d="M152.976 85.7945C152.976 85.7945 152.44 40.5264 117.896 37.3655C117.896 37.3655 103.334 35.9827 98.1129 46.5095C92.8636 35.9827 78.3293 37.3655 78.3293 37.3655C43.7573 40.5546 43.2493 85.7945 43.2493 85.7945C5.12137 123.951 52.6472 146.641 54.0019 147.262C68.3386 150.677 84.143 151.439 98.1411 151.439C112.139 151.439 127.944 150.677 142.28 147.262C143.522 146.669 191.189 124.007 153.033 85.7945H152.976Z" fill="#EBC0A1"/>
<path d="M98.0847 153.838C79.7687 153.838 65.573 152.483 53.3811 149.576C53.2117 149.548 53.0707 149.492 52.9295 149.407C51.9982 148.955 29.7875 138.372 26.4573 119.351C24.4817 108.175 29.336 96.5472 40.8505 84.7786C41.2174 77.9489 44.7451 38.0429 78.0753 34.995C78.0753 34.995 78.7809 34.9385 79.9944 34.9385C83.9173 34.9385 92.7508 35.7005 98.0847 42.1634C105.056 33.7532 118.094 34.995 118.094 34.995C151.424 38.0712 154.952 77.9489 155.291 84.7786C166.805 96.5472 171.659 108.203 169.684 119.379C166.326 138.429 144.143 148.984 143.212 149.435C143.071 149.492 142.929 149.548 142.76 149.605C130.596 152.511 116.401 153.866 98.0847 153.866V153.838ZM54.7357 145.004C66.4761 147.77 80.2484 149.068 98.0847 149.068C115.921 149.068 129.693 147.77 141.406 145.004C143.72 143.875 162.177 134.478 164.999 118.56C166.721 108.796 162.12 98.3252 151.283 87.4879C150.832 87.0364 150.606 86.4437 150.578 85.8228C150.578 84.073 149.646 42.6713 117.643 39.7363C117.586 39.7363 117.05 39.6798 116.175 39.6798C112.563 39.6798 103.757 40.4418 100.201 47.5538C99.8063 48.3722 98.9596 48.8802 98.0847 48.8802C97.2099 48.8802 96.3632 48.3722 95.9398 47.5538C92.4121 40.4418 83.6069 39.6798 79.9662 39.6798C79.0913 39.6798 78.5551 39.7363 78.4987 39.7363C46.4385 42.6713 45.5636 85.3995 45.5636 85.8228C45.5636 86.4437 45.3096 87.0364 44.858 87.4879C34.0208 98.3252 29.4206 108.767 31.1139 118.532C33.9079 134.421 52.3651 143.875 54.7075 145.004H54.7357Z" fill="#987356"/>
<path d="M176.852 106.792C175.667 99.0026 173.212 91.6931 168.527 85.3149C167.595 84.0731 166.128 82.3798 166.015 80.7429C165.056 66.6884 161.02 52.8314 152.073 41.8248C144.764 32.8502 135.309 25.71 124.5 21.5049C116.401 18.3441 105.987 15.6348 97.2098 15.9452C85.1873 16.3403 73.1364 20.4043 62.6096 25.9922C51.4619 31.8906 42.0076 42.1634 36.7019 53.5651C32.8072 61.9753 30.7752 71.5143 30.1543 80.7429C30.0415 82.2669 28.7433 83.7627 27.9248 84.948C26.9088 86.3591 25.8364 87.7702 24.9897 89.2942C22.0546 94.5999 20.2484 100.809 19.3171 106.792C16.7771 123.584 25.5542 136.989 41.048 143.226C45.1402 144.863 49.4864 146.19 53.9455 147.262C52.6191 146.641 5.06496 123.951 43.1929 85.7947C43.1929 85.7947 43.7291 40.5266 78.2729 37.3657C78.2729 37.3657 92.8354 35.9828 98.0565 46.5096C103.306 35.9828 117.84 37.3657 117.84 37.3657C152.412 40.5548 152.92 85.7947 152.92 85.7947C191.076 124.007 143.437 146.67 142.167 147.262C146.655 146.19 150.973 144.863 155.093 143.226C170.587 136.989 179.364 123.584 176.796 106.792H176.852Z" fill="#987356"/>
<path d="M142.224 149.633C141.236 149.633 140.305 149.012 139.966 148.024C139.571 146.867 140.107 145.597 141.208 145.089C142.055 144.694 162.064 135.155 164.999 118.532C166.721 108.767 162.12 98.297 151.283 87.4597C150.832 87.0082 150.606 86.4155 150.578 85.7946C150.578 84.0449 149.646 42.6432 117.643 39.7081C117.586 39.7081 117.05 39.6516 116.175 39.6516C112.563 39.6516 103.757 40.4136 100.201 47.5256C99.8063 48.344 98.9596 48.852 98.0847 48.852C97.2099 48.852 96.3632 48.344 95.9398 47.5256C92.4121 40.4136 83.6069 39.6516 79.9662 39.6516C79.0913 39.6516 78.5551 39.7081 78.4987 39.7081C46.4385 42.6432 45.5636 85.3713 45.5636 85.7946C45.5636 86.4155 45.3096 87.0082 44.8581 87.4597C34.0208 98.297 29.4206 108.739 31.1139 118.504C33.9079 134.449 52.478 143.904 54.7075 144.976C55.6388 145.315 56.3162 146.19 56.3162 147.234C56.3162 148.532 55.272 149.605 53.9455 149.605C53.7198 149.605 53.5504 149.605 53.3529 149.548C48.5551 148.391 44.096 147.008 40.1167 145.4C23.1835 138.598 14.2936 123.64 16.9465 106.397C17.9907 99.5388 20.0509 93.217 22.8731 88.0806C23.6351 86.6695 24.5664 85.3995 25.4413 84.186L26.3726 82.916C26.9089 82.2105 27.6991 81.138 27.7273 80.5454C28.4328 70.2443 30.7753 60.5359 34.5006 52.5209C40.145 40.3854 49.9662 29.9151 61.4526 23.8473C73.4751 17.4691 85.8082 13.885 97.097 13.5181C97.5485 13.5181 98.0283 13.5181 98.5081 13.5181C106.156 13.5181 115.921 15.6065 125.347 19.2754C136.297 23.5369 146.175 30.8182 153.908 40.3008C162.403 50.7429 167.257 64.2895 168.386 80.5736C168.442 81.2509 169.345 82.4644 169.966 83.2829L170.446 83.9038C174.961 90.0562 177.84 97.4221 179.195 106.425C181.819 123.669 172.929 138.626 156.025 145.428C152.045 147.036 147.586 148.419 142.788 149.576C142.591 149.633 142.421 149.633 142.224 149.633ZM98.5645 18.2876C98.1412 18.2876 97.7179 18.2876 97.3227 18.2876C86.7395 18.6545 75.1403 22.0411 63.7386 28.0806C53.3247 33.6121 44.0396 43.4898 38.875 54.5529C35.4037 62.0317 33.2023 71.1474 32.525 80.884C32.3839 82.8596 31.1421 84.5529 30.239 85.7946L29.336 87.0364C28.4893 88.1935 27.6991 89.2942 27.05 90.4513C24.4818 95.0797 22.6191 100.837 21.6596 107.159C19.5429 121.072 25.7235 132.869 38.3388 139.388C33.0048 134.421 27.8966 127.704 26.4573 119.379C24.4818 108.203 29.336 96.5755 40.8505 84.8069C41.2174 77.9771 44.7451 38.0712 78.0753 35.0232C78.0753 35.0232 78.7809 34.9668 79.9944 34.9668C83.9173 34.9668 92.7508 35.7288 98.0847 42.1916C105.056 33.7815 118.094 35.0232 118.094 35.0232C151.424 38.0994 154.952 77.9771 155.291 84.8069C166.805 96.5755 171.659 108.231 169.684 119.407C168.216 127.733 163.136 134.449 157.831 139.388C170.418 132.869 176.598 121.072 174.482 107.159C173.24 98.9179 170.644 92.2575 166.608 86.726L166.184 86.1615C165.168 84.8351 163.786 83.0007 163.644 80.884C162.6 65.6159 158.085 52.9724 150.239 43.3205C143.042 34.4588 133.842 27.6855 123.654 23.7344C114.792 20.2913 105.62 18.3158 98.5645 18.3158V18.2876Z" fill="#987356"/>
<path d="M102.854 110.009C102.854 108.654 100.709 107.554 98.0847 107.554C95.4601 107.554 93.3152 108.654 93.3152 110.009C93.3152 111.364 95.4601 112.464 98.0847 112.464C100.709 112.464 102.854 111.364 102.854 110.009Z" fill="#3F3B3A"/>
<path d="M67.0405 110.009C67.0405 105.578 60.3237 101.966 52.0264 101.966C43.7291 101.966 37.0123 105.578 37.0123 110.009C37.0123 114.44 43.7291 118.052 52.0264 118.052C60.3237 118.052 67.0405 114.468 67.0405 110.009Z" fill="#D7A686"/>
<path d="M129.157 110.009C129.157 105.578 135.874 101.966 144.171 101.966C152.468 101.966 159.185 105.578 159.185 110.009C159.185 114.44 152.468 118.052 144.171 118.052C135.874 118.052 129.157 114.468 129.157 110.009Z" fill="#D7A686"/>
<path d="M81.7161 18.3439C81.7161 18.3439 101.161 16.7635 103.532 2.48315C103.532 2.48315 111.744 16.3966 100.089 23.5368" fill="#987356"/>
<path d="M100.088 25.9075C99.2983 25.9075 98.508 25.5124 98.0565 24.7786C97.3792 23.6497 97.7178 22.1822 98.8467 21.5049C104.209 18.2029 104.435 13.0947 103.588 9.20006C97.4921 19.3318 82.6755 20.6864 81.9135 20.7429C80.6153 20.8558 79.4582 19.868 79.3453 18.5698C79.2325 17.2716 80.2202 16.1145 81.5184 16.0016C81.8006 16.0016 99.129 14.3365 101.161 2.11634C101.33 1.12857 102.092 0.338352 103.08 0.16902C104.068 -0.000311936 105.056 0.451239 105.564 1.2979C108.809 6.80119 112.111 18.9649 101.33 25.5971C100.935 25.851 100.512 25.9357 100.088 25.9357V25.9075Z" fill="#987356"/>
<path d="M84.8767 101.599C84.8767 104.901 82.1956 107.554 78.9219 107.554C75.6481 107.554 72.967 104.873 72.967 101.599C72.967 98.3251 75.6481 95.644 78.9219 95.644C82.1956 95.644 84.8767 98.2969 84.8767 101.599Z" fill="#3F3B3A"/>
<path d="M123.23 101.599C123.23 104.901 120.549 107.554 117.276 107.554C114.002 107.554 111.321 104.873 111.321 101.599C111.321 98.3251 113.974 95.644 117.276 95.644C120.578 95.644 123.23 98.2969 123.23 101.599Z" fill="#3F3B3A"/>
<path d="M94.3594 119.068C91.9605 119.068 89.8439 117.686 89.5616 117.46C88.4892 116.698 88.207 115.23 88.969 114.13C89.7027 113.057 91.1985 112.775 92.271 113.509C92.9483 113.96 94.2465 114.468 94.7263 114.186C95.0932 113.988 95.714 112.888 95.714 109.953C95.714 108.626 96.7865 107.582 98.1129 107.582C99.4393 107.582 100.484 108.654 100.484 109.953C100.484 114.327 99.2982 117.178 96.9276 118.391C96.0809 118.843 95.206 119.012 94.3594 119.012V119.068Z" fill="#3F3B3A"/>
<path d="M101.81 119.068C100.963 119.068 100.088 118.899 99.2417 118.447C96.8993 117.206 95.6858 114.355 95.6858 110.009C95.6858 108.683 96.7582 107.638 98.0564 107.638C99.3546 107.638 100.455 108.711 100.455 110.009C100.455 112.944 101.076 114.045 101.443 114.242C101.923 114.496 103.221 114.017 103.898 113.565C104.971 112.831 106.467 113.113 107.2 114.186C107.934 115.258 107.68 116.726 106.579 117.488C106.269 117.685 104.181 119.097 101.782 119.097L101.81 119.068Z" fill="#3F3B3A"/>
</svg>
