<svg width="164" height="156" viewBox="0 0 164 156" fill="none" xmlns="http://www.w3.org/2000/svg">
<path d="M145.274 64.3721C145.274 64.3721 158.989 32.7353 148.999 11.0043C148.999 11.0043 128.877 8.09744 98.0864 18.5678" fill="#D4D4D3"/>
<path d="M145.274 66.7428C144.963 66.7428 144.625 66.6864 144.314 66.5452C143.101 66.009 142.564 64.6261 143.072 63.4126C143.213 63.1022 155.744 33.6948 147.362 13.2339C142.508 12.8387 124.333 12.1614 98.8767 20.8256C97.6349 21.2489 96.2803 20.5716 95.8569 19.3298C95.4336 18.088 96.1109 16.7334 97.3527 16.3101C128.312 5.78324 148.519 8.52077 149.366 8.66188C150.156 8.77477 150.862 9.28277 151.2 10.0165C161.53 32.453 148.068 63.977 147.503 65.3035C147.108 66.2066 146.233 66.7428 145.302 66.7428H145.274Z" fill="#BEBAB7"/>
<path d="M18.7829 64.3721C18.7829 64.3721 5.06698 32.7353 15.0576 11.0043C15.0576 11.0043 35.1799 8.09744 65.9418 18.5678" fill="#D4D4D3"/>
<path d="M18.7827 66.7427C17.8514 66.7427 16.9765 66.2065 16.5814 65.3034C16.017 63.977 2.55511 32.4248 12.8844 10.0165C13.223 9.28271 13.9003 8.77471 14.7188 8.66182C15.5654 8.54894 35.7724 5.78318 66.7319 16.31C67.9737 16.7333 68.651 18.088 68.2277 19.3297C67.8043 20.5715 66.4497 21.2488 65.208 20.8255C39.7517 12.1614 21.5768 12.8387 16.6943 13.2338C8.31241 33.723 20.8429 63.1021 20.9841 63.4125C21.4921 64.6261 20.9558 66.0372 19.7423 66.5452C19.4318 66.6863 19.1214 66.7427 18.7827 66.7427Z" fill="#BEBAB7"/>
<path d="M160.768 108.455C159.949 103.121 158.51 97.7023 156.139 92.8482C155.208 90.9291 154.079 89.2075 152.809 87.486C151.793 86.0749 150.071 84.2404 149.93 82.406C149.338 73.7701 147.503 64.8519 144.06 56.8369C143.975 56.8369 143.891 56.8369 143.834 56.8086C144.935 60.8162 147.616 71.2019 147.814 71.6252C147.503 71.3712 147.221 71.1454 146.911 70.9196C145.979 67.2508 144.568 61.5782 143.863 58.8124C143.637 57.8811 143.468 57.2884 143.411 57.1755C141.859 53.676 139.94 50.2611 137.738 47.0156C132.404 39.2545 125.377 32.5659 117.503 28.1915C114.992 26.8086 112.423 25.5104 109.77 24.3251C101.247 20.5151 92.047 17.9469 82.9031 17.6365C82.6209 17.6365 82.3387 17.6365 82.0564 17.6365C81.7742 17.6365 81.492 17.6365 81.2097 17.6365C72.0376 17.9751 62.8655 20.5151 54.3424 24.3251C51.6896 25.5104 49.0931 26.8086 46.6095 28.1915C38.7356 32.5659 31.7084 39.2545 26.4027 47.0156C24.2013 50.2329 22.2822 53.6478 20.73 57.1755C20.7018 57.2602 20.5324 57.8811 20.2784 58.8124C19.5729 61.5782 18.1618 67.2508 17.2023 70.9196C16.8918 71.1736 16.6096 71.3994 16.2991 71.6252C16.4967 71.2019 19.1778 60.8162 20.2784 56.8086C20.1938 56.8086 20.1092 56.8086 20.0527 56.8369C16.6096 64.8519 14.7751 73.7701 14.1825 82.406C14.0696 84.2122 12.3199 86.0749 11.3039 87.486C10.0621 89.2075 8.90502 90.9291 7.97369 92.8482C5.60305 97.7306 4.16368 103.121 3.34525 108.455C0.777044 125.247 9.58234 138.652 25.0762 144.89C42.2634 151.804 63.7403 153.102 82.1129 153.102C100.485 153.102 121.962 151.804 139.15 144.89C154.643 138.652 163.42 125.247 160.852 108.455H160.768Z" fill="#D4D4D3"/>
<path d="M3.2607 108.455C0.720722 125.247 9.4978 138.652 24.9917 144.889C42.1789 151.804 63.6558 153.102 82.0283 153.102C100.401 153.102 121.878 151.804 139.065 144.889C154.559 138.652 163.336 125.247 160.768 108.455" fill="#D4D4D3"/>
<path d="M82.0283 155.501C66.1111 155.501 42.7997 154.626 24.0885 147.091C7.1553 140.289 -1.73464 125.332 0.89001 108.088C1.08756 106.79 2.30109 105.887 3.5993 106.084C4.89751 106.282 5.80059 107.495 5.60304 108.794C3.28883 123.977 10.8524 136.62 25.8382 142.66C43.7874 149.885 66.4779 150.703 81.9718 150.703C97.4656 150.703 120.184 149.885 138.134 142.66C153.119 136.62 160.711 123.977 158.397 108.794C158.199 107.495 159.103 106.282 160.401 106.084C161.699 105.887 162.912 106.79 163.11 108.088C165.735 125.332 156.845 140.289 139.94 147.091C121.229 154.626 97.9172 155.501 82 155.501H82.0283Z" fill="#BEBAB7"/>
<path d="M3.28882 108.455C4.02259 103.544 5.349 98.6901 7.40921 94.1746C8.4252 91.9451 9.63874 89.8002 11.0216 87.7682C12.0658 86.2442 13.9567 84.3534 14.0978 82.3778C14.8034 71.851 17.2587 61.4089 22.1975 52.2085" fill="#D4D4D3"/>
<path d="M3.28888 110.826C3.28888 110.826 3.06309 110.826 2.92198 110.826C1.62377 110.628 0.720687 109.415 0.918241 108.116C1.73668 102.698 3.20422 97.6741 5.2362 93.2151C6.36508 90.788 7.63503 88.502 9.07435 86.4418C9.35657 86.0467 9.66698 85.6516 10.0056 85.2C10.7676 84.2405 11.699 83.0269 11.7555 82.2649C12.5739 70.4681 15.3961 59.9978 20.1374 51.1361C20.7583 49.9789 22.1976 49.5556 23.3547 50.1765C24.5118 50.7974 24.9351 52.2367 24.3142 53.3938C19.8834 61.6346 17.2305 71.4559 16.4685 82.6036C16.3274 84.8331 14.8881 86.6676 13.731 88.1351C13.4487 88.502 13.1948 88.8407 12.969 89.1511C11.699 90.9855 10.5419 93.0175 9.55417 95.1906C7.69151 99.2546 6.36504 103.855 5.63127 108.822C5.46193 110.007 4.44598 110.854 3.28888 110.854V110.826Z" fill="#BEBAB7"/>
<path d="M108.472 23.1681C100.627 20.1201 90.636 17.4672 82.0283 17.5801Z" fill="#D4D4D3"/>
<path d="M108.472 25.5668C108.19 25.5668 107.88 25.5104 107.597 25.3975C98.51 21.8698 89.225 19.9224 82.0566 19.9789H82.0284C80.7301 19.9789 79.6577 18.9347 79.6577 17.6365C79.6577 16.31 80.7019 15.2376 82.0001 15.2376C89.7612 15.1529 99.6953 17.2413 109.319 20.9949C110.533 21.4746 111.153 22.8575 110.674 24.0711C110.307 25.0024 109.404 25.5951 108.444 25.5951L108.472 25.5668Z" fill="#BEBAB7"/>
<path d="M55.6125 23.1681C63.4583 20.1201 73.4489 17.4672 82.0284 17.5801Z" fill="#D4D4D3"/>
<path d="M55.6125 25.5669C54.6529 25.5669 53.7499 24.9742 53.383 24.0429C52.9032 22.8293 53.5241 21.4464 54.7376 20.9667C64.3613 17.2131 74.3238 15.1529 82.0566 15.2094C83.383 15.2094 84.4272 16.31 84.399 17.6082C84.399 18.9065 83.3265 19.9507 82.0283 19.9507C81.8872 19.9507 81.7179 19.9507 81.5485 19.9507C74.4648 19.9507 65.3491 21.9262 56.4592 25.3693C56.177 25.4822 55.8947 25.5386 55.6125 25.5386V25.5669Z" fill="#BEBAB7"/>
<path d="M160.796 108.455C160.034 103.545 158.736 98.6904 156.675 94.1749C155.659 91.9453 154.446 89.8005 153.063 87.7685C151.991 86.2445 150.128 84.3536 149.987 82.3781C149.281 71.8513 146.826 61.4091 141.859 52.2087" fill="#D4D4D3"/>
<path d="M160.796 110.826C159.639 110.826 158.623 109.979 158.453 108.794C157.691 103.798 156.365 99.1983 154.531 95.1625C153.543 92.9894 152.386 90.9575 151.116 89.123C150.89 88.8126 150.636 88.4739 150.354 88.107C149.197 86.6113 147.757 84.7768 147.616 82.5473C146.854 71.4278 144.23 61.6066 139.77 53.3657C139.15 52.2086 139.573 50.7693 140.73 50.1484C141.887 49.5275 143.327 49.9509 143.947 51.108C148.717 59.9697 151.539 70.44 152.357 82.2368C152.414 83.0271 153.345 84.2124 154.107 85.2002C154.446 85.6235 154.756 86.0468 155.039 86.4137C156.478 88.4739 157.776 90.7599 158.877 93.187C160.909 97.6461 162.348 102.641 163.195 108.088C163.392 109.386 162.489 110.6 161.191 110.798C161.078 110.798 160.937 110.798 160.824 110.798L160.796 110.826Z" fill="#BEBAB7"/>
<path d="M86.7978 111.672C86.7978 110.318 84.653 109.217 82.0283 109.217C79.4037 109.217 77.2588 110.318 77.2588 111.672C77.2588 113.027 79.4037 114.128 82.0283 114.128C84.653 114.128 86.7978 113.027 86.7978 111.672Z" fill="#3F3B3A"/>
<path d="M68.8203 103.262C68.8203 99.9602 66.1392 97.3074 62.8654 97.3074C59.5917 97.3074 56.9106 99.9885 56.9106 103.262C56.9106 106.536 59.5917 109.217 62.8654 109.217C66.1392 109.217 68.8203 106.536 68.8203 103.262Z" fill="#3F3B3A"/>
<path d="M95.2361 103.262C95.2361 99.9602 97.9172 97.3074 101.191 97.3074C104.465 97.3074 107.146 99.9885 107.146 103.262C107.146 106.536 104.493 109.217 101.191 109.217C97.889 109.217 95.2361 106.536 95.2361 103.262Z" fill="#3F3B3A"/>
<path d="M71.1345 18.7091C71.1345 18.7091 90.5795 17.1286 92.9502 2.82007C92.9502 2.82007 101.163 16.7335 89.5071 23.8737" fill="#D4D4D3"/>
<path d="M89.5071 26.2725C88.7169 26.2725 87.9267 25.8774 87.4751 25.1436C86.7696 24.0147 87.1365 22.5472 88.2653 21.8699C93.6275 18.5679 93.8533 13.4597 93.0066 9.56506C86.9107 19.6968 72.0659 21.0514 71.3321 21.1079C70.0339 21.2208 68.8768 20.233 68.7639 18.9348C68.651 17.6366 69.6389 16.4795 70.9371 16.3666C71.2193 16.3666 88.5476 14.7015 90.5796 2.48133C90.7489 1.49356 91.5109 0.703342 92.4986 0.53401C93.4864 0.364678 94.4742 0.816229 94.9822 1.66289C98.2277 7.16618 101.53 19.3299 90.7489 25.962C90.3538 26.216 89.9304 26.3007 89.5071 26.3007V26.2725Z" fill="#BEBAB7"/>
<path d="M65.9699 95.3599C65.9699 95.3599 65.7723 95.3599 65.6594 95.3599L56.2615 94.1746C54.9633 94.0053 54.0319 92.82 54.2013 91.5217C54.3706 90.2235 55.5559 89.2922 56.8542 89.4615L66.2521 90.6469C67.5503 90.8162 68.4816 92.0015 68.3123 93.3279C68.1712 94.5415 67.127 95.4164 65.9416 95.4164L65.9699 95.3599Z" fill="#BEBAB7"/>
<path d="M98.0866 95.36C96.9012 95.36 95.8853 94.4851 95.7159 93.2716C95.5466 91.9733 96.4779 90.7598 97.7761 90.5905L107.174 89.4051C108.472 89.2358 109.686 90.1671 109.827 91.4653C109.996 92.7636 109.065 93.9489 107.767 94.1182L98.3688 95.3035C98.3688 95.3035 98.1712 95.3035 98.0583 95.3035L98.0866 95.36Z" fill="#BEBAB7"/>
</svg>
