<svg width="164" height="152" viewBox="0 0 164 152" fill="none" xmlns="http://www.w3.org/2000/svg">
<path d="M104.578 17.8962L111.379 5.36559C111.379 5.36559 113.75 -0.589253 120.721 5.36559C120.721 5.36559 144.145 21.0853 137.795 41.9131" fill="#C2A282"/>
<path d="M137.795 44.2837C137.569 44.2837 137.343 44.2554 137.089 44.1708C135.819 43.7757 135.114 42.4492 135.509 41.2075C141.266 22.2705 119.62 7.45394 119.394 7.31283C119.31 7.25638 119.253 7.19993 119.168 7.14349C117.39 5.6195 115.81 4.85751 114.822 5.11151C114.032 5.30906 113.609 6.21216 113.609 6.21216C113.581 6.29683 113.524 6.3815 113.496 6.46616L106.694 18.9967C106.073 20.1538 104.606 20.5772 103.449 19.9563C102.292 19.3354 101.868 17.8679 102.489 16.7108L109.234 4.26485C109.545 3.5593 110.843 1.16043 113.693 0.454876C116.262 -0.166008 119.112 0.82176 122.188 3.41819C124.277 4.82929 146.713 20.8594 140.081 42.5621C139.771 43.5781 138.839 44.2554 137.795 44.2554V44.2837Z" fill="#947054"/>
<path d="M56.8544 19.5048L50.0529 6.97423C50.0529 6.97423 47.6822 1.01939 40.7114 6.97423C40.7114 6.97423 17.2872 22.6939 23.6371 43.5217" fill="#C2A282"/>
<path d="M23.6371 45.8924C22.6211 45.8924 21.6615 45.215 21.3511 44.1991C14.7471 22.4681 37.1836 6.46622 39.2438 5.05512C42.2918 2.45869 45.1422 1.47093 47.7387 2.12003C50.5891 2.82558 51.859 5.22445 52.1695 5.93L58.9428 18.3759C59.5637 19.533 59.1404 20.9723 57.9833 21.5932C56.8262 22.2141 55.3868 21.7908 54.7659 20.6337L47.9644 8.1031C47.9644 8.1031 47.8797 7.93376 47.8515 7.8491C47.8515 7.8491 47.4282 6.91777 46.6098 6.74844C45.622 6.52266 44.0697 7.25644 42.2918 8.78043C42.2071 8.83687 42.1507 8.89331 42.066 8.94976C41.8402 9.09087 20.194 23.9356 25.9513 42.8444C26.3182 44.1144 25.6126 45.4408 24.3709 45.8077C24.1451 45.8641 23.9193 45.9206 23.6653 45.9206L23.6371 45.8924Z" fill="#947054"/>
<path d="M160.796 104.622C160.062 99.7118 158.736 94.8576 156.675 90.3421C155.659 88.1125 154.446 85.9394 153.035 83.9357C151.991 82.4117 150.1 80.5208 149.959 78.5735C149.225 68.0467 146.798 57.6045 141.831 48.4042C140.166 45.328 138.247 42.3929 136.017 39.6553C131.614 34.2367 126.421 29.4954 120.608 25.6572C116.798 23.1173 112.706 21.0006 108.416 19.3355C100.288 16.1746 89.8739 13.4653 81.0969 13.7758C71.9247 14.0862 62.7244 16.5133 54.2013 20.1539C51.5485 21.2828 48.9521 22.5246 46.4685 23.851C38.5946 28.0279 31.5391 34.3778 26.2334 41.772C24.0321 44.8482 22.113 48.0937 20.5607 51.4239C16.6661 59.8341 14.6341 69.3731 14.0132 78.6017C13.9003 80.4079 12.1506 82.2706 11.1346 83.6817C9.89284 85.4032 8.73576 87.1248 7.80443 89.0439C5.43379 93.9263 3.96617 99.3167 3.14774 104.679C0.579534 121.471 9.38483 134.905 24.8787 141.142C42.0941 148.056 63.5711 149.383 81.9436 149.383C100.316 149.383 121.793 148.084 139.008 141.142C154.502 134.905 163.308 121.471 160.739 104.679L160.796 104.622Z" fill="#C2A282"/>
<path d="M24.935 142.412C42.1504 148.197 63.6274 149.298 81.9999 149.298C100.372 149.298 121.849 148.197 139.065 142.412C154.559 137.191 163.364 125.958 160.796 111.904C160.118 108.235 162.15 108.574 160.429 105.13C137.456 102.167 108.811 96.5227 81.9999 96.5227C55.189 96.5227 26.4591 102.167 3.45812 105.159C1.79303 108.602 3.85324 108.263 3.20414 111.904C0.635933 125.958 9.44115 137.191 24.935 142.412Z" fill="#A98668"/>
<path d="M82 151.697C66.0828 151.697 42.7715 150.822 24.0321 143.287C7.0989 136.485 -1.79103 121.527 0.833613 104.256C1.76494 98.1031 3.40182 92.628 5.6878 87.9432C6.78846 85.6572 8.17134 83.6817 9.21555 82.2141C9.41311 81.9319 9.63885 81.6497 9.89285 81.3392C10.5702 80.4644 11.5862 79.1379 11.6426 78.3759C12.3482 68.0749 14.6906 58.3665 18.4159 50.3515C20.0245 46.8802 22 43.4935 24.3143 40.3044C25.0762 39.232 26.5721 39.0062 27.6445 39.7682C28.717 40.5302 28.9426 42.026 28.1807 43.0984C26.064 46.0617 24.2014 49.1661 22.7338 52.3835C19.2343 59.8623 17.0612 68.978 16.3839 78.7146C16.2428 80.9159 14.8034 82.7786 13.6463 84.2743C13.4488 84.5566 13.2513 84.8106 13.0537 85.0363C11.6426 86.9836 10.683 88.5076 9.94927 90.0316C7.86084 94.2931 6.39327 99.3167 5.51839 104.961C3.20419 120.145 10.796 132.816 25.7819 138.856C43.731 146.081 66.4498 146.927 81.9719 146.927C97.494 146.927 120.184 146.081 138.162 138.856C153.148 132.816 160.739 120.145 158.425 104.961C157.663 99.9658 156.337 95.3656 154.502 91.3016C153.515 89.1285 152.358 87.0965 151.088 85.2621C150.862 84.9234 150.58 84.5848 150.326 84.2461C149.168 82.7786 147.757 80.9159 147.588 78.7146C146.826 67.5669 144.173 57.7456 139.742 49.5048C138.134 46.4851 136.243 43.6911 134.154 41.1229C133.308 40.1069 133.477 38.6111 134.493 37.7644C135.509 36.946 137.005 37.0871 137.851 38.1031C140.137 40.8971 142.169 43.9733 143.919 47.247C148.689 56.1088 151.511 66.5791 152.329 78.4041C152.386 79.1661 153.374 80.4361 154.079 81.3675C154.418 81.7908 154.728 82.2141 155.01 82.6092C156.45 84.6694 157.748 86.9554 158.849 89.3825C160.881 93.8416 162.348 98.8651 163.167 104.284C165.791 121.556 156.901 136.513 139.968 143.315C121.257 150.85 97.9172 151.725 82 151.725V151.697Z" fill="#947054"/>
<path d="M108.444 19.3072C100.316 16.1463 89.9023 13.437 81.1253 13.7474C71.9531 14.0579 62.7528 16.485 54.2297 20.1256" fill="#C2A282"/>
<path d="M54.2296 22.468C53.2983 22.468 52.4234 21.9318 52.0283 21.0287C51.5203 19.8152 52.0848 18.4041 53.2983 17.8961C62.8374 13.8321 72.1788 11.6308 81.0405 11.3486C92.2447 10.9534 104.549 15.2432 109.291 17.0776C110.504 17.5574 111.125 18.9403 110.645 20.1538C110.166 21.3956 108.783 21.9882 107.569 21.5085C98.0866 17.8114 88.4629 15.8358 81.2099 16.0898C72.9126 16.3721 64.1638 18.4605 55.161 22.2705C54.8506 22.4116 54.5401 22.468 54.2296 22.468Z" fill="#947054"/>
<path d="M50.0527 87.943C50.0527 83.8226 43.8156 80.4924 36.1393 80.4924C28.4629 80.4924 22.2258 83.8226 22.2258 87.943C22.2258 92.0635 28.4629 95.3937 36.1393 95.3937C43.8156 95.3937 50.0527 92.0635 50.0527 87.943Z" fill="#A98668"/>
<path d="M113.947 87.943C113.947 83.8226 120.184 80.4924 127.861 80.4924C135.537 80.4924 141.774 83.8226 141.774 87.943C141.774 92.0635 135.537 95.3937 127.861 95.3937C120.184 95.3937 113.947 92.0635 113.947 87.943Z" fill="#A98668"/>
<path d="M77.4846 105.441C78.8393 105.441 79.94 104.001 79.94 102.252C79.94 100.502 78.8393 99.0625 77.4846 99.0625C76.1299 99.0625 75.0293 100.502 75.0293 102.252C75.0293 104.001 76.1299 105.441 77.4846 105.441Z" fill="#3F3B3A"/>
<path d="M86.5156 105.441C87.8703 105.441 88.9709 104.001 88.9709 102.252C88.9709 100.502 87.8703 99.0625 86.5156 99.0625C85.1609 99.0625 84.0603 100.502 84.0603 102.252C84.0603 104.001 85.1609 105.441 86.5156 105.441Z" fill="#3F3B3A"/>
<path d="M70.4008 86.4755C70.4008 89.7775 67.7197 92.4586 64.4177 92.4586C61.1157 92.4586 58.4346 89.7775 58.4346 86.4755C58.4346 83.1735 61.1157 80.4924 64.4177 80.4924C67.7197 80.4924 70.4008 83.1735 70.4008 86.4755Z" fill="#3F3B3A"/>
<path d="M105.707 86.4755C105.707 89.7775 103.026 92.4586 99.7235 92.4586C96.4216 92.4586 93.7405 89.7775 93.7405 86.4755C93.7405 83.1735 96.4216 80.4924 99.7235 80.4924C103.026 80.4924 105.707 83.1735 105.707 86.4755Z" fill="#3F3B3A"/>
<path d="M85.2173 13.4371C85.048 18.5735 82.1411 24.5001 77.174 26.9555C74.7187 28.2819 64.7281 29.947 62.4985 27.6328C65.2925 23.4277 67.6914 19.2791 66.7037 13.9169C65.857 9.26027 71.8118 8.24427 75.0291 7.82094C79.4882 7.22828 84.7093 6.55095 89.1401 7.5105C91.539 8.0185 94.1355 9.90937 94.1355 12.7034C94.1355 20.8595 93.5145 23.2302 86.7412 25.7419C85.443 26.2217 80.6453 26.8426 79.3753 25.5444" fill="#947054"/>
<path d="M67.3528 31.1323C64.6435 31.1323 62.1318 30.6525 60.8054 29.2414C60.0152 28.4512 59.9023 27.2095 60.5232 26.2781C63.2042 22.2142 65.208 18.7711 64.3896 14.312C64.0509 12.5058 64.3895 10.8407 65.4055 9.45781C67.381 6.7485 71.2475 5.87362 74.747 5.42206C78.9521 4.85762 84.7094 4.09563 89.6764 5.13984C93.0066 5.84539 96.5626 8.49826 96.5626 12.6469C96.5626 21.1417 95.7442 24.8952 87.6163 27.915C86.939 28.169 82.6492 29.185 79.6577 28.2537C79.2061 28.5359 78.7546 28.8181 78.2466 29.0439C76.8355 29.8059 71.8119 31.1041 67.3528 31.1041V31.1323ZM66.1111 26.3628C69.0744 26.5321 74.3237 25.7701 76.0734 24.8388C80.3632 22.7222 82.7057 17.4729 82.8468 13.3524C82.9032 12.026 83.9756 11.01 85.3021 11.0665C86.6285 11.1229 87.6445 12.2236 87.588 13.5218C87.4752 16.7391 86.3463 20.6055 84.145 23.8228C84.8787 23.7382 85.5842 23.6253 85.9511 23.4842C91.2569 21.5368 91.7931 20.5208 91.7931 12.6751C91.7931 11.264 90.1845 10.1351 88.6605 9.8247C84.5119 8.94981 79.2343 9.65537 75.3679 10.1634C72.0094 10.6149 69.9493 11.3205 69.2437 12.28C69.0744 12.5058 68.9333 12.8162 69.0462 13.4653C69.9775 18.5171 68.3689 22.5246 66.0829 26.3628H66.1111Z" fill="#87634C"/>
</svg>
