<svg width="164" height="142" viewBox="0 0 164 142" fill="none" xmlns="http://www.w3.org/2000/svg">
<path d="M159.766 112.783C161.205 107.985 161.6 102.707 160.754 97.0066C159.568 88.9633 157.113 81.428 152.428 74.8241C151.497 73.5259 150.029 71.8043 149.916 70.111C148.957 55.6331 144.949 41.3245 135.975 29.9511C128.665 20.6943 119.211 13.3283 108.402 8.98212C100.302 5.73659 89.8882 2.91439 81.1111 3.22483C69.0886 3.64816 57.0377 7.85324 46.5109 13.6105C35.3632 19.7065 25.9089 30.318 20.6032 42.0865C16.7085 50.7507 14.6765 60.6002 14.0556 70.111C13.9427 71.6914 12.6444 73.2436 11.826 74.4572C10.81 75.9247 9.76584 77.3641 8.89095 78.9445C5.95587 84.4478 4.14966 90.826 3.24655 97.0066C2.39989 102.679 2.79493 107.985 4.23426 112.754C26.1628 108.408 52.9738 105.812 81.986 105.812C110.998 105.812 137.837 108.38 159.738 112.754L159.766 112.783Z" fill="#A0C649"/>
<path d="M24.9775 130.873C42.1647 137.505 63.6415 138.747 82.014 138.747C100.387 138.747 121.864 137.505 139.051 130.873C149.465 126.866 156.831 119.697 159.766 110.581C137.837 106.518 110.998 104.119 82.014 104.119C53.03 104.119 26.1909 106.518 4.26245 110.553C7.19754 119.697 14.5636 126.837 24.9775 130.845V130.873Z" fill="#FAE4CF"/>
<path d="M77.0752 26.3668C77.555 30.9388 79.6998 29.2737 77.0752 32.6321C78.825 34.7206 87.3198 33.9586 89.4647 32.999C93.7827 31.2493 96.6049 26.4515 97.0847 22.1335" fill="#A0C649"/>
<path d="M82.6351 36.3575C79.6435 36.3575 76.652 35.8213 75.2409 34.1279C74.5354 33.2813 74.5071 32.0395 75.1844 31.1364C75.4384 30.7978 75.636 30.5438 75.7771 30.3744C75.3538 29.556 74.9022 28.4553 74.7047 26.5927C74.5636 25.2945 75.5231 24.1091 76.8213 23.968C78.1196 23.8269 79.3049 24.7865 79.446 26.0847C79.5871 27.4393 79.8693 27.9473 80.1233 28.3989C80.8006 29.6124 80.8571 30.572 80.5467 31.5033C82.9455 31.7573 87.0942 31.4186 88.5053 30.7978C92.1177 29.3302 94.3471 25.2098 94.714 21.8514C94.8551 20.5532 96.0124 19.5936 97.3388 19.7347C98.637 19.8758 99.5966 21.0612 99.4554 22.3594C98.9474 26.9596 95.8711 32.9426 90.3396 35.1722C89.239 35.6519 85.9088 36.3293 82.6068 36.3293L82.6351 36.3575Z" fill="#83AD35"/>
<path d="M82.0141 141.146C66.1251 141.146 42.7856 140.271 24.0744 132.764C7.14122 125.962 -1.7488 111.005 0.875846 93.7611C1.92006 86.9032 3.98037 80.5532 6.80257 75.445C7.59279 74.0339 8.49581 72.7639 9.3707 71.5504L10.3021 70.2522C10.8383 69.5466 11.6284 68.4742 11.6567 67.8815C12.3622 57.5805 14.7047 47.8721 18.43 39.8571C24.0744 27.7216 33.8956 17.2795 45.382 11.1835C57.4046 4.80533 69.7376 1.24936 81.0264 0.854248C81.478 0.854248 81.9577 0.854248 82.4375 0.854248C90.0857 0.854248 99.8505 2.94267 109.277 6.61154C120.227 10.8731 130.104 18.1543 137.837 27.6369C146.332 38.0791 151.186 51.6256 152.315 67.9098C152.372 68.5871 153.275 69.8006 153.896 70.6191L154.375 71.2399C158.891 77.3923 161.741 84.7583 163.124 93.7611C165.749 111.005 156.859 125.962 139.954 132.764C121.243 140.299 97.9313 141.146 82.0141 141.146ZM82.494 5.62377C82.0707 5.62377 81.6473 5.62377 81.2522 5.62377C70.669 5.99066 59.0697 9.34907 47.668 15.4168C37.2541 20.9483 27.969 30.826 22.8044 41.8891C19.3331 49.3679 17.1318 58.4836 16.4827 68.2202C16.3416 70.1957 15.0998 71.8891 14.1967 73.1026L13.2936 74.3444C12.4752 75.5015 11.6568 76.6021 11.0359 77.7592C8.46767 82.3876 6.60492 88.1449 5.64537 94.4667C3.33117 109.65 10.8948 122.294 25.9089 128.333C43.8581 135.558 66.5485 136.376 82.0706 136.376C97.5927 136.376 120.283 135.53 138.232 128.333C153.218 122.294 160.782 109.65 158.496 94.4667C157.254 86.2541 154.658 79.5654 150.622 74.0339L150.199 73.4695C149.183 72.1431 147.8 70.3086 147.659 68.2202C146.614 52.9521 142.099 40.3086 134.253 30.6567C127.056 21.795 117.856 15.0217 107.668 11.0706C98.8063 7.62753 89.6623 5.65199 82.5786 5.65199L82.494 5.62377Z" fill="#83AD35"/>
<path d="M50.9418 96.0753C50.9418 91.6444 44.225 88.032 35.9277 88.032C27.6304 88.032 20.9136 91.6444 20.9136 96.0753C20.9136 100.506 27.6304 104.119 35.9277 104.119C44.225 104.119 50.9418 100.506 50.9418 96.0753Z" fill="#F5B2B2"/>
<path d="M113.086 96.0753C113.086 91.6444 119.803 88.032 128.101 88.032C136.398 88.032 143.115 91.6444 143.115 96.0753C143.115 100.506 136.398 104.119 128.101 104.119C119.803 104.119 113.086 100.506 113.086 96.0753Z" fill="#F5B2B2"/>
<path d="M68.8061 88.907C68.8061 92.209 66.125 94.8618 62.8513 94.8618C59.5775 94.8618 56.8965 92.1807 56.8965 88.907C56.8965 85.6332 59.5775 82.9521 62.8513 82.9521C66.125 82.9521 68.8061 85.605 68.8061 88.907Z" fill="#3F3B3A"/>
<path d="M107.132 88.907C107.132 92.209 104.451 94.8618 101.177 94.8618C97.9032 94.8618 95.2222 92.1807 95.2222 88.907C95.2222 85.6332 97.875 82.9521 101.177 82.9521C104.479 82.9521 107.132 85.605 107.132 88.907Z" fill="#3F3B3A"/>
<path d="M93.2184 118.484C93.1901 117.976 93.1337 117.411 92.9925 116.931C92.4845 115.266 91.4121 113.855 90.1421 112.698C89.3801 112.021 88.5054 111.485 87.828 110.694C87.1507 109.904 87.0095 108.86 86.8684 107.844C86.812 107.308 86.7554 106.743 86.7837 106.207L79.7282 105.586C79.5871 105.586 79.8412 108.634 79.8694 108.775C80.1516 110.638 80.6595 112.557 81.8731 114.025C82.6915 114.984 83.6793 115.774 84.7518 116.452C85.796 117.129 86.4168 118.512 86.3039 119.725C87.0377 119.02 87.7433 118.314 88.4771 117.609C89.5213 116.621 90.5372 117.439 91.5814 117.891C92.0894 118.117 92.6821 118.286 93.2184 118.455V118.484Z" fill="#F5B2B2"/>
<path d="M86.3039 121.362C86.0781 121.362 85.8241 121.306 85.5984 121.193C85.0057 120.911 84.6388 120.262 84.6952 119.612C84.7517 118.963 84.4131 118.173 83.8769 117.834C82.4658 116.931 81.4497 116.057 80.6313 115.097C79.0226 113.15 78.5147 110.723 78.2607 109.057C77.7527 105.473 78.2606 104.824 78.4864 104.598C78.7968 104.26 79.2485 104.034 79.7001 104.034L86.9249 104.683C87.7998 104.768 88.4205 105.53 88.3641 106.376C88.3359 106.828 88.3641 107.308 88.4206 107.703C88.5052 108.521 88.6464 109.255 89.0133 109.707C89.3237 110.045 89.7188 110.384 90.1703 110.723C90.5372 111.005 90.8759 111.259 91.2145 111.569C92.8796 113.121 94.0086 114.787 94.5166 116.536C94.686 117.129 94.7423 117.722 94.7988 118.258C94.827 118.794 94.6294 119.358 94.206 119.697C93.7827 120.036 93.2466 120.205 92.7386 120.036C92.146 119.866 91.5251 119.641 90.9606 119.415C90.7631 119.33 90.5372 119.217 90.3396 119.133C90.0856 119.02 89.6906 118.822 89.5495 118.794C89.098 119.302 88.5899 119.754 88.1102 120.233L87.4046 120.911C87.0942 121.193 86.699 121.362 86.3039 121.362ZM81.3368 107.364C81.365 107.929 81.4216 108.437 81.4498 108.634C81.732 110.638 82.2682 112.049 83.1148 113.065C83.7075 113.771 84.4977 114.448 85.6266 115.153C86.2475 115.549 86.7554 116.113 87.1505 116.762C87.2352 116.677 87.32 116.621 87.4046 116.536C88.3642 115.633 89.7188 115.492 90.7348 115.859C90.3115 115.21 89.7752 114.561 89.0696 113.94C88.8156 113.714 88.5335 113.488 88.2512 113.263C87.715 112.867 87.1223 112.416 86.6143 111.795C85.6548 110.666 85.4291 109.311 85.288 108.098C85.288 107.985 85.2597 107.872 85.2597 107.731L81.3651 107.392L81.3368 107.364Z" fill="#F5B2B2"/>
<path d="M73.8298 107.985C65.8994 107.985 59.0697 104.993 58.6746 104.824C57.4893 104.288 56.9248 102.877 57.4611 101.663C57.9973 100.45 59.4084 99.9135 60.6219 100.45C60.7348 100.506 72.0235 105.417 81.1674 101.974C82.4092 101.522 83.7639 102.143 84.2437 103.357C84.6953 104.598 84.0744 105.953 82.8608 106.433C79.8975 107.562 76.7931 107.957 73.858 107.957L73.8298 107.985Z" fill="#3F3B3A"/>
<path d="M90.1702 107.985C87.2351 107.985 84.1307 107.562 81.1674 106.461C79.9256 106.01 79.3048 104.627 79.7845 103.385C80.2643 102.143 81.619 101.522 82.8608 102.002C92.0612 105.473 103.293 100.506 103.406 100.478C104.62 99.9418 106.003 100.478 106.567 101.692C107.103 102.905 106.567 104.316 105.354 104.852C104.959 105.022 98.1288 108.013 90.1985 108.013L90.1702 107.985Z" fill="#3F3B3A"/>
<path d="M67.4514 22.2466C68.0441 27.6652 65.3066 31.6163 62.2021 35.5956C64.2624 38.0791 74.3375 37.176 76.9057 36.0471C82.0139 33.9869 85.3723 28.2861 85.9368 23.1779" fill="#A0C649"/>
<path d="M68.7498 39.5467C65.3349 39.5467 61.92 38.9541 60.3678 37.0914C59.6622 36.2448 59.6341 35.003 60.3115 34.0999C63.303 30.2617 65.5325 26.9597 65.0527 22.4724C64.9116 21.1742 65.8712 19.9889 67.1694 19.8478C68.4958 19.7067 69.6529 20.6662 69.794 21.9644C70.3302 27.0726 68.4393 30.9672 65.8711 34.6079C68.8062 34.9748 74.1119 34.6079 75.9181 33.8177C80.349 32.0397 83.0866 26.9597 83.5381 22.8675C83.6792 21.5693 84.8927 20.6098 86.1627 20.7509C87.4609 20.892 88.4205 22.0773 88.2794 23.3755C87.6867 28.7095 84.1308 35.6239 77.7526 38.1921C76.5109 38.7565 72.588 39.4903 68.7216 39.4903L68.7498 39.5467Z" fill="#83AD35"/>
</svg>
