<svg width="164" height="156" viewBox="0 0 164 156" fill="none" xmlns="http://www.w3.org/2000/svg">
<path d="M147.588 71.269C151.765 66.2455 154.728 59.698 152.781 55.38C151.059 51.5418 145.5 49.4252 139.686 48.8043C142.677 41.7488 143.778 32.5202 139.714 28.4844C135.848 24.6463 127.296 25.4929 120.382 28.2022C121.257 20.1025 119.564 10.4224 114.23 7.54371C106.666 3.45152 91.6519 12.9906 87.5598 20.5541C83.4676 28.1176 91.8495 30.8833 99.413 34.9473C103.646 37.2333 107.682 39.9708 111.125 40.5917C112.734 43.3575 116.064 46.095 119.112 49.143C120.721 50.7516 122.245 52.4167 123.74 53.9125C122.978 57.2709 125.716 61.7582 127.833 66.4995C129.413 70.0555 130.683 73.7526 132.489 76.095C132.546 78.381 132.941 81.0056 133.167 83.6303C133.759 90.5447 133.11 97.6284 140.025 97.0357C146.939 96.4431 158.792 88.3716 158.2 81.4572C157.833 77.2803 152.922 73.4986 147.56 71.269H147.588Z" fill="#83AD35"/>
<path d="M139.262 99.4629C131.812 99.4629 131.36 92.3227 131.022 86.5937C130.965 85.6906 130.909 84.7592 130.824 83.8561C130.739 82.953 130.655 82.0217 130.542 81.1468C130.372 79.6793 130.231 78.2964 130.175 76.9418C128.905 75.0509 127.917 72.7085 126.873 70.2249C126.506 69.3218 126.111 68.4187 125.716 67.5156C125.321 66.5843 124.869 65.6812 124.446 64.8063C122.781 61.2785 121.172 57.9201 121.313 54.8157C120.777 54.2795 120.269 53.7433 119.733 53.1788C118.999 52.4168 118.265 51.6548 117.503 50.8928C116.741 50.1308 115.979 49.4253 115.245 48.6915C113.129 46.6878 111.125 44.7687 109.742 42.7367C107.061 42.0029 104.267 40.4225 101.36 38.7574C100.401 38.1929 99.3847 37.6285 98.3969 37.0923C97.3809 36.5561 96.3649 36.0198 95.3489 35.5118C90.4665 33.0283 85.838 30.6859 84.5398 26.509C83.8625 24.3359 84.2013 21.9653 85.5559 19.4535C89.2812 12.5391 101.022 4.21362 110.024 4.21362C112.056 4.21362 113.891 4.63696 115.443 5.48362C121.031 8.50337 123.204 16.8571 123.063 24.8439C126.054 23.9973 129.018 23.5457 131.699 23.5457C135.932 23.5457 139.291 24.7028 141.464 26.8477C145.838 31.1939 145.471 39.604 143.016 46.9135C147.165 47.732 152.894 49.7075 155.01 54.4206C157.155 59.2183 154.756 65.4272 151.313 70.366C156.873 73.3011 160.288 77.224 160.655 81.2597C161.106 86.6219 156.365 91.2221 153.486 93.5081C149.281 96.81 144.229 99.096 140.307 99.4347C139.968 99.4629 139.629 99.4911 139.319 99.4911L139.262 99.4629ZM109.968 8.95492C102.884 8.95492 92.7242 16.0669 89.7045 21.6831C88.632 23.6868 88.9425 24.731 89.0554 25.0415C89.761 27.2992 93.6838 29.303 97.4938 31.2221C98.538 31.7583 99.5822 32.2945 100.626 32.859C101.671 33.4234 102.687 34.0161 103.703 34.5805C106.638 36.2738 109.432 37.8543 111.633 38.2494L112.705 38.4469L113.27 39.4065C114.286 41.1845 116.346 43.1318 118.519 45.192C119.309 45.9258 120.1 46.6878 120.862 47.478C121.652 48.2682 122.414 49.0584 123.176 49.8486C123.966 50.6671 124.728 51.4855 125.49 52.2193L126.421 53.1506L126.139 54.4488C125.716 56.3397 127.268 59.5852 128.764 62.7179C129.215 63.6492 129.667 64.5805 130.09 65.5401C130.513 66.4714 130.909 67.4309 131.304 68.3623C132.348 70.8458 133.307 73.1882 134.465 74.6558L134.944 75.2767V76.0669C134.973 77.4215 135.142 78.9737 135.339 80.5824C135.452 81.5137 135.537 82.4733 135.622 83.4046C135.706 84.3641 135.763 85.3237 135.819 86.255C136.271 93.7056 137.033 94.8627 139.912 94.637C142.847 94.383 147.136 92.4074 150.551 89.7263C154.051 86.9606 156.111 83.8844 155.913 81.6548C155.688 78.9455 151.99 75.6435 146.741 73.4422L143.75 72.2005L145.81 69.7169C149.958 64.7216 151.962 59.2183 150.664 56.3115C149.535 53.7715 145.133 51.7395 139.488 51.1468L136.271 50.8082L137.541 47.8449C140.645 40.5354 140.871 32.9436 138.105 30.1497C136.525 28.5692 133.759 28.2306 131.699 28.2306C128.594 28.2306 124.813 29.0208 121.341 30.3754L117.673 31.8148L118.096 27.8919C119.027 19.4535 116.911 11.6078 113.185 9.60403C112.339 9.15248 111.266 8.89848 110.024 8.89848L109.968 8.95492Z" fill="#689932"/>
<path d="M160.767 111.655C159.582 103.612 157.127 96.0763 152.442 89.5006C151.511 88.2024 150.043 86.4808 149.93 84.7875C148.971 70.3096 144.963 56.0011 135.989 44.6276C128.679 35.3708 119.225 28.0048 108.416 23.6586C100.288 20.4131 89.8739 17.5909 81.1251 17.9013C69.1025 18.3247 57.0517 22.5015 46.5249 28.287C35.3772 34.383 25.9228 44.9945 20.6171 56.7348C16.7224 65.399 14.6904 75.2485 14.0696 84.7593C13.9567 86.3397 12.6585 87.8919 11.8118 89.1055C10.7958 90.573 9.75152 92.0123 8.87663 93.5928C5.94155 99.0679 4.13534 105.474 3.23223 111.655C2.38557 117.327 2.80901 122.633 4.22011 127.403C4.4741 127.346 4.72799 127.318 4.98198 127.262C8.31218 135.418 15.3113 141.796 24.935 145.493C42.1222 152.125 63.5992 153.367 81.9717 153.367C100.344 153.367 121.821 152.125 139.008 145.493C148.632 141.796 155.631 135.418 158.961 127.262C159.215 127.318 159.469 127.346 159.723 127.403C161.163 122.605 161.558 117.327 160.711 111.627L160.767 111.655Z" fill="#A0C649"/>
<path d="M102.545 116.396C102.545 116.396 99.8079 111.119 81.9998 111.119C64.1917 111.119 61.4541 116.396 61.4541 116.396" fill="#A0C649"/>
<path d="M61.4541 118.767C61.0872 118.767 60.7205 118.682 60.3536 118.513C59.1965 117.92 58.7166 116.481 59.3375 115.295C59.9019 114.195 63.6555 108.72 81.9998 108.72C100.344 108.72 104.098 114.195 104.662 115.295C105.255 116.453 104.803 117.892 103.646 118.513C102.517 119.105 101.134 118.682 100.485 117.61C100.288 117.356 97.0139 113.489 81.9998 113.489C66.9857 113.489 63.599 117.44 63.5708 117.497C63.1474 118.315 62.3008 118.795 61.4541 118.795V118.767Z" fill="#83AD35"/>
<path d="M81.9999 155.766C66.0827 155.766 42.7713 154.891 24.0601 147.384C7.12689 140.582 -1.76295 125.625 0.861693 108.381C1.90591 101.523 3.96604 95.2014 6.78824 90.065C7.57846 88.6539 8.48166 87.3839 9.35654 86.1704L10.2877 84.9004C10.824 84.1948 11.6143 83.1224 11.6708 82.5297C12.3763 72.2287 14.7186 62.5203 18.4439 54.5053C24.0883 42.3698 33.9096 31.9277 45.3959 25.8317C57.4185 19.4535 69.7515 15.8693 81.0403 15.5024C81.5201 15.5024 81.9716 15.5024 82.4514 15.5024C90.0996 15.5024 99.8926 17.5909 109.291 21.2597C120.241 25.5213 130.118 32.8025 137.851 42.2851C146.346 52.7273 151.2 66.2738 152.329 82.5579C152.386 83.2353 153.289 84.4488 153.91 85.2673L154.389 85.8881C158.905 92.0405 161.784 99.4065 163.138 108.409C165.763 125.653 156.873 140.611 139.94 147.412C121.228 154.947 97.9172 155.794 81.9999 155.794V155.766ZM82.4514 20.2437C82.0281 20.2437 81.633 20.2437 81.2096 20.2437C70.6546 20.6106 59.0273 23.9973 47.6256 30.0368C37.2117 35.5683 27.9266 45.446 22.762 56.509C19.2907 63.9879 17.0894 73.1036 16.412 82.8402C16.2709 84.8157 15.0292 86.509 14.1261 87.7508L13.2229 88.9926C12.3763 90.1497 11.5861 91.2503 10.937 92.4074C8.36877 97.0358 6.50602 102.793 5.54647 109.115C3.23227 124.298 10.824 136.942 25.8098 142.981C43.759 150.206 66.4496 151.025 81.9717 151.025C97.4938 151.025 120.184 150.178 138.134 142.981C153.119 136.942 160.683 124.298 158.397 109.115C157.127 100.874 154.559 94.2136 150.523 88.6821L150.1 88.1177C149.084 86.7912 147.701 84.9568 147.56 82.8684C146.515 67.6003 142 54.9568 134.154 45.3049C126.958 36.4432 117.757 29.6699 107.569 25.7188C98.7074 22.2757 89.5634 20.3002 82.4797 20.3002L82.4514 20.2437Z" fill="#83AD35"/>
<path d="M53.2416 111.852C53.2416 107.422 46.5248 103.809 38.2275 103.809C29.9302 103.809 23.2134 107.422 23.2134 111.852C23.2134 116.283 29.9302 119.896 38.2275 119.896C46.5248 119.896 53.2416 116.283 53.2416 111.852Z" fill="#F5B2B2"/>
<path d="M110.758 111.852C110.758 107.422 117.475 103.809 125.772 103.809C134.07 103.809 140.787 107.422 140.787 111.852C140.787 116.283 134.07 119.896 125.772 119.896C117.475 119.896 110.758 116.283 110.758 111.852Z" fill="#F5B2B2"/>
<path d="M68.7921 102.85C68.7921 106.123 66.1109 108.804 62.8371 108.804C59.5634 108.804 56.8823 106.123 56.8823 102.85C56.8823 99.5759 59.5634 96.8948 62.8371 96.8948C66.1109 96.8948 68.7921 99.5759 68.7921 102.85Z" fill="#3F3B3A"/>
<path d="M107.117 102.85C107.117 106.123 104.436 108.804 101.163 108.804C97.8888 108.804 95.2078 106.123 95.2078 102.85C95.2078 99.5759 97.8888 96.8948 101.163 96.8948C104.436 96.8948 107.117 99.5759 107.117 102.85Z" fill="#3F3B3A"/>
<path d="M77.4844 119.585C78.839 119.585 79.9398 118.146 79.9398 116.396C79.9398 114.646 78.839 113.207 77.4844 113.207C76.1297 113.207 75.0291 114.646 75.0291 116.396C75.0291 118.146 76.1297 119.585 77.4844 119.585Z" fill="#3F3B3A"/>
<path d="M86.5154 119.585C87.87 119.585 88.9707 118.146 88.9707 116.396C88.9707 114.646 87.87 113.207 86.5154 113.207C85.1607 113.207 84.0601 114.646 84.0601 116.396C84.0601 118.146 85.1607 119.585 86.5154 119.585Z" fill="#3F3B3A"/>
<path d="M99.5822 24.1947C99.5822 31.8993 91.7929 30.5165 84.0883 30.5165C76.3837 30.5165 68.5945 31.9276 68.5945 24.1947C68.5945 16.4619 76.3837 2.57666 84.0883 2.57666C91.7929 2.57666 99.5822 16.4901 99.5822 24.1947Z" fill="#83AD35"/>
<path d="M90.0997 33C89.1401 33 88.1524 33 87.1364 32.9436C85.1326 32.8871 83.0441 32.8871 81.0121 32.9436C79.9961 32.9436 79.0084 33 78.0488 33C75.4524 33 72.5174 32.8307 70.2315 31.6454C67.5504 30.2343 66.1956 27.7507 66.1956 24.1948C66.1956 16.095 74.2953 0.206055 84.0601 0.206055C93.8249 0.206055 101.953 16.095 101.953 24.1948C101.953 33 93.6557 33 90.0997 33ZM84.0601 28.1459C85.1326 28.1459 86.205 28.1458 87.2492 28.2023C88.2088 28.2023 89.1684 28.2587 90.0997 28.2587C96.1956 28.2587 97.1834 27.0734 97.1834 24.223C97.1834 17.0828 89.7328 4.97557 84.0601 4.97557C78.3875 4.97557 70.937 17.0828 70.937 24.223C70.937 26.3679 71.6424 27.0452 72.4044 27.4403C73.7873 28.1459 76.1297 28.2587 78.0206 28.2587C78.9519 28.2587 79.8833 28.2587 80.871 28.2023C81.9152 28.2023 82.9877 28.1459 84.0319 28.1459H84.0601Z" fill="#689932"/>
</svg>
