<svg width="164" height="146" viewBox="0 0 164 146" fill="none" xmlns="http://www.w3.org/2000/svg">
<path d="M156.295 120.933C156.436 120.707 156.606 120.482 156.747 120.256C158.158 117.97 159.23 115.486 159.936 112.946C159.936 112.918 159.936 112.862 159.964 112.834C160.19 112.072 160.359 111.281 160.5 110.519C160.557 110.265 160.613 110.011 160.641 109.757C160.754 109.08 160.867 108.403 160.924 107.697C160.952 107.358 160.98 107.02 161.008 106.681C161.065 106.032 161.093 105.355 161.121 104.706C161.121 104.423 161.121 104.113 161.121 103.831C161.121 103.012 161.121 102.222 161.065 101.404C161.065 101.319 161.065 101.234 161.065 101.178C160.98 100.19 160.895 99.2023 160.726 98.2428C159.992 93.3321 158.666 88.478 156.606 83.9624C155.59 81.7329 154.376 79.588 152.993 77.556C151.921 76.0321 150.058 74.1412 149.917 72.1939C149.183 61.6671 146.756 51.2249 141.789 42.0245C140.124 38.9483 138.205 36.0415 135.975 33.2757C131.573 27.8571 126.38 23.1158 120.594 19.2776C116.784 16.7658 112.72 14.621 108.431 12.9559C100.303 9.79499 89.8888 7.08568 81.1399 7.39612C71.9678 7.70657 62.7956 10.1337 54.2725 13.7743C51.6197 14.9032 49.0233 16.1449 46.5397 17.4714C38.6658 21.6482 31.6386 27.9982 26.3046 35.3924C24.1033 38.4686 22.1842 41.7141 20.632 45.0443C16.7373 53.4544 14.7053 62.9935 14.0844 72.2221C13.9715 74.0283 12.2217 75.8909 11.2057 77.302C9.96396 79.0236 8.80688 80.7451 7.87556 82.6642C5.50491 87.5466 4.06572 92.937 3.24728 98.271C0.7073 115.063 9.4842 128.469 24.9781 134.706C42.1653 141.62 63.6423 142.918 82.0148 142.918C100.387 142.918 121.864 141.62 139.052 134.706C146.276 131.799 152.034 127.311 155.872 121.639C156.013 121.413 156.182 121.187 156.323 120.961L156.295 120.933Z" fill="#8F93AE"/>
<path d="M20.6035 44.9879C20.6035 44.9879 11.7418 23.4828 21.7042 6.40846C21.7042 6.40846 38.5244 -2.93303 65.3635 9.82332" fill="#8F93AE"/>
<path d="M20.6035 47.3868C19.6721 47.3868 18.7691 46.8223 18.4022 45.9192C18.0354 44.9879 9.2301 23.1158 19.644 5.22308C19.8698 4.8562 20.1803 4.54576 20.5471 4.3482C21.2809 3.95309 38.7503 -5.41662 66.3796 7.70662C67.565 8.27106 68.0729 9.71038 67.5084 10.8957C66.944 12.081 65.5329 12.589 64.3476 12.0246C41.6853 1.272 26.4454 6.9164 23.4257 8.27106C14.7333 24.0472 22.7202 43.9155 22.8331 44.113C23.3411 45.3266 22.7484 46.7377 21.5348 47.2174C21.2244 47.3303 20.9422 47.3868 20.6317 47.3868H20.6035Z" fill="#787C95"/>
<path d="M143.369 44.9879C143.369 44.9879 152.231 23.4828 142.269 6.40846C142.269 6.40846 125.448 -2.93303 98.6094 9.82332" fill="#8F93AE"/>
<path d="M143.369 47.3868C143.059 47.3868 142.777 47.3303 142.466 47.2174C141.253 46.7094 140.66 45.3266 141.168 44.113C141.253 43.9155 149.211 23.9907 140.575 8.27106C137.556 6.9164 122.316 1.24378 99.6252 12.0246C98.4399 12.589 97.0288 12.081 96.4643 10.8957C95.8999 9.71038 96.408 8.29928 97.5933 7.70662C125.251 -5.41662 142.72 3.95309 143.454 4.3482C143.821 4.54576 144.131 4.8562 144.357 5.22308C154.799 23.1158 145.994 44.9879 145.599 45.9192C145.232 46.8506 144.329 47.3868 143.398 47.3868H143.369Z" fill="#787C95"/>
<path d="M3.24707 98.2146C3.98084 93.304 5.30717 88.4498 7.36737 83.9343C8.38336 81.7047 9.59699 79.5598 10.9799 77.5279C12.0241 76.0039 13.9149 74.113 14.056 72.1657C14.7615 61.6389 17.2168 51.1967 22.1557 41.9963" fill="#8F93AE"/>
<path d="M3.24721 100.585C3.24721 100.585 3.02143 100.585 2.88031 100.585C1.5821 100.388 0.678937 99.1742 0.876491 97.8759C1.69493 92.4573 3.16256 87.4338 5.19454 82.9747C6.2952 80.5476 7.59337 78.2616 9.03269 76.2014C9.28669 75.8063 9.6254 75.4112 9.96406 74.9597C10.7261 74.0001 11.6574 72.7866 11.7138 72.0246C12.5323 60.2278 15.3544 49.7574 20.1239 40.8957C20.7448 39.7386 22.1842 39.3153 23.3413 39.9361C24.4984 40.557 24.9216 41.9964 24.3007 43.1535C19.8699 51.3943 17.2171 61.2155 16.4551 72.3632C16.314 74.5928 14.8746 76.4272 13.7175 77.8947C13.4352 78.2616 13.1814 78.6003 12.9556 78.9107C11.6856 80.7452 10.5284 82.7772 9.54067 84.9503C7.67801 89.0142 6.37976 93.6144 5.61777 98.5815C5.44843 99.7668 4.43239 100.613 3.27529 100.613L3.24721 100.585Z" fill="#787C95"/>
<path d="M108.431 12.9277C100.585 9.87976 90.5661 7.22689 81.9866 7.33978Z" fill="#8F93AE"/>
<path d="M108.431 15.3266C108.148 15.3266 107.838 15.2702 107.556 15.1573C98.4682 11.6295 89.1832 9.68221 82.0148 9.73865C80.6319 9.73865 79.616 8.69444 79.616 7.39622C79.616 6.06979 80.6601 4.99735 81.9583 4.99735C89.6911 4.91268 99.6534 7.00111 109.277 10.7546C110.491 11.2344 111.112 12.6173 110.632 13.8308C110.265 14.7622 109.362 15.3548 108.402 15.3548L108.431 15.3266Z" fill="#787C95"/>
<path d="M55.5708 12.9277C63.4165 9.87976 73.4071 7.22689 81.9866 7.33978Z" fill="#8F93AE"/>
<path d="M55.5707 15.3266C54.6112 15.3266 53.7082 14.7622 53.3413 13.8026C52.8615 12.5891 53.4823 11.2062 54.6959 10.7264C64.3196 6.97291 74.2537 4.9127 82.0147 4.96915C83.3412 4.96915 84.3854 6.06981 84.3572 7.36802C84.3572 8.69445 83.2282 9.71045 81.9582 9.71045C81.8171 9.71045 81.6479 9.71045 81.5068 9.71045C74.423 9.71045 65.3073 11.686 56.4174 15.1291C56.1352 15.242 55.853 15.2984 55.5707 15.2984V15.3266Z" fill="#787C95"/>
<path d="M73.0402 25.43C70.8106 25.3736 68.0448 26.5024 66.2951 27.8007C64.63 29.0424 63.1625 30.7075 62.4287 32.6266C61.2716 35.5899 61.1587 39.2306 62.6263 42.1092C63.4447 43.7461 65.0815 45.2701 66.7748 45.9192C68.8915 46.7094 71.2905 46.6247 73.4636 46.145C75.9753 45.5805 78.6846 44.621 80.6884 42.9559C81.2246 42.5325 81.7043 41.9963 82.1276 41.4319C82.5509 40.8392 82.9179 40.1619 83.1437 39.5128C83.2001 41.9117 84.4983 43.9719 86.4456 45.3265C87.0947 45.7781 87.9414 46.145 88.7316 46.2579C89.8887 46.4272 90.9894 46.3425 92.1183 46.0885C92.9649 45.891 93.755 45.5523 94.4606 45.0443C96.2668 43.7461 97.7063 41.8834 97.6216 39.5692C97.5652 38.2428 97.2264 37.0293 96.6902 35.8439" fill="#8F93AE"/>
<path d="M70.2462 48.9107C68.8633 48.9107 67.3675 48.7132 65.8999 48.177C63.6704 47.3303 61.582 45.4112 60.4531 43.2099C58.788 39.9079 58.6752 35.6464 60.1709 31.8082C61.2434 29.0142 63.3035 27.0669 64.8275 25.938C66.803 24.4705 70.1051 23.0029 73.0684 23.0876C74.3949 23.1158 75.4109 24.2165 75.3826 25.5429C75.3544 26.8693 74.2256 27.9136 72.9273 27.8571C71.3751 27.8007 69.1737 28.6473 67.6497 29.748C66.1821 30.8487 65.1098 32.1751 64.5736 33.5297C63.5576 36.098 63.6139 38.9766 64.6581 41.065C65.2508 42.2221 66.4362 43.2946 67.5368 43.7461C69.3431 44.4234 71.4033 44.1977 72.8426 43.859C75.4955 43.2663 77.6686 42.335 79.0797 41.1497C79.4466 40.8392 79.8134 40.4724 80.0674 40.0773C80.3496 39.6821 80.6036 39.1741 80.773 38.7508C81.1399 37.6502 82.2687 37.0011 83.3976 37.1704C84.5265 37.3397 85.4014 38.3275 85.4014 39.4846C85.4296 41.5166 86.8407 42.7866 87.6874 43.3792C88.0825 43.6332 88.5623 43.8308 88.9574 43.9155C89.7194 44.0283 90.5095 43.9719 91.469 43.7743C91.977 43.6614 92.4851 43.4357 92.9084 43.1252C93.9244 42.3915 95.138 41.2061 95.0815 39.6821C95.0533 38.8073 94.8275 37.8759 94.3477 36.8035C93.8397 35.59 94.4042 34.2071 95.5895 33.6709C96.8031 33.1346 98.2141 33.6991 98.7221 34.9126C99.4277 36.5495 99.7664 38.017 99.8228 39.5128C99.9357 42.335 98.44 45.0161 95.6743 46.9917C94.7147 47.6972 93.614 48.177 92.4569 48.431C90.9329 48.7696 89.55 48.8261 88.2236 48.6285C87.0665 48.4592 85.9095 47.9794 84.9217 47.3021C83.8493 46.5683 82.9461 45.6652 82.2688 44.6492C82.1841 44.7057 82.1277 44.7621 82.0712 44.8186C80.0393 46.4837 77.2734 47.7254 73.8585 48.4874C72.8143 48.7132 71.5443 48.9107 70.1615 48.9107H70.2462Z" fill="#787C95"/>
<path d="M3.21895 98.2147C0.678974 115.007 9.45605 128.412 24.9499 134.649C42.1371 141.564 63.614 142.862 81.9865 142.862C100.359 142.862 121.836 141.564 139.023 134.649C154.517 128.412 163.294 115.007 160.726 98.2147" fill="#8F93AE"/>
<path d="M81.9864 145.261C66.0692 145.261 42.7579 144.386 24.0467 136.851C7.11354 130.049 -1.74823 115.091 0.876413 97.8478C1.07397 96.5496 2.28757 95.6465 3.58579 95.844C4.884 96.0416 5.78699 97.2551 5.58944 98.5533C3.27523 113.737 10.8387 126.38 25.8528 132.42C43.802 139.645 66.4926 140.463 82.0147 140.463C97.5368 140.463 120.227 139.616 138.177 132.42C153.162 126.38 160.726 113.737 158.412 98.5533C158.214 97.2551 159.117 96.0416 160.415 95.844C161.714 95.6465 162.927 96.5496 163.125 97.8478C165.749 115.091 156.859 130.049 139.955 136.851C121.243 144.386 97.9319 145.261 82.0147 145.261H81.9864Z" fill="#787C95"/>
<path d="M160.754 98.2146C159.992 93.304 158.694 88.4498 156.634 83.9343C155.618 81.7047 154.404 79.5598 153.021 77.5279C151.949 76.0039 150.086 74.113 149.945 72.1657C149.211 61.6389 146.784 51.1967 141.817 41.9963" fill="#8F93AE"/>
<path d="M160.754 100.585C159.597 100.585 158.581 99.7386 158.412 98.5533C157.65 93.558 156.323 88.9578 154.489 84.9221C153.501 82.749 152.344 80.717 151.074 78.8826C150.848 78.5721 150.594 78.2335 150.312 77.8666C149.155 76.3708 147.716 74.5364 147.574 72.3068C146.812 61.1874 144.188 51.3661 139.729 43.0971C139.108 41.94 139.531 40.5006 140.688 39.8797C141.845 39.2589 143.285 39.6822 143.906 40.8393C148.675 49.701 151.497 60.1714 152.316 71.9682C152.372 72.7584 153.304 73.9437 154.066 74.9315C154.404 75.3548 154.715 75.7499 154.997 76.145C156.436 78.2052 157.734 80.4912 158.835 82.9183C160.867 87.3774 162.306 92.4009 163.153 97.8195C163.351 99.1178 162.447 100.331 161.149 100.529C161.036 100.529 160.895 100.529 160.782 100.529L160.754 100.585Z" fill="#787C95"/>
<path d="M41.7418 104.903H21.7325C20.4061 104.903 19.3618 103.831 19.3618 102.533C19.3618 101.234 20.4343 100.162 21.7325 100.162H41.7418C43.0683 100.162 44.1126 101.234 44.1126 102.533C44.1126 103.831 43.0401 104.903 41.7418 104.903Z" fill="#787C95"/>
<path d="M41.7418 115.571H21.7325C20.4061 115.571 19.3618 114.499 19.3618 113.2C19.3618 111.902 20.4343 110.83 21.7325 110.83H41.7418C43.0683 110.83 44.1126 111.902 44.1126 113.2C44.1126 114.499 43.0401 115.571 41.7418 115.571Z" fill="#787C95"/>
<path d="M142.269 104.903H122.259C120.961 104.903 119.889 103.831 119.889 102.533C119.889 101.234 120.961 100.162 122.259 100.162H142.269C143.595 100.162 144.668 101.234 144.668 102.533C144.668 103.831 143.595 104.903 142.269 104.903Z" fill="#787C95"/>
<path d="M142.269 115.571H122.259C120.961 115.571 119.889 114.499 119.889 113.2C119.889 111.902 120.961 110.83 122.259 110.83H142.269C143.595 110.83 144.668 111.902 144.668 113.2C144.668 114.499 143.595 115.571 142.269 115.571Z" fill="#787C95"/>
<path d="M86.756 96.5214C86.756 95.1667 84.6111 94.066 81.9864 94.066C79.3618 94.066 77.2169 95.1667 77.2169 96.5214C77.2169 97.876 79.3618 98.9767 81.9864 98.9767C84.6111 98.9767 86.756 97.876 86.756 96.5214Z" fill="#3F3B3A"/>
<path d="M68.7786 93.0217C68.7786 89.7198 66.0976 87.0669 62.8238 87.0669C59.5501 87.0669 56.869 89.748 56.869 93.0217C56.869 96.2955 59.5501 98.9766 62.8238 98.9766C66.0976 98.9766 68.7786 96.3237 68.7786 93.0217Z" fill="#3F3B3A"/>
<path d="M60.1992 88.6756C60.1992 89.6069 59.4653 90.3407 58.534 90.3407C57.6027 90.3407 56.869 89.6069 56.869 88.6756C56.869 87.7443 57.6027 87.0105 58.534 87.0105C59.4653 87.0105 60.1992 87.7443 60.1992 88.6756Z" fill="#3F3B3A"/>
<path d="M58.534 87.0105H62.8238V92.9653H56.869V88.6756" fill="#3F3B3A"/>
<path d="M95.1943 93.0217C95.1943 89.7198 97.8756 87.0669 101.149 87.0669C104.423 87.0669 107.104 89.748 107.104 93.0217C107.104 96.2955 104.451 98.9766 101.149 98.9766C97.8473 98.9766 95.1943 96.3237 95.1943 93.0217Z" fill="#3F3B3A"/>
<path d="M103.802 88.6756C103.802 89.6069 104.536 90.3407 105.467 90.3407C106.398 90.3407 107.132 89.6069 107.132 88.6756C107.132 87.7443 106.398 87.0105 105.467 87.0105C104.536 87.0105 103.802 87.7443 103.802 88.6756Z" fill="#3F3B3A"/>
<path d="M105.467 87.0105H101.149V92.9653H107.132V88.6756" fill="#3F3B3A"/>
</svg>
