<svg width="164" height="154" viewBox="0 0 164 154" fill="none" xmlns="http://www.w3.org/2000/svg">
<path d="M160.758 106.792C159.573 99.0025 157.145 91.693 152.432 85.3148C151.501 84.0448 150.033 82.3797 149.921 80.7428C148.961 66.6883 144.953 52.8312 135.979 41.8247C128.669 32.8501 119.215 25.7099 108.406 21.5048C100.306 18.3439 89.8925 15.6346 81.1154 15.9451C69.0929 16.3402 57.042 20.4041 46.5152 25.9921C35.3676 31.8905 25.9132 42.1633 20.6075 53.565C16.7128 61.9752 14.6808 71.5142 14.0599 80.7428C13.9471 82.2668 12.6487 83.7626 11.8303 84.9479C10.8143 86.359 9.77015 87.7701 8.89527 89.2941C5.93196 94.5998 4.15394 100.809 3.22262 106.792C0.682636 123.584 9.45971 136.989 24.9536 143.226C42.1408 150.141 63.6178 151.467 81.9903 151.467C100.363 151.467 121.84 150.169 139.027 143.226C154.521 136.989 163.298 123.584 160.73 106.792H160.758Z" fill="#FFE55F"/>
<path d="M81.9904 153.838C66.0732 153.838 42.7617 152.963 24.0505 145.456C7.11734 138.626 -1.77266 123.697 0.880212 106.453C1.92443 99.5951 3.98474 93.2452 6.80694 88.137C7.59715 86.7259 8.50018 85.4841 9.37506 84.2424L10.3064 82.9724C10.8427 82.2668 11.6328 81.1944 11.661 80.6017C12.3666 70.3007 14.7091 60.5923 18.4344 52.6055C24.0788 40.47 33.9 29.9997 45.3864 23.9319C57.4089 17.5537 69.742 13.9695 81.0308 13.6027C81.5105 13.6027 81.9621 13.6027 82.4419 13.6027C90.09 13.6027 99.8549 15.6911 109.281 19.36C120.231 23.6215 130.109 30.9028 137.842 40.3854C146.336 50.8275 151.191 64.3741 152.32 80.6299C152.376 81.3073 153.279 82.5208 153.9 83.3393L154.38 83.9601C158.895 90.1125 161.774 97.4785 163.129 106.481C165.753 123.725 156.863 138.683 139.958 145.484C121.247 153.019 97.9357 153.866 82.0185 153.866L81.9904 153.838ZM82.4419 18.3157C82.0185 18.3157 81.5952 18.3157 81.2001 18.3157C70.6168 18.6826 59.0175 22.0693 47.6158 28.1088C37.2019 33.6403 27.9169 43.518 22.7805 54.581C19.3092 62.0599 17.1079 71.1756 16.4588 80.9122C16.3177 82.9159 15.0759 84.581 14.1728 85.8228L13.2697 87.0646C12.4231 88.2217 11.6329 89.3223 11.012 90.4794C8.44378 95.1078 6.58121 100.893 5.62166 107.187C3.30746 122.37 10.8709 135.014 25.885 141.053C43.8342 148.278 66.5246 149.097 82.0467 149.097C97.5688 149.097 120.259 148.25 138.209 141.053C153.194 135.014 160.758 122.37 158.444 107.187C157.202 98.946 154.606 92.2856 150.57 86.7541L150.146 86.1897C149.13 84.8632 147.748 83.0288 147.607 80.9404C146.562 65.6723 142.047 53.0288 134.201 43.3769C127.004 34.5152 117.804 27.7419 107.616 23.7908C98.7541 20.3477 89.6103 18.3722 82.5266 18.3722L82.4419 18.3157Z" fill="#FDD23F"/>
<path d="M50.9179 110.009C50.9179 105.578 44.201 101.966 35.9038 101.966C27.6065 101.966 20.8896 105.578 20.8896 110.009C20.8896 114.44 27.6065 118.052 35.9038 118.052C44.201 118.052 50.9179 114.44 50.9179 110.009Z" fill="#FDD23F"/>
<path d="M113.062 110.009C113.062 105.578 119.779 101.966 128.077 101.966C136.374 101.966 143.091 105.578 143.091 110.009C143.091 114.44 136.374 118.052 128.077 118.052C119.779 118.052 113.062 114.44 113.062 110.009Z" fill="#FDD23F"/>
<path d="M65.6215 18.3439C65.6215 18.3439 85.0383 16.7635 87.4372 2.45496C87.4372 2.45496 95.6497 16.3684 83.994 23.5086" fill="#FFE55F"/>
<path d="M83.9658 25.9075C83.1755 25.9075 82.3854 25.5124 81.9339 24.7786C81.2565 23.6497 81.5951 22.1822 82.724 21.5049C88.0862 18.2029 88.3121 13.0947 87.4654 9.20006C81.3695 19.3318 66.5246 20.6864 65.7908 20.7429C64.4926 20.8558 63.3355 19.868 63.2227 18.5698C63.1098 17.2716 64.0976 16.1145 65.3958 16.0016C65.678 16.0016 83.0062 14.3365 85.0382 2.11634C85.2075 1.12857 85.9695 0.338352 86.9573 0.16902C87.9451 -0.000311936 88.9328 0.451239 89.4408 1.2979C92.6864 6.80119 95.9883 18.9649 85.2075 25.5971C84.8124 25.8228 84.3891 25.9357 83.9658 25.9357V25.9075Z" fill="#FDD23F"/>
<path d="M96.9197 115.992C96.9197 111.787 90.2312 108.4 81.9903 108.4C73.7495 108.4 67.0608 111.787 67.0608 115.992C67.0608 120.197 73.7495 123.584 81.9903 123.584C90.2312 123.584 96.9197 120.197 96.9197 115.992Z" fill="#F6AD3C"/>
<path d="M67.2018 101.599C67.2018 104.901 64.5208 107.554 61.247 107.554C57.9733 107.554 55.2922 104.873 55.2922 101.599C55.2922 98.3251 57.9451 95.644 61.247 95.644C64.549 95.644 67.2018 98.3251 67.2018 101.599Z" fill="#3F3B3A"/>
<path d="M108.716 101.599C108.716 104.901 106.035 107.554 102.762 107.554C99.4879 107.554 96.8069 104.873 96.8069 101.599C96.8069 98.3251 99.4597 95.644 102.762 95.644C106.064 95.644 108.716 98.3251 108.716 101.599Z" fill="#3F3B3A"/>
</svg>
