<svg width="168" height="160" viewBox="0 0 168 160" fill="none" xmlns="http://www.w3.org/2000/svg">
<path d="M72.3443 15.1458C54.1411 -1.16652 27.3019 -0.91252 12.3725 15.7385C-2.55693 32.3895 0.124115 59.1157 18.3273 75.428C36.5305 91.7404 63.3696 91.4863 78.2991 74.8354C93.2285 58.1844 90.5474 31.4581 72.3443 15.1458Z" fill="#D4D4D3"/>
<path d="M49.1176 89.8777C37.3491 89.8777 25.8626 85.3904 16.7469 77.206C7.49011 68.9088 1.7611 57.8175 0.575771 45.9643C-0.609553 34.0264 2.94641 22.7093 10.6228 14.1581C18.3838 5.46569 29.3903 0.696167 41.5822 0.696167C53.7741 0.696167 64.8373 5.18347 73.953 13.3678C83.2098 21.6651 88.9388 32.7564 90.1241 44.6378C91.3094 56.5758 87.7535 67.8646 80.0771 76.4158C72.2878 85.1082 61.3095 89.8777 49.1176 89.8777ZM41.5822 5.46569C30.7732 5.46569 21.0367 9.67077 14.1788 17.3472C7.40551 24.8824 4.27283 34.873 5.31705 45.4845C6.38948 56.1524 11.5823 66.1712 19.936 73.6501C28.1768 81.0442 38.5344 85.1082 49.1176 85.1082C59.9267 85.1082 69.6631 80.9031 76.5211 73.2267C83.2944 65.6915 86.4271 55.7009 85.3828 45.0894C84.3386 34.4215 79.1458 24.4027 70.7639 16.9238C62.523 9.52966 52.1656 5.46569 41.5542 5.46569H41.5822Z" fill="#BEBAB7"/>
<path d="M95.6556 15.1458C113.859 -1.16652 140.698 -0.91252 155.627 15.7385C170.557 32.3895 167.876 59.1157 149.701 75.428C131.497 91.7404 104.658 91.4863 89.7289 74.8354C74.7995 58.1844 77.4525 31.4581 95.6556 15.1458Z" fill="#D4D4D3"/>
<path d="M118.882 89.8777C106.69 89.8777 95.7121 85.1082 87.9228 76.4158C80.2465 67.8646 76.6905 56.5758 77.8758 44.6378C79.0611 32.7564 84.7902 21.6651 94.047 13.3678C103.163 5.21169 114.649 0.696167 126.418 0.696167C138.186 0.696167 149.616 5.46569 157.377 14.1581C165.054 22.7093 168.609 33.9981 167.424 45.9643C166.239 57.8175 160.51 68.937 151.253 77.206C142.137 85.3904 130.651 89.8777 118.882 89.8777ZM126.418 5.46569C115.834 5.46569 105.449 9.52966 97.2078 16.9238C88.8541 24.4027 83.6613 34.4215 82.5888 45.0894C81.5446 55.7009 84.6773 65.6915 91.4506 73.2267C98.3085 80.8749 108.045 85.1082 118.854 85.1082C129.663 85.1082 139.795 81.0442 148.036 73.6501C156.389 66.1712 161.582 56.1524 162.655 45.4845C163.699 34.873 160.566 24.8824 153.793 17.3472C146.935 9.69899 137.198 5.46569 126.389 5.46569H126.418Z" fill="#BEBAB7"/>
<path d="M158.308 134.948C158.449 134.723 158.619 134.497 158.76 134.271C160.171 131.985 161.243 129.501 161.949 126.961C161.949 126.933 161.949 126.877 161.977 126.849C162.203 126.087 162.372 125.296 162.513 124.534C162.57 124.28 162.626 124.026 162.655 123.772C162.767 123.095 162.88 122.418 162.965 121.712C162.993 121.374 163.021 121.035 163.05 120.696C163.106 120.047 163.134 119.37 163.162 118.721C163.162 118.438 163.162 118.128 163.162 117.846C163.162 117.027 163.162 116.237 163.106 115.419C163.106 115.334 163.106 115.249 163.106 115.193C163.021 114.205 162.908 113.217 162.767 112.258C162.034 107.347 160.707 102.493 158.647 97.9775C157.631 95.7479 156.417 93.603 155.035 91.5711C153.962 90.0471 152.071 88.1562 151.958 86.2089C151.225 75.6821 148.798 65.2399 143.83 56.0395C142.194 52.9633 140.246 50.0565 138.017 47.2907C133.614 41.8721 128.421 37.1308 122.636 33.2926C118.826 30.7808 114.762 28.636 110.472 26.9709C102.344 23.81 91.9585 21.1007 83.1814 21.4111C74.0093 21.7216 64.8371 24.1487 56.314 27.7893C53.6612 28.9182 51.0648 30.16 48.5812 31.4864C40.7073 35.6633 33.6799 42.0132 28.3459 49.4074C26.1446 52.4836 24.2257 55.7291 22.6735 59.0593C18.7788 67.4695 16.7468 77.0085 16.1259 86.2371C16.013 88.0433 14.2632 89.906 13.2472 91.3171C12.0055 93.0386 10.8484 94.7602 9.91705 96.6793C7.54641 101.562 6.10704 106.952 5.28861 112.286C2.7204 129.078 11.5257 142.484 27.0196 148.721C44.2068 155.635 65.6838 156.933 84.0563 156.933C102.429 156.933 123.906 155.635 141.093 148.721C148.346 145.814 154.075 141.326 157.913 135.654C158.083 135.428 158.224 135.202 158.365 134.977L158.308 134.948Z" fill="#D4D4D3"/>
<path d="M5.2323 112.23C5.96607 107.319 7.29257 102.465 9.35277 97.9493C10.3688 95.7197 11.5824 93.5749 12.9653 91.5429C14.0377 90.0189 15.9285 88.128 16.0414 86.1807C16.7469 75.6539 19.2023 65.2117 24.1693 56.0114" fill="#8F93AE"/>
<path d="M5.2606 114.628C5.2606 114.628 5.00658 114.628 4.8937 114.628C3.59548 114.431 2.69249 113.217 2.89004 111.919C3.70848 106.501 5.14772 101.477 7.20792 97.0179C8.30858 94.5908 9.60692 92.3049 11.0462 90.2446C11.3285 89.8495 11.6388 89.4544 11.9774 89.0029C12.7394 88.0433 13.6708 86.8298 13.7272 86.0678C14.5456 74.271 17.3679 63.8006 22.1092 54.9389C22.7301 53.7818 24.1695 53.3585 25.3266 53.9794C26.4837 54.6002 26.9352 56.0396 26.3143 57.1967C21.8834 65.4375 19.2305 75.2588 18.4685 86.4065C18.3274 88.636 16.8881 90.4704 15.731 91.938C15.4488 92.3049 15.1947 92.6435 14.969 92.954C13.699 94.7884 12.542 96.8204 11.5542 98.9935C9.69157 103.057 8.39331 107.658 7.63132 112.625C7.46199 113.81 6.44595 114.657 5.28885 114.657L5.2606 114.628Z" fill="#BEBAB7"/>
<path d="M110.416 26.9708C102.57 23.9229 92.5512 21.27 83.9717 21.3829Z" fill="#8F93AE"/>
<path d="M110.416 29.3415C110.133 29.3415 109.851 29.2851 109.569 29.1722C100.482 25.6444 91.1683 23.6971 84.0281 23.7536C82.7581 23.7536 81.6292 22.7094 81.6292 21.3829C81.6292 20.0565 82.6734 18.984 83.9716 18.984C91.7045 18.8994 101.667 20.9878 111.291 24.7413C112.504 25.2211 113.125 26.604 112.645 27.8175C112.278 28.7489 111.375 29.3415 110.416 29.3415Z" fill="#BEBAB7"/>
<path d="M57.5841 26.9708C65.4298 23.9229 75.4204 21.27 83.9999 21.3829Z" fill="#8F93AE"/>
<path d="M57.5841 29.3415C56.6245 29.3415 55.7213 28.7771 55.3544 27.8175C54.8747 26.604 55.4957 25.2211 56.7092 24.7413C66.3329 20.9878 76.267 18.9276 84.0281 18.984C85.3545 18.984 86.3986 20.0847 86.3704 21.3829C86.3704 22.6811 85.298 23.7536 83.9998 23.7536C83.8305 23.7536 83.6894 23.7536 83.5201 23.7536C76.4364 23.7536 67.3206 25.7291 58.4307 29.1722C58.1485 29.2851 57.8663 29.3415 57.5841 29.3415Z" fill="#BEBAB7"/>
<path d="M75.0253 39.4732C72.7958 39.4168 70.03 40.5457 68.252 41.8439C66.6151 43.0856 65.1476 44.7507 64.3856 46.6698C63.2285 49.6331 63.1156 53.2738 64.5832 56.1524C65.4016 57.7893 67.0384 59.3133 68.7317 59.9624C70.8201 60.7526 73.2474 60.668 75.4205 60.1882C77.9322 59.6237 80.6416 58.6642 82.6453 56.9991C83.1815 56.5758 83.6612 56.0395 84.0845 55.4751C84.5078 54.8824 84.8748 54.2051 85.1006 53.556C85.1571 55.9549 86.4552 58.0151 88.4025 59.3697C89.0516 59.8213 89.8983 60.1882 90.6885 60.3011C91.8456 60.4704 92.9463 60.3857 94.0752 60.1317C94.9218 59.9342 95.7121 59.5955 96.4177 59.0875C98.2239 57.7893 99.6632 55.9267 99.5785 53.6124C99.5221 52.286 99.1834 51.0725 98.6471 49.8871" fill="#D4D4D3"/>
<path d="M72.2595 62.954C70.8766 62.954 69.3809 62.7564 67.9133 62.2202C65.6838 61.3735 63.5954 59.4544 62.4665 57.2531C60.8014 53.9511 60.6886 49.6896 62.1844 45.8514C63.2568 43.0574 65.3169 41.1101 66.8409 39.9812C68.8164 38.5137 72.0901 37.0461 75.0817 37.1308C76.4081 37.159 77.4241 38.2597 77.3959 39.5861C77.3677 40.9126 76.2388 41.9568 74.9406 41.9003C73.3602 41.8439 71.1871 42.6906 69.6631 43.7912C68.1956 44.8919 67.1232 46.2183 66.587 47.573C65.571 50.1412 65.6274 53.0198 66.6716 55.1082C67.2642 56.2653 68.4496 57.3378 69.5503 57.7893C71.3565 58.4667 73.4167 58.2409 74.856 57.9022C77.5089 57.3096 79.6819 56.3782 81.093 55.1929C81.4599 54.8825 81.8268 54.5156 82.0808 54.1205C82.3631 53.7254 82.6171 53.2174 82.7864 52.794C83.1533 51.6934 84.2821 51.0443 85.411 51.2136C86.5399 51.3829 87.4148 52.3707 87.4148 53.5278C87.4431 55.5598 88.8542 56.8298 89.7008 57.4224C90.0959 57.6764 90.5756 57.874 90.9989 57.9587C91.7609 58.0715 92.5512 58.0151 93.5107 57.8176C94.0187 57.7047 94.5268 57.4789 94.9783 57.1684C95.9943 56.4347 97.2077 55.2493 97.1513 53.7254C97.1231 52.8505 96.8974 51.9191 96.4177 50.8467C95.9097 49.6332 96.4457 48.2503 97.6593 47.7141C98.8728 47.1779 100.284 47.7423 100.792 48.9558C101.498 50.5927 101.836 52.0603 101.893 53.556C101.977 56.3782 100.51 59.0593 97.744 61.0349C96.7845 61.7404 95.6838 62.2202 94.5267 62.4742C93.0027 62.8129 91.6198 62.8693 90.2934 62.6717C89.1363 62.5024 87.9792 62.0226 86.9914 61.3453C85.919 60.6115 85.0159 59.7084 84.3103 58.6924C84.2539 58.7489 84.1692 58.8053 84.1127 58.8618C82.0808 60.5269 79.3151 61.7686 75.9002 62.5306C74.856 62.7564 73.586 62.954 72.2031 62.954H72.2595Z" fill="#BEBAB7"/>
<path d="M5.23221 112.229C2.66401 129.022 11.4693 142.427 26.9632 148.664C44.1504 155.579 65.6274 156.877 83.9999 156.877C102.372 156.877 123.849 155.579 141.037 148.664C156.531 142.427 165.307 129.022 162.767 112.229" fill="#D4D4D3"/>
<path d="M84 159.304C68.0828 159.304 44.7713 158.429 26.0601 150.894C9.12693 144.092 0.237116 129.135 2.88998 111.891C3.08754 110.593 4.30097 109.69 5.59919 109.887C6.8974 110.085 7.80056 111.298 7.60301 112.596C5.28881 127.78 12.8523 140.423 27.8664 146.463C45.8156 153.688 68.5061 154.506 84 154.506C99.4939 154.506 122.213 153.659 140.162 146.463C155.148 140.423 162.711 127.78 160.397 112.596C160.199 111.298 161.102 110.085 162.401 109.887C163.699 109.69 164.912 110.593 165.11 111.891C167.735 129.135 158.845 144.092 141.94 150.894C123.228 158.429 99.9172 159.304 84 159.304Z" fill="#BEBAB7"/>
<path d="M162.767 112.229C162.005 107.319 160.707 102.465 158.647 97.9491C157.631 95.7196 156.417 93.5747 155.035 91.5427C153.962 90.0188 152.071 88.1279 151.959 86.1806C151.225 75.6537 148.798 65.2116 143.831 56.0112" fill="#8F93AE"/>
<path d="M162.739 114.628C161.582 114.628 160.566 113.782 160.397 112.596C159.635 107.601 158.308 103.001 156.474 98.9652C155.486 96.7921 154.329 94.7601 153.059 92.9257C152.833 92.6152 152.579 92.2766 152.297 91.9097C151.14 90.4139 149.729 88.5795 149.56 86.3499C148.798 75.2305 146.173 65.4092 141.714 57.1401C141.093 55.983 141.516 54.5437 142.673 53.9228C143.831 53.302 145.27 53.7253 145.891 54.8824C150.66 63.7441 153.482 74.2145 154.301 86.0113C154.357 86.8015 155.289 87.9868 156.051 88.9746C156.389 89.3979 156.7 89.793 156.982 90.1881C158.421 92.2483 159.72 94.5343 160.82 96.9614C162.852 101.42 164.292 106.444 165.138 111.863C165.336 113.161 164.433 114.374 163.134 114.572C163.022 114.572 162.88 114.572 162.768 114.572L162.739 114.628Z" fill="#BEBAB7"/>
<path d="M43.7271 118.918H23.7178C22.3913 118.918 21.347 117.846 21.347 116.548C21.347 115.249 22.4196 114.177 23.7178 114.177H43.7271C45.0535 114.177 46.126 115.249 46.126 116.548C46.126 117.846 45.0535 118.918 43.7271 118.918Z" fill="#BEBAB7"/>
<path d="M43.7271 129.586H23.7178C22.3913 129.586 21.347 128.514 21.347 127.215C21.347 125.917 22.4196 124.845 23.7178 124.845H43.7271C45.0535 124.845 46.126 125.917 46.126 127.215C46.126 128.514 45.0535 129.586 43.7271 129.586Z" fill="#BEBAB7"/>
<path d="M144.282 118.918H124.273C122.946 118.918 121.902 117.846 121.902 116.548C121.902 115.249 122.975 114.177 124.273 114.177H144.282C145.609 114.177 146.681 115.249 146.681 116.548C146.681 117.846 145.609 118.918 144.282 118.918Z" fill="#BEBAB7"/>
<path d="M144.282 129.586H124.273C122.946 129.586 121.902 128.514 121.902 127.215C121.902 125.917 122.975 124.845 124.273 124.845H144.282C145.609 124.845 146.681 125.917 146.681 127.215C146.681 128.514 145.609 129.586 144.282 129.586Z" fill="#BEBAB7"/>
<path d="M88.7695 110.564C88.7695 109.21 86.6246 108.109 84 108.109C81.3753 108.109 79.2305 109.21 79.2305 110.564C79.2305 111.919 81.3753 113.02 84 113.02C86.6246 113.02 88.7695 111.919 88.7695 110.564Z" fill="#3F3B3A"/>
<path d="M70.7921 107.037C70.7921 103.735 68.1393 101.082 64.8373 101.082C61.5353 101.082 58.8823 103.763 58.8823 107.037C58.8823 110.31 61.5635 112.992 64.8373 112.992C68.111 112.992 70.7921 110.339 70.7921 107.037Z" fill="#3F3B3A"/>
<path d="M97.2078 107.037C97.2078 103.735 99.8888 101.082 103.163 101.082C106.436 101.082 109.118 103.763 109.118 107.037C109.118 110.31 106.436 112.992 103.163 112.992C99.8888 112.992 97.2078 110.339 97.2078 107.037Z" fill="#3F3B3A"/>
</svg>
