<svg width="164" height="156" viewBox="0 0 164 156" fill="none" xmlns="http://www.w3.org/2000/svg">
<path d="M145.274 64.3724C145.274 64.3724 158.99 32.7355 148.999 11.0327C148.999 11.0327 128.877 8.12588 98.0864 18.5962" fill="#F6AD3C"/>
<path d="M145.274 66.743C144.963 66.743 144.625 66.6866 144.314 66.5455C143.101 66.0093 142.565 64.6264 143.073 63.4128C143.214 63.1024 155.744 33.6951 147.362 13.2341C142.508 12.839 124.333 12.1617 98.8769 20.8258C97.6351 21.2492 96.2803 20.5718 95.8569 19.3301C95.4336 18.0883 96.111 16.7336 97.3528 16.3103C128.312 5.78349 148.519 8.52102 149.366 8.66213C150.156 8.77502 150.862 9.28302 151.201 10.0168C161.53 32.4533 148.068 63.9773 147.503 65.3037C147.108 66.2068 146.233 66.743 145.302 66.743H145.274Z" fill="#F3981D"/>
<path d="M18.7828 64.3724C18.7828 64.3724 5.06671 32.7355 15.0573 11.0327C15.0573 11.0327 35.1797 8.12588 65.9416 18.5962" fill="#F6AD3C"/>
<path d="M18.7827 66.743C17.8514 66.743 16.9764 66.2068 16.5813 65.3037C16.0169 63.9773 2.55514 32.4251 12.8844 10.0168C13.2231 9.28302 13.9001 8.77502 14.7185 8.66213C15.5652 8.52102 35.7723 5.78349 66.7318 16.3103C67.9736 16.7336 68.651 18.0883 68.2277 19.3301C67.8044 20.5718 66.4495 21.2492 65.2077 20.8258C39.7515 12.1617 21.5767 12.839 16.6943 13.2341C8.31236 33.7233 20.843 63.1024 20.9841 63.4128C21.4921 64.6264 20.9557 66.0375 19.7421 66.5455C19.4317 66.6866 19.1214 66.743 18.7827 66.743Z" fill="#F3981D"/>
<path d="M160.767 108.455C159.949 103.093 158.51 97.7025 156.139 92.8484C155.208 90.9293 154.079 89.2077 152.809 87.4862C151.793 86.0751 150.071 84.2406 149.93 82.4062C149.338 73.742 147.503 64.8239 144.06 56.8371C143.975 56.8371 143.891 56.8371 143.834 56.8088C144.935 60.8164 147.616 71.1738 147.814 71.6254C93.7966 27.5426 85.6686 106.649 85.6686 106.649H78.3592C78.3592 106.649 70.2595 27.5144 16.2143 71.6254C16.4119 71.2021 19.0931 60.8164 20.1937 56.8088C20.1091 56.8088 20.0245 56.8088 19.9681 56.8371C16.525 64.8521 14.6903 73.7703 14.0977 82.4062C13.9848 84.2124 12.235 86.0751 11.219 87.4862C9.97722 89.2077 8.82031 90.9293 7.88898 92.8484C5.51834 97.7308 4.07897 103.121 3.26054 108.455C0.692333 125.247 9.49746 138.653 24.9913 144.89C42.1785 151.804 63.6557 153.102 82.0282 153.102C100.401 153.102 121.878 151.804 139.065 144.89C154.559 138.653 163.336 125.247 160.767 108.455Z" fill="#FCE3CD"/>
<path d="M3.26046 108.456C0.720484 125.248 9.49739 138.653 24.9913 144.89C42.1785 151.805 63.6556 153.103 82.0282 153.103C100.401 153.103 121.878 151.805 139.065 144.89C154.559 138.653 163.335 125.248 160.767 108.456" fill="#FCE3CD"/>
<path d="M82.0283 155.501C66.1111 155.501 42.7996 154.626 24.0884 147.091C7.15521 140.29 -1.73463 125.332 0.890013 108.088C1.08757 106.79 2.301 105.887 3.59921 106.085C4.89743 106.282 5.80042 107.496 5.60287 108.794C3.28866 123.977 10.8523 136.621 25.8382 142.66C43.7874 149.885 66.4779 150.704 81.9718 150.704C97.4656 150.704 120.184 149.857 138.134 142.66C153.119 136.621 160.711 123.977 158.397 108.794C158.199 107.496 159.102 106.282 160.4 106.085C161.699 105.887 162.912 106.79 163.11 108.088C165.735 125.332 156.844 140.29 139.94 147.091C121.228 154.626 97.9172 155.501 82 155.501H82.0283Z" fill="#F3981D"/>
<path d="M143.834 58.7844C143.609 57.8531 143.439 57.2604 143.383 57.1475C141.831 53.648 139.912 50.2331 137.71 47.0158C132.376 39.2548 125.349 32.5662 117.475 28.1918C114.963 26.8089 112.395 25.5107 109.742 24.3253C101.219 20.5154 92.0188 17.9472 82.8748 17.6367C82.5926 17.6367 82.3106 17.6367 82.0284 17.6367C81.7462 17.6367 81.4638 17.6367 81.1816 17.6367C72.0094 17.9472 62.8372 20.5154 54.3142 24.3253C51.6613 25.5107 49.0649 26.8089 46.5814 28.1918C38.7075 32.5662 31.6801 39.2548 26.3743 47.0158C24.173 50.2331 22.2539 53.648 20.7017 57.1475C20.6735 57.2604 20.5044 57.8531 20.2504 58.7844C19.1497 62.9895 16.4686 73.8832 16.271 74.3347C70.2879 27.9942 78.4159 111.136 78.4159 111.136H85.7253C85.7253 111.136 93.8251 28.0224 147.87 74.3347C147.673 73.8832 144.991 62.9895 143.891 58.7844H143.834Z" fill="#F6AD3C"/>
<path d="M3.28882 108.455C4.02259 103.544 5.34891 98.6902 7.40912 94.1747C8.42511 91.9452 9.63874 89.8003 11.0216 87.7683C12.0941 86.2443 13.9566 84.3535 14.0977 82.4061C14.8033 71.8793 17.2586 61.4372 22.2257 52.2368" fill="#F6AD3C"/>
<path d="M3.28879 110.826C3.28879 110.826 3.03478 110.826 2.92189 110.826C1.62368 110.628 0.720689 109.415 0.918243 108.116C1.73668 102.698 3.20396 97.6743 5.23595 93.2152C6.36483 90.7881 7.63478 88.5021 9.0741 86.4419C9.35632 86.0468 9.66698 85.6517 10.0056 85.2002C10.7676 84.2406 11.699 83.0271 11.7554 82.2651C12.5738 70.4683 15.396 59.9979 20.1372 51.1362C20.7581 49.9791 22.1975 49.5557 23.3546 50.1766C24.5117 50.7975 24.9349 52.2368 24.314 53.3939C19.8832 61.6348 17.2302 71.456 16.4682 82.6037C16.3271 84.8333 14.8879 86.6677 13.7308 88.1352C13.4486 88.5021 13.1945 88.8408 12.9687 89.1512C11.6988 90.9857 10.5418 93.0176 9.554 95.1907C7.69134 99.2547 6.36487 103.855 5.6311 108.822C5.46176 110.007 4.4459 110.854 3.28879 110.854V110.826Z" fill="#F3981D"/>
<path d="M108.472 23.1682C100.627 20.1202 90.636 17.4674 82.0283 17.5803Z" fill="#F6AD3C"/>
<path d="M108.472 25.5671C108.19 25.5671 107.88 25.5107 107.597 25.3978C98.5098 21.87 89.225 19.9227 82.0566 19.9791H82.0284C80.7302 19.9791 79.6575 18.9349 79.6575 17.6085C79.6575 16.2821 80.7019 15.2096 82.0001 15.2096C89.7612 15.125 99.6951 17.2134 109.319 20.9669C110.532 21.4467 111.153 22.8296 110.673 24.0431C110.307 24.9744 109.404 25.5671 108.444 25.5671H108.472Z" fill="#F3981D"/>
<path d="M55.6125 23.1682C63.4583 20.1202 73.4488 17.4674 82.0283 17.5803Z" fill="#F6AD3C"/>
<path d="M55.6124 25.5671C54.6529 25.5671 53.7497 25.0027 53.3828 24.0431C52.903 22.8296 53.5238 21.4467 54.7374 20.9669C64.3611 17.2134 74.3236 15.1532 82.0564 15.2096C83.3829 15.2096 84.4269 16.3103 84.3987 17.6085C84.3987 18.9067 83.3264 19.9791 82.0282 19.9791C81.8871 19.9791 81.7176 19.9791 81.5483 19.9791C74.4646 19.9791 65.3488 21.9547 56.4589 25.3978C56.1767 25.5107 55.8946 25.5671 55.6124 25.5671Z" fill="#F3981D"/>
<path d="M41.7838 115.144H21.7741C20.4477 115.144 19.4036 114.071 19.4036 112.773C19.4036 111.475 20.4759 110.402 21.7741 110.402H41.7838C43.1102 110.402 44.1826 111.475 44.1826 112.773C44.1826 114.071 43.1102 115.144 41.7838 115.144Z" fill="#F6AD3C"/>
<path d="M41.7838 125.812H21.7741C20.4477 125.812 19.4036 124.739 19.4036 123.441C19.4036 122.143 20.4759 121.07 21.7741 121.07H41.7838C43.1102 121.07 44.1826 122.143 44.1826 123.441C44.1826 124.739 43.1102 125.812 41.7838 125.812Z" fill="#F6AD3C"/>
<path d="M142.31 115.144H122.301C121.003 115.144 119.93 114.071 119.93 112.773C119.93 111.475 121.003 110.402 122.301 110.402H142.31C143.637 110.402 144.709 111.475 144.709 112.773C144.709 114.071 143.637 115.144 142.31 115.144Z" fill="#F6AD3C"/>
<path d="M142.31 125.812H122.301C121.003 125.812 119.93 124.739 119.93 123.441C119.93 122.143 121.003 121.07 122.301 121.07H142.31C143.637 121.07 144.709 122.143 144.709 123.441C144.709 124.739 143.637 125.812 142.31 125.812Z" fill="#F6AD3C"/>
<path d="M86.7976 111.672C86.7976 110.318 84.6529 109.217 82.0282 109.217C79.4036 109.217 77.2585 110.318 77.2585 111.672C77.2585 113.027 79.4036 114.128 82.0282 114.128C84.6529 114.128 86.7976 113.027 86.7976 111.672Z" fill="#3F3B3A"/>
<path d="M103.618 100.468C103.674 101.4 104.464 102.105 105.368 102.049C106.299 101.992 106.976 101.202 106.92 100.299C106.863 99.3958 106.073 98.6903 105.17 98.7467C104.239 98.8031 103.561 99.5934 103.618 100.496V100.468Z" fill="#3F3B3A"/>
<path d="M105.198 98.7185L100.909 98.9725L101.191 104.081L107.146 103.742L106.948 100.045" fill="#3F3B3A"/>
<path d="M95.2643 104.448C95.095 101.625 97.635 99.17 100.909 98.9725C104.211 98.7749 107.005 100.92 107.146 103.742C107.315 106.564 104.775 109.02 101.501 109.217C98.2275 109.415 95.4055 107.27 95.2643 104.448Z" fill="#3F3B3A"/>
<path d="M60.4386 100.468C60.3821 101.4 59.5919 102.105 58.6888 102.049C57.7857 101.992 57.08 101.202 57.1365 100.299C57.1929 99.3958 57.9831 98.6903 58.8862 98.7467C59.7893 98.8031 60.495 99.5934 60.4386 100.496V100.468Z" fill="#3F3B3A"/>
<path d="M58.8578 98.7185L63.1476 98.9725L62.8654 104.081L56.9106 103.742L57.1363 100.045" fill="#3F3B3A"/>
<path d="M68.8203 104.448C68.9896 101.625 66.4496 99.17 63.1759 98.9725C59.8739 98.7749 57.08 100.92 56.9389 103.742C56.7696 106.564 59.3096 109.02 62.5833 109.217C65.8853 109.415 68.6791 107.27 68.8203 104.448Z" fill="#3F3B3A"/>
<path d="M71.1348 18.7091C71.1348 18.7091 90.5797 17.1286 92.9503 2.82007C92.9503 2.82007 101.163 16.7335 89.507 23.8737" fill="#F6AD3C"/>
<path d="M89.5068 26.2726C88.7166 26.2726 87.9264 25.8775 87.4749 25.1437C86.7693 24.0148 87.1363 22.5473 88.2652 21.87C93.6274 18.568 93.8533 13.4598 93.0066 9.56518C86.9107 19.6969 72.0657 21.0515 71.332 21.108C70.0338 21.2209 68.8766 20.2331 68.7637 18.9349C68.6508 17.6367 69.6386 16.4796 70.9368 16.3667C71.219 16.3667 88.5472 14.7016 90.5792 2.48145C90.7486 1.49368 91.5107 0.703465 92.4985 0.534132C93.4862 0.3648 94.474 0.816351 94.982 1.66301C98.2276 7.1663 101.53 19.33 90.7487 25.9622C90.3536 26.1879 89.9301 26.3008 89.5068 26.3008V26.2726Z" fill="#F3981D"/>
<path d="M160.796 108.455C160.034 103.544 158.736 98.6902 156.675 94.1747C155.659 91.9452 154.446 89.8003 153.063 87.7683C151.991 86.2443 150.128 84.3535 149.987 82.4061C149.281 71.8793 146.826 61.4372 141.859 52.2368" fill="#F6AD3C"/>
<path d="M160.796 110.826C159.639 110.826 158.623 109.979 158.453 108.794C157.691 103.798 156.365 99.1983 154.531 95.1626C153.543 92.9895 152.386 90.9575 151.116 89.123C150.89 88.8126 150.636 88.4739 150.354 88.1071C149.197 86.6113 147.757 84.7769 147.616 82.5473C146.854 71.4278 144.23 61.6066 139.771 53.3375C139.15 52.1804 139.573 50.7411 140.73 50.1202C141.887 49.4993 143.326 49.9227 143.947 51.0798C148.717 59.9415 151.539 70.4119 152.357 82.2087C152.414 82.9989 153.345 84.1842 154.107 85.172C154.446 85.5953 154.756 85.9904 155.039 86.3855C156.478 88.4457 157.776 90.7317 158.877 93.1588C160.909 97.6179 162.348 102.641 163.195 108.06C163.392 109.358 162.489 110.572 161.191 110.769C161.078 110.769 160.937 110.769 160.824 110.769L160.796 110.826Z" fill="#F3981D"/>
</svg>
