<svg width="196" height="142" viewBox="0 0 196 142" fill="none" xmlns="http://www.w3.org/2000/svg">
<path d="M117.426 6.3826C117.426 6.3826 145.139 -3.21288 179.034 32.9677C212.929 69.1766 176.353 93.0242 161.565 85.0656" fill="white"/>
<path d="M168.31 88.9885C165.46 88.9885 162.778 88.3958 160.436 87.1541C159.279 86.5332 158.827 85.0939 159.476 83.9368C160.097 82.7797 161.537 82.3563 162.722 82.9772C168.451 86.0816 179.712 83.2594 186.146 74.9057C194.443 64.1249 191.226 49.4494 177.341 34.6329C144.886 -0.0237437 118.498 8.58397 118.244 8.66864C117.002 9.09197 115.648 8.44286 115.224 7.20109C114.801 5.95932 115.45 4.60467 116.692 4.15312C117.877 3.72979 146.268 -5.52704 180.84 31.3591C203.079 55.0939 194.613 71.7448 189.956 77.8126C184.538 84.8399 175.93 89.0449 168.366 89.0449L168.31 88.9885Z" fill="#E2CAB6"/>
<path d="M78.4794 6.38272C78.4794 6.38272 50.7652 -3.21276 16.8706 32.9679C-17.024 69.1767 19.5518 93.0243 34.3402 85.0657" fill="white"/>
<path d="M27.6233 88.9885C20.0598 88.9885 11.4521 84.8117 6.03344 77.7562C1.37681 71.6884 -7.06162 55.0374 15.1491 31.3027C49.721 -5.61167 78.0841 3.67337 79.2977 4.0967C80.5394 4.52003 81.1886 5.87469 80.7653 7.14468C80.3419 8.38645 78.9874 9.03555 77.7456 8.61222C77.4917 8.52756 50.9346 0.0891765 18.6486 34.5765C4.76337 49.393 1.54607 64.0967 9.84334 74.8493C16.278 83.2312 27.5387 86.0252 33.2677 82.9208C34.4248 82.2999 35.8639 82.7232 36.513 83.8803C37.1339 85.0374 36.7106 86.4768 35.5535 87.0976C33.2111 88.3394 30.5303 88.9321 27.6798 88.9321L27.6233 88.9885Z" fill="#E2CAB6"/>
<path d="M176.748 94.0967C176.014 89.186 174.688 84.3319 172.628 79.8164C171.612 77.5868 170.398 75.4137 168.987 73.41C167.915 71.886 166.052 69.9951 165.911 68.0478C165.177 57.521 162.75 47.0788 157.783 37.8502C156.118 34.774 154.199 31.8389 151.969 29.1014C147.567 23.6828 142.374 18.9415 136.56 15.1033C132.75 12.5915 128.658 10.4466 124.368 8.78154C116.24 5.62068 105.826 2.91136 97.0493 3.22181C87.8771 3.53225 78.6767 5.95934 70.1536 9.59998C67.5008 10.7289 64.9044 11.9706 62.4208 13.2971C54.5469 17.4739 47.4913 23.8239 42.1855 31.218C39.9842 34.2942 38.0651 37.5398 36.5129 40.87C32.6183 49.2801 30.5864 58.8192 29.9655 68.0478C29.8526 69.854 28.1028 71.7166 27.0868 73.1277C25.8451 74.8493 24.6882 76.5708 23.7568 78.4899C21.3862 83.3723 19.9186 88.7627 19.1001 94.1249C16.5319 110.917 25.3371 124.351 40.8309 130.588C58.0464 137.502 79.5232 138.829 97.8957 138.829C116.268 138.829 137.745 137.53 154.961 130.588C170.455 124.351 179.26 110.917 176.692 94.1249L176.748 94.0967Z" fill="white"/>
<path d="M124.396 8.78154C116.268 5.62068 105.855 2.91136 97.0775 3.22181C87.9054 3.53225 78.7049 5.95934 70.1819 9.59998" fill="white"/>
<path d="M70.1821 11.9424C69.2508 11.9424 68.3758 11.4062 67.9807 10.5031C67.4727 9.28954 68.0373 7.87843 69.2509 7.37044C78.7899 3.30647 88.1313 1.10515 96.993 0.822931C108.225 0.456045 120.502 4.71757 125.243 6.552C126.457 7.03178 127.078 8.41466 126.598 9.6282C126.118 10.8417 124.735 11.4626 123.522 10.9829C114.039 7.28577 104.444 5.33845 97.1625 5.56423C88.8934 5.84645 80.1161 7.90666 71.1133 11.7449C70.8028 11.886 70.4925 11.9424 70.1821 11.9424Z" fill="#E2CAB6"/>
<path d="M42.2139 31.1897C40.0125 34.2659 38.0934 37.5115 36.5412 40.8417C32.6466 49.2518 30.6147 58.7909 29.9939 68.0195C29.881 69.8257 28.1311 71.6883 27.1152 73.0994C25.8734 74.821 24.7165 76.5425 23.7852 78.4616C21.4145 83.344 19.9469 88.7344 19.1285 94.0966C16.5603 110.889 25.3654 124.322 40.8593 130.559C58.0747 137.474 79.5515 138.8 97.9241 138.8C116.297 138.8 137.774 137.502 154.989 130.559C170.483 124.322 179.288 110.889 176.72 94.0966C175.986 89.186 174.66 84.3318 172.6 79.8163C171.584 77.5867 170.37 75.4136 168.959 73.4099C167.887 71.8859 166.024 69.995 165.883 68.0477C165.149 57.5209 162.722 47.0787 157.755 37.8501C156.09 34.7739 154.171 31.8389 151.941 29.1013" fill="white"/>
<path d="M97.9523 141.171C82.035 141.171 58.7239 140.296 39.9845 132.761C23.0513 125.959 14.1611 111.002 16.7858 93.7298C17.7171 87.6056 19.3542 82.1023 21.6402 77.4174C22.7409 75.1314 24.1237 73.1559 25.1679 71.6884C25.3655 71.4061 25.5913 71.1239 25.8452 70.8135C26.5226 69.9386 27.5386 68.6122 27.595 67.8502C28.3005 57.5209 30.643 47.8408 34.3683 39.8257C35.977 36.3544 37.9524 32.996 40.2667 29.7787C41.0569 28.7062 42.5242 28.4805 43.5967 29.2425C44.6691 30.0044 44.895 31.5002 44.1331 32.5727C42.0164 35.536 40.1536 38.6404 38.6861 41.8577C35.1865 49.3365 33.0134 58.4522 32.3361 68.1888C32.195 70.3901 30.7558 72.2528 29.5987 73.7486C29.4011 74.0026 29.2037 74.2566 29.0343 74.5106C27.6232 76.4579 26.6634 78.0101 25.9297 79.5059C23.8412 83.7674 22.3738 88.7909 21.499 94.4353C19.1847 109.619 26.7766 122.29 41.7625 128.33C59.7117 135.555 82.4302 136.401 97.9523 136.401C113.474 136.401 136.165 135.555 154.142 128.33C169.128 122.29 176.72 109.619 174.406 94.4353C173.644 89.44 172.317 84.8398 170.483 80.8041C169.495 78.631 168.338 76.599 167.068 74.7646C166.842 74.4259 166.56 74.0872 166.306 73.7486C165.149 72.2528 163.738 70.4184 163.568 68.1888C162.806 57.0411 160.182 47.2199 155.723 38.9791C154.114 35.9593 152.223 33.1653 150.163 30.5971C149.316 29.5811 149.486 28.0854 150.502 27.2387C151.518 26.4203 153.014 26.5614 153.86 27.5774C156.118 30.3713 158.178 33.4475 159.928 36.7213C164.698 45.583 167.52 56.0534 168.338 67.8784C168.395 68.6404 169.382 69.9104 170.088 70.8417C170.427 71.265 170.737 71.6884 171.019 72.0835C172.458 74.1437 173.757 76.4297 174.857 78.8568C176.889 83.3158 178.357 88.3394 179.175 93.758C181.8 111.03 172.91 125.988 155.977 132.789C137.266 140.324 113.926 141.199 98.0088 141.199L97.9523 141.171Z" fill="#E2CAB6"/>
<path d="M69.1943 101.83C69.1943 97.7091 62.9571 94.3789 55.2807 94.3789C47.6043 94.3789 41.3674 97.7091 41.3674 101.83C41.3674 105.95 47.6043 109.28 55.2807 109.28C62.9571 109.28 69.1943 105.95 69.1943 101.83Z" fill="#E2CAB6"/>
<path d="M126.711 101.83C126.711 97.7091 132.948 94.3789 140.624 94.3789C148.3 94.3789 154.538 97.7091 154.538 101.83C154.538 105.95 148.3 109.28 140.624 109.28C132.948 109.28 126.711 105.95 126.711 101.83Z" fill="#E2CAB6"/>
<path d="M102.722 101.83C102.722 100.475 100.577 99.3743 97.9522 99.3743C95.3276 99.3743 93.1829 100.475 93.1829 101.83C93.1829 103.184 95.3276 104.285 97.9522 104.285C100.577 104.285 102.722 103.184 102.722 101.83Z" fill="#3F3B3A"/>
<path d="M84.7727 93.4475C84.7727 96.7495 82.0917 99.4306 78.7897 99.4306C75.4877 99.4306 72.8066 96.7495 72.8066 93.4475C72.8066 90.1456 75.4877 87.4645 78.7897 87.4645C82.0917 87.4645 84.7727 90.1456 84.7727 93.4475Z" fill="#3F3B3A"/>
<path d="M123.24 93.4475C123.24 96.7495 120.558 99.4306 117.256 99.4306C113.955 99.4306 111.273 96.7495 111.273 93.4475C111.273 90.1456 113.955 87.4645 117.256 87.4645C120.558 87.4645 123.24 90.1456 123.24 93.4475Z" fill="#3F3B3A"/>
<path d="M91.4331 18.5463C89.2035 18.4899 86.4378 19.6188 84.688 20.917C83.0229 22.1588 81.5554 23.8239 80.8216 25.743C79.6645 28.7063 79.5514 32.3469 81.019 35.2255C81.8374 36.8624 83.4746 38.3864 85.1679 39.0355C87.2845 39.8257 89.6834 39.7411 91.8565 39.2613C94.3682 38.6969 97.0774 37.7373 99.0811 36.0722C99.6174 35.6489 100.097 35.1127 100.52 34.5482C100.944 33.9838 101.311 33.2782 101.536 32.6009C101.565 34.9998 102.891 37.06 104.839 38.4146C105.488 38.8662 106.334 39.2331 107.124 39.346C108.253 39.5153 109.382 39.4306 110.511 39.1766C111.358 38.9791 112.148 38.6404 112.853 38.1324C114.66 36.8342 116.099 34.9716 116.014 32.6573C115.958 31.3591 115.619 30.1174 115.083 28.932" fill="white"/>
<path d="M88.639 42.027C87.2561 42.027 85.7602 41.8295 84.2927 41.265C82.0631 40.4184 79.9746 38.4993 78.8457 36.298C77.1806 32.996 77.0678 28.7345 78.5635 24.8963C79.636 22.1023 81.6962 20.155 83.2202 19.0261C85.1958 17.5303 88.4979 16.091 91.4612 16.1757C92.7876 16.2039 93.8034 17.3046 93.7752 18.631C93.747 19.9574 92.6181 21.0016 91.3199 20.9452C89.7677 20.8888 87.5664 21.7354 86.0707 22.8643C84.6031 23.965 83.5026 25.2914 82.9946 26.646C82.0068 29.2142 82.0348 32.0929 83.079 34.1813C83.6716 35.3384 84.857 36.4109 85.9577 36.8624C87.7639 37.5397 89.8241 37.314 91.2634 36.9753C93.9163 36.3826 96.0896 35.4513 97.5007 34.266C97.8676 33.9555 98.2344 33.5887 98.4884 33.1935C98.7706 32.7702 99.0246 32.2904 99.194 31.8671C99.5609 30.7665 100.69 30.1174 101.818 30.2867C102.976 30.456 103.822 31.4438 103.822 32.6009C103.851 34.6329 105.262 35.9311 106.108 36.4955C106.475 36.7777 106.955 36.9471 107.378 37.0317C108.14 37.1446 108.93 37.0882 109.89 36.8906C110.398 36.7777 110.906 36.552 111.329 36.2415C112.345 35.5078 113.559 34.3224 113.502 32.7984C113.474 31.9236 113.248 30.9922 112.769 29.9198C112.261 28.7062 112.797 27.3234 114.011 26.7872C115.224 26.2792 116.635 26.8436 117.143 28.0289C117.849 29.6658 118.216 31.1333 118.244 32.6291C118.357 35.4513 116.861 38.1324 114.095 40.1079C113.136 40.8135 112.035 41.2933 110.878 41.5473C109.354 41.8859 107.971 41.9424 106.645 41.7448C105.488 41.5755 104.302 41.0957 103.343 40.4184C102.27 39.6846 101.367 38.7815 100.662 37.7655C100.605 37.822 100.52 37.8784 100.464 37.9348C98.4318 39.5999 95.666 40.8417 92.2511 41.6037C91.2069 41.8295 89.9371 42.027 88.5542 42.027H88.639Z" fill="#E2CAB6"/>
<path d="M94.2272 109.675C91.9412 109.675 89.9091 108.575 89.5987 108.405C88.4416 107.756 88.0466 106.317 88.6958 105.16C89.3449 104.031 90.7839 103.608 91.941 104.257C92.7594 104.708 94.2553 105.131 94.8197 104.793C95.1584 104.595 95.5818 103.692 95.5818 101.83C95.5818 100.503 96.6541 99.4589 97.9806 99.4589C99.307 99.4589 100.351 100.531 100.351 101.83C100.351 105.301 99.3069 107.7 97.2185 108.913C96.259 109.478 95.2149 109.675 94.2272 109.675Z" fill="#3F3B3A"/>
<path d="M101.678 109.675C100.69 109.675 99.6738 109.478 98.6861 108.913C96.5976 107.7 95.5535 105.329 95.5535 101.83C95.5535 100.503 96.6258 99.4589 97.924 99.4589C99.2222 99.4589 100.323 100.531 100.323 101.83C100.323 103.692 100.718 104.567 101.085 104.793C101.706 105.16 103.286 104.623 103.935 104.257C105.064 103.608 106.532 104.003 107.181 105.16C107.83 106.317 107.435 107.756 106.278 108.405C105.968 108.575 103.935 109.675 101.65 109.675H101.678Z" fill="#3F3B3A"/>
<path d="M97.9525 116.251C95.5818 116.251 94.1425 115.178 93.3805 114.275C91.1792 111.735 91.6873 107.784 91.7438 107.333C91.9413 106.035 93.1548 105.131 94.453 105.329C95.7512 105.527 96.6545 106.712 96.457 108.01C96.3441 108.913 96.4286 110.522 96.9648 111.143C97.0494 111.227 97.2469 111.453 97.9242 111.453C99.2507 111.453 100.323 112.526 100.323 113.824C100.323 115.122 99.2507 116.194 97.9242 116.194L97.9525 116.251Z" fill="#3F3B3A"/>
<path d="M97.9523 116.251C96.6541 116.251 95.5818 115.178 95.5818 113.88C95.5818 112.582 96.6541 111.51 97.9523 111.51C98.6297 111.51 98.8275 111.284 98.9121 111.199C99.4766 110.55 99.561 108.941 99.4199 108.067C99.2506 106.768 100.154 105.555 101.452 105.385C102.75 105.216 103.964 106.091 104.133 107.389C104.19 107.841 104.697 111.792 102.524 114.332C101.734 115.235 100.323 116.307 97.9523 116.307V116.251Z" fill="#3F3B3A"/>
</svg>
