<svg width="164" height="192" viewBox="0 0 164 192" fill="none" xmlns="http://www.w3.org/2000/svg">
<path d="M59.6904 60.309C58.3639 60.309 57.0659 59.6317 56.3039 58.4181C38.1853 28.9825 41.6566 4.93739 41.826 3.9214C42.1646 1.7483 44.1966 0.280759 46.3697 0.591201C48.5428 0.929865 50.0105 2.96185 49.7 5.10672C49.6436 5.44539 46.652 27.515 63.1055 54.2412C64.2626 56.1039 63.6697 58.5592 61.807 59.7163C61.1579 60.1114 60.4524 60.309 59.7186 60.309H59.6904Z" fill="#7F5C45"/>
<path d="M47.7244 30.6758C46.7084 30.6758 45.6924 30.2807 44.9022 29.5187C43.35 27.9665 43.35 25.4547 44.9022 23.9025C44.9869 23.8179 49.7847 18.9355 51.3934 13.4886C52.0143 11.372 54.2156 10.1866 56.3322 10.8075C58.4489 11.4284 59.6341 13.6297 59.0132 15.7464C56.8119 23.197 50.7723 29.2647 50.5183 29.5187C49.7564 30.3089 48.7404 30.6758 47.6961 30.6758H47.7244Z" fill="#7F5C45"/>
<path d="M49.2201 41.1462C39.5963 41.1462 31.9765 33.611 31.666 33.2723C30.1138 31.7201 30.1421 29.2083 31.666 27.6561C33.2183 26.1039 35.73 26.1039 37.2822 27.6561C37.3669 27.7408 43.2653 33.4416 49.6152 33.1876C51.7601 33.103 53.6508 34.7963 53.7355 36.9976C53.8202 39.1989 52.0987 41.0333 49.9256 41.118C49.6998 41.118 49.4458 41.118 49.2201 41.118V41.1462Z" fill="#7F5C45"/>
<path d="M104.338 60.3091C103.632 60.3091 102.898 60.1115 102.249 59.7164C100.387 58.5593 99.7938 56.1322 100.951 54.2414C117.433 27.4587 114.385 5.33262 114.356 5.10685C114.046 2.93375 115.514 0.901768 117.687 0.591326C119.832 0.252662 121.863 1.74843 122.202 3.8933C122.371 4.90929 125.815 28.9544 107.724 58.39C106.962 59.6036 105.664 60.2809 104.338 60.2809V60.3091Z" fill="#7F5C45"/>
<path d="M116.276 30.6759C115.26 30.6759 114.244 30.2808 113.453 29.5188C113.199 29.2648 107.188 23.1689 104.959 15.7465C104.338 13.6298 105.551 11.4285 107.639 10.8076C109.756 10.1868 111.957 11.3721 112.578 13.4887C114.187 18.9356 119.013 23.8462 119.07 23.9027C120.622 25.4549 120.622 27.9666 119.07 29.5188C118.279 30.309 117.263 30.6759 116.247 30.6759H116.276Z" fill="#7F5C45"/>
<path d="M114.78 41.1463C114.554 41.1463 114.3 41.1463 114.074 41.1463C111.873 41.0616 110.18 39.2272 110.264 37.0259C110.349 34.8246 112.183 33.103 114.385 33.2159C120.791 33.4699 126.661 27.7691 126.718 27.7126C128.27 26.1604 130.782 26.1604 132.334 27.7126C133.886 29.2648 133.886 31.7766 132.334 33.3288C132.023 33.6675 124.403 41.2027 114.78 41.2027V41.1463Z" fill="#7F5C45"/>
<path d="M105.213 57.9385C105.213 57.9385 114.103 50.2903 123.839 51.4474C123.839 51.4474 147.828 49.9799 143.256 90.9865" fill="#9E7B5D"/>
<path d="M143.227 93.3571C143.227 93.3571 143.058 93.3571 142.974 93.3571C141.675 93.216 140.716 92.0307 140.857 90.7325C142.522 75.7184 140.406 64.6271 134.733 58.6723C129.851 53.5359 124.008 53.8463 123.952 53.8463C123.811 53.8463 123.67 53.8463 123.529 53.8463C114.949 52.8303 106.821 59.7165 106.737 59.8012C105.749 60.6478 104.225 60.5349 103.378 59.5472C102.531 58.5594 102.644 57.0354 103.632 56.1887C104.027 55.8501 113.312 47.9761 123.895 49.105C125.307 49.0768 132.334 49.2744 138.176 55.3985C144.949 62.5105 147.433 74.5895 145.57 91.2969C145.429 92.5105 144.413 93.4136 143.2 93.4136L143.227 93.3571Z" fill="#89664C"/>
<path d="M58.8157 57.9384C58.8157 57.9384 49.9258 50.2902 40.1892 51.4473C40.1892 51.4473 16.2005 49.9798 20.7725 90.9864" fill="#9E7B5D"/>
<path d="M20.7725 93.3571C19.5872 93.3571 18.5427 92.454 18.4016 91.2404C16.539 74.5612 19.0507 62.4822 25.824 55.342C31.666 49.1896 38.6652 48.9921 40.1045 49.0485C50.6878 47.9196 59.9726 55.7936 60.3677 56.1322C61.3837 56.9789 61.4686 58.5029 60.622 59.4907C59.7753 60.4784 58.2511 60.5913 57.2634 59.7447C57.2634 59.7447 49.0227 52.802 40.4714 53.7898C40.3303 53.7898 40.1891 53.7898 40.048 53.7898C39.8222 53.7898 34.0368 53.564 29.2108 58.7004C23.5947 64.6835 21.5062 75.7465 23.1713 90.7042C23.3124 92.0024 22.3811 93.1877 21.0547 93.3288C20.97 93.3288 20.8854 93.3288 20.7725 93.3288V93.3571Z" fill="#89664C"/>
<path d="M108.43 59.1238C100.584 56.0758 90.5653 53.4229 81.9858 53.5358Z" fill="#9E7B5D"/>
<path d="M108.43 61.5227C108.148 61.5227 107.837 61.4662 107.555 61.3533C98.4678 57.8256 89.2108 55.8783 82.0142 55.9347C80.6878 55.9347 79.6154 54.8905 79.5872 53.5641C79.5872 52.2376 80.6313 51.1652 81.9577 51.1652C89.6905 51.0805 99.6531 53.169 109.277 56.9225C110.519 57.4023 111.111 58.7851 110.631 59.9987C110.264 60.9582 109.361 61.5227 108.402 61.5227H108.43Z" fill="#89664C"/>
<path d="M55.5703 59.1238C63.416 56.0758 73.4066 53.4229 81.9861 53.5358Z" fill="#9E7B5D"/>
<path d="M55.5702 61.5227C54.6106 61.5227 53.7074 60.9582 53.3405 59.9987C52.8608 58.7851 53.4816 57.4023 54.6951 56.9225C64.3188 53.169 74.2814 51.1087 82.0142 51.1652C83.3124 51.1652 84.3847 52.2659 84.3565 53.5641C84.3565 54.8905 83.2841 55.9065 81.9577 55.9347C74.7893 55.85 65.5045 57.8256 56.417 61.3533C56.1348 61.4662 55.8242 61.5227 55.5419 61.5227H55.5702Z" fill="#89664C"/>
<path d="M160.754 144.411C159.935 139.077 158.496 133.658 156.125 128.804C155.194 126.885 154.037 125.163 152.795 123.442C151.779 122.031 150.057 120.196 149.916 118.362C149.323 109.698 147.489 100.779 144.046 92.7926C143.961 92.7926 143.877 92.7926 143.82 92.7644C144.921 96.7719 147.602 107.129 147.799 107.581C93.7825 63.47 85.6549 142.604 85.6549 142.604H78.3451C78.3451 142.604 70.2457 63.47 16.2006 107.581C16.3981 107.158 19.079 96.7719 20.1796 92.7644C20.095 92.7644 20.0104 92.7644 19.954 92.7926C16.5109 100.808 14.6766 109.726 14.0839 118.362C13.971 120.168 12.2212 122.031 11.2052 123.442C9.96346 125.163 8.80621 126.885 7.87488 128.804C5.50424 133.686 4.06487 139.077 3.24643 144.411C0.678232 161.203 9.45545 174.608 24.9493 180.845C42.1365 187.76 63.6134 189.058 81.9859 189.058C100.358 189.058 121.835 187.76 139.022 180.845C154.516 174.608 163.294 161.203 160.754 144.411Z" fill="#E7BE8F"/>
<path d="M3.24641 144.411C0.678205 161.203 9.48365 174.608 24.9493 180.845C42.1365 187.76 63.6133 189.058 81.9859 189.058C100.358 189.058 121.835 187.76 139.022 180.845C154.516 174.608 163.294 161.203 160.754 144.411" fill="#E7BE8F"/>
<path d="M82.0141 191.457C66.0969 191.457 42.7854 190.582 24.0743 183.047C7.14105 176.245 -1.74879 161.287 0.875853 144.044C1.07341 142.746 2.28684 141.843 3.58505 142.04C4.88327 142.238 5.78661 143.451 5.58905 144.749C3.27485 159.933 10.8381 172.605 25.824 178.616C43.7732 185.841 66.4638 186.659 81.9859 186.659C97.508 186.659 120.199 185.812 138.148 178.616C153.134 172.576 160.697 159.933 158.411 144.749C158.213 143.451 159.117 142.238 160.415 142.04C161.713 141.843 162.927 142.746 163.124 144.044C165.749 161.287 156.859 176.245 139.954 183.047C121.243 190.582 97.9313 191.457 82.0141 191.457Z" fill="#89664C"/>
<path d="M143.82 94.7118C143.595 93.7805 143.425 93.1878 143.369 93.0749C141.817 89.5754 139.897 86.1605 137.696 82.9432C132.39 75.1821 125.335 68.4935 117.461 64.1191C114.977 62.7362 112.381 61.438 109.728 60.2527C101.205 56.4427 92.0049 53.8745 82.861 53.5641C82.5787 53.5641 82.2964 53.5641 82.0142 53.5641C81.7319 53.5641 81.4496 53.5641 81.1674 53.5641C71.9952 53.8745 62.8234 56.4427 54.3003 60.2527C51.6474 61.438 49.0507 62.7362 46.5672 64.1191C38.6932 68.4935 31.6662 75.1821 26.3322 82.9432C24.1309 86.1605 22.2118 89.5754 20.6596 93.0749C20.6031 93.1878 20.4337 93.7805 20.2079 94.7118C19.1073 98.9169 16.4261 109.811 16.2285 110.29C70.2736 63.9498 78.3734 147.092 78.3734 147.092H85.6832C85.6832 147.092 93.7826 63.978 147.828 110.29C147.63 109.839 144.949 98.9451 143.849 94.7118H143.82Z" fill="#9E7B5D"/>
<path d="M3.24634 144.411C3.98011 139.528 5.30678 134.646 7.36698 130.13C8.38298 127.901 9.59626 125.756 10.9791 123.724C12.0516 122.2 13.9145 120.309 14.0556 118.362C14.7611 107.835 17.2165 97.3929 22.1835 88.1925" fill="#F6AD3C"/>
<path d="M3.24631 146.781C3.24631 146.781 3.02052 146.781 2.87941 146.781C1.5812 146.584 0.678209 145.37 0.875763 144.072C1.6942 138.653 3.16183 133.63 5.19381 129.171C6.29447 126.744 7.59264 124.458 9.03196 122.398C9.28596 122.002 9.62447 121.607 9.93491 121.156C10.6969 120.196 11.6282 118.983 11.6847 118.221C12.5031 106.424 15.3256 95.9536 20.0669 87.0919C20.6877 85.9348 22.155 85.5114 23.2839 86.1323C24.441 86.7532 24.8928 88.1925 24.2437 89.3496C19.8128 97.5904 17.1599 107.412 16.3979 118.559C16.2568 120.789 14.8175 122.623 13.6604 124.091C13.3782 124.458 13.1241 124.796 12.8984 125.107C11.6284 126.941 10.4714 128.973 9.48361 131.146C7.62096 135.21 6.32271 139.811 5.56071 144.778C5.39138 145.963 4.37517 146.81 3.21806 146.81L3.24631 146.781Z" fill="#89664C"/>
<path d="M160.754 144.411C160.02 139.528 158.693 134.646 156.633 130.13C155.617 127.901 154.404 125.756 153.021 123.724C151.948 122.2 150.085 120.309 149.944 118.362C149.239 107.835 146.783 97.3928 141.816 88.1924" fill="#9E7B5D"/>
<path d="M160.754 146.781C159.597 146.781 158.58 145.935 158.383 144.749C157.621 139.754 156.295 135.154 154.46 131.118C153.473 128.945 152.343 126.913 151.045 125.079C150.819 124.768 150.565 124.43 150.283 124.063C149.126 122.567 147.687 120.732 147.546 118.503C146.784 107.383 144.131 97.5622 139.7 89.2931C139.079 88.136 139.503 86.6967 140.66 86.0758C141.817 85.4549 143.256 85.8782 143.877 87.0353C148.647 95.8971 151.469 106.367 152.287 118.164C152.344 118.954 153.275 120.14 154.037 121.128C154.376 121.551 154.686 121.946 154.968 122.341C156.407 124.401 157.706 126.687 158.806 129.114C160.838 133.573 162.278 138.597 163.124 144.016C163.322 145.314 162.419 146.527 161.121 146.725C161.008 146.725 160.895 146.725 160.754 146.725V146.781Z" fill="#89664C"/>
<path d="M68.7501 138.541C68.7501 141.843 66.0691 144.524 62.7671 144.524C59.4651 144.524 56.7837 141.843 56.7837 138.541C56.7837 135.239 59.4651 132.557 62.7671 132.557C66.0691 132.557 68.7501 135.239 68.7501 138.541Z" fill="#3F3B3A"/>
<path d="M107.216 138.541C107.216 141.843 104.535 144.524 101.233 144.524C97.9311 144.524 95.25 141.843 95.25 138.541C95.25 135.239 97.9311 132.557 101.233 132.557C104.535 132.557 107.216 135.239 107.216 138.541Z" fill="#3F3B3A"/>
<path d="M64.7141 135.21C64.7141 134.674 64.2909 134.279 63.7829 134.279C63.2749 134.279 62.8513 134.702 62.8513 135.21C62.8513 135.718 63.2749 136.142 63.7829 136.142C64.2909 136.142 64.7141 135.718 64.7141 135.21Z" fill="white"/>
<path d="M103.717 135.21C103.717 134.674 103.294 134.279 102.786 134.279C102.278 134.279 101.854 134.702 101.854 135.21C101.854 135.718 102.278 136.142 102.786 136.142C103.294 136.142 103.717 135.718 103.717 135.21Z" fill="white"/>
<path d="M82.0142 153.272C81.1393 153.272 80.4336 152.567 80.4336 151.692V147.346C80.4336 146.471 81.1393 145.765 82.0142 145.765C82.8891 145.765 83.5944 146.471 83.5944 147.346V151.692C83.5944 152.567 82.8891 153.272 82.0142 153.272Z" fill="#3F3B3A"/>
<path d="M53.2278 147.628C53.2278 143.508 46.9906 140.177 39.3142 140.177C31.6378 140.177 25.4006 143.508 25.4006 147.628C25.4006 151.748 31.6378 155.079 39.3142 155.079C46.9906 155.079 53.2278 151.748 53.2278 147.628Z" fill="#9E7B5D"/>
<path d="M110.772 147.628C110.772 143.508 117.009 140.177 124.686 140.177C132.362 140.177 138.599 143.508 138.599 147.628C138.599 151.748 132.362 155.079 124.686 155.079C117.009 155.079 110.772 151.748 110.772 147.628Z" fill="#9E7B5D"/>
<path d="M86.7837 147.628C86.7837 146.273 84.639 145.173 82.0143 145.173C79.3897 145.173 77.2446 146.273 77.2446 147.628C77.2446 148.983 79.3897 150.083 82.0143 150.083C84.639 150.083 86.7837 148.983 86.7837 147.628Z" fill="#3F3B3A"/>
</svg>
