<svg width="164" height="154" viewBox="0 0 164 154" fill="none" xmlns="http://www.w3.org/2000/svg">
<path d="M156.284 129.496C156.425 129.271 156.595 129.045 156.736 128.819C158.147 126.533 159.22 124.05 159.925 121.51C159.925 121.481 159.925 121.425 159.953 121.397C160.179 120.635 160.348 119.844 160.489 119.082C160.546 118.828 160.602 118.574 160.631 118.32C160.744 117.643 160.856 116.966 160.913 116.26C160.941 115.922 160.969 115.583 160.998 115.244C161.054 114.595 161.082 113.918 161.11 113.269C161.11 112.958 161.11 112.676 161.11 112.394C161.11 111.575 161.11 110.785 161.026 109.967C161.026 109.882 161.026 109.826 161.026 109.741C160.941 108.753 160.856 107.765 160.687 106.806C159.953 101.895 158.627 97.0411 156.566 92.5256C155.55 90.296 154.337 88.1511 152.954 86.1192C151.882 84.5952 150.019 82.7043 149.878 80.757C149.172 70.2302 146.717 59.788 141.75 50.5876C140.085 47.5114 138.166 44.6046 135.936 41.8388C131.534 36.4202 126.341 31.6789 120.527 27.8407C116.717 25.3289 112.653 23.1841 108.363 21.519C100.235 18.3581 89.8214 15.6488 81.0726 15.9592C71.9005 16.2697 62.7283 18.6968 54.2052 22.3374C51.5524 23.4663 48.956 24.7081 46.4724 26.0345C38.5985 30.2113 31.5714 36.5613 26.2375 43.9555C24.0362 47.0317 22.117 50.2772 20.5648 53.6074C16.6702 62.0176 14.638 71.5566 14.0171 80.7852C13.9042 82.5914 12.1544 84.4541 11.1384 85.8652C9.89665 87.5867 8.73974 89.3083 7.80842 91.2273C5.43777 96.0815 3.99841 101.5 3.17997 106.834C0.611767 123.626 9.41689 137.032 24.9108 143.269C42.098 150.183 63.5751 151.481 81.9477 151.481C100.32 151.481 121.797 150.183 138.984 143.269C146.237 140.362 151.966 135.875 155.804 130.202C155.974 129.976 156.115 129.75 156.256 129.525L156.284 129.496Z" fill="#E3D3A9"/>
<path d="M82.343 110.785C42.7193 110.785 12.973 113.184 5.15552 127.154C8.42927 134.802 15.513 140.785 25.3061 144.257C42.4933 150.324 63.9704 151.481 82.343 151.481C100.715 151.481 122.192 150.324 139.38 144.257C146.633 141.717 152.362 137.766 156.2 132.798C156.369 132.601 156.51 132.403 156.651 132.206C156.792 132.008 156.962 131.811 157.103 131.613C157.752 130.71 158.316 129.75 158.796 128.791C152.672 113.41 123.462 110.813 82.343 110.813V110.785Z" fill="white"/>
<path d="M81.976 103.306C95.1274 103.306 99.8968 50.1926 100.207 18.7815C93.9138 16.9753 87.1404 15.7617 81.1009 15.9593C74.7227 16.185 68.3447 17.4268 62.1641 19.4024C62.6156 50.8699 68.9091 103.306 81.9477 103.306H81.976Z" fill="#ADA081"/>
<path d="M58.7772 20.3338C58.7772 20.3338 46.9523 11.6696 36.9899 17.0036C36.9899 17.0036 17.7707 25.7524 20.7623 53.3818" fill="#E3D3A9"/>
<path d="M20.7341 55.7524C19.5487 55.7524 18.5046 54.8493 18.3635 53.6357C15.2309 24.6517 35.7764 14.9434 35.974 14.8305C47.0088 8.90385 59.6242 18.0196 60.1604 18.3864C61.2329 19.1767 61.4585 20.6442 60.6682 21.7166C59.878 22.7891 58.4107 23.0149 57.3382 22.2246C57.3382 22.2246 46.5854 14.52 38.0624 19.092C37.2157 19.4871 20.3109 27.6433 23.0767 53.0995C23.2178 54.3977 22.2583 55.5831 20.96 55.7242C20.8754 55.7242 20.7905 55.7242 20.7058 55.7242L20.7341 55.7524Z" fill="#C9B38F"/>
<path d="M105.174 20.3337C105.174 20.3337 116.999 11.6695 126.962 17.0035C126.962 17.0035 146.181 25.7523 143.189 53.3817" fill="#E3D3A9"/>
<path d="M143.217 55.7523C143.217 55.7523 143.048 55.7523 142.964 55.7523C141.665 55.6112 140.706 54.4259 140.847 53.1277C143.613 27.5303 126.171 19.2613 126.002 19.1766C117.338 14.5482 106.698 22.1681 106.585 22.2528C105.513 23.0148 104.045 22.789 103.255 21.7448C102.465 20.6724 102.719 19.2048 103.763 18.4146C104.299 18.0195 116.943 8.932 128.091 14.9151C128.147 14.9151 148.692 24.6517 145.56 53.6357C145.419 54.8492 144.403 55.7523 143.189 55.7523H143.217Z" fill="#C9B38F"/>
<path d="M3.23682 106.806C3.97059 101.895 5.29691 97.0411 7.35712 92.5256C8.37311 90.296 9.58674 88.1511 10.9696 86.1192C12.0421 84.5952 13.9046 82.7043 14.0457 80.757C14.7513 70.2302 17.2066 59.788 22.1737 50.5876" fill="#E3D3A9"/>
<path d="M3.23655 109.177C3.23655 109.177 3.01076 109.177 2.86965 109.177C1.57144 108.979 0.668443 107.765 0.865997 106.467C1.68443 101.049 3.15172 96.0251 5.1837 91.566C6.28436 89.1389 7.58253 86.853 9.02185 84.7927C9.30407 84.3976 9.61473 84.0025 9.9534 83.551C10.7154 82.5914 11.6467 81.3779 11.7031 80.6159C12.5216 68.8191 15.3437 58.3487 20.1132 49.487C20.7341 48.3299 22.1735 47.9066 23.3306 48.5275C24.4877 49.1483 24.9392 50.5877 24.2901 51.7448C19.8592 59.9856 17.2062 69.8069 16.4443 80.9545C16.3031 83.1841 14.8639 85.0185 13.7068 86.4861C13.4246 86.8529 13.1705 87.1916 12.9448 87.5021C11.6748 89.3365 10.5178 91.3685 9.53 93.5416C7.66735 97.6055 6.34087 102.178 5.6071 107.173C5.43777 108.358 4.4219 109.205 3.2648 109.205L3.23655 109.177Z" fill="#C9B38F"/>
<path d="M108.42 21.5191C100.574 18.4711 90.5835 15.8182 81.9758 15.9311Z" fill="#E3D3A9"/>
<path d="M108.42 23.9179C108.138 23.9179 107.827 23.8615 107.545 23.7486C98.4573 20.2208 89.1443 18.2735 82.0041 18.33C80.6212 18.33 79.605 17.2857 79.605 15.9875C79.605 14.6611 80.6494 13.5887 81.9476 13.5887C89.7087 13.504 99.6426 15.5924 109.266 19.346C110.508 19.8257 111.101 21.2086 110.621 22.4222C110.254 23.3817 109.351 23.9461 108.392 23.9461L108.42 23.9179Z" fill="#C9B38F"/>
<path d="M55.5603 21.5191C63.406 18.4711 73.4248 15.8182 82.0043 15.9311Z" fill="#E3D3A9"/>
<path d="M55.5602 23.9179C54.6006 23.9179 53.6974 23.3535 53.3305 22.3939C52.8508 21.1804 53.4716 19.7975 54.6851 19.3177C64.3088 15.5642 74.2996 13.504 82.0042 13.5605C83.3306 13.5605 84.3747 14.6611 84.3465 15.9593C84.3465 17.2858 83.2176 18.3018 81.9194 18.3018C81.7783 18.3018 81.6371 18.3018 81.4678 18.3018C74.3841 18.3018 65.2683 20.2773 56.3784 23.7204C56.0962 23.8333 55.8141 23.8897 55.5037 23.8897L55.5602 23.9179Z" fill="#C9B38F"/>
<path d="M81.9761 153.852C66.0588 153.852 42.7474 152.977 24.0362 145.47C7.10301 138.669 -1.78681 123.711 0.866058 106.467C1.06361 105.169 2.30527 104.266 3.57526 104.463C4.87347 104.661 5.77647 105.875 5.57891 107.173C3.26471 122.356 10.8566 135 25.8425 141.039C43.7916 148.264 66.4822 149.082 82.0043 149.082C97.5264 149.082 120.217 148.236 138.166 141.039C153.152 135 160.715 122.356 158.429 107.173C158.232 105.875 159.135 104.661 160.433 104.463C161.731 104.266 162.945 105.141 163.143 106.467C165.767 123.711 156.877 138.669 139.972 145.47C121.261 153.005 97.9498 153.852 82.0326 153.852H81.9761Z" fill="#C9B38F"/>
<path d="M160.743 106.806C159.981 101.895 158.683 97.0411 156.623 92.5256C155.607 90.296 154.393 88.1511 153.01 86.1192C151.938 84.5952 150.075 82.7043 149.934 80.757C149.229 70.2302 146.773 59.788 141.806 50.5876" fill="#E3D3A9"/>
<path d="M160.743 109.177C159.586 109.177 158.57 108.33 158.401 107.145C157.639 102.149 156.313 97.5492 154.45 93.5134C153.462 91.3403 152.333 89.3365 151.035 87.4739C150.809 87.1352 150.555 86.8248 150.273 86.4579C149.116 84.9621 147.677 83.1277 147.536 80.8982C146.774 69.7787 144.149 59.9574 139.69 51.6884C139.069 50.5313 139.492 49.0919 140.649 48.4711C141.807 47.8502 143.246 48.2735 143.867 49.4306C148.636 58.2923 151.458 68.7627 152.277 80.5595C152.333 81.3215 153.265 82.535 154.027 83.5228C154.365 83.9461 154.676 84.3412 154.93 84.7364C156.369 86.7966 157.667 89.0825 158.768 91.5096C160.8 95.9687 162.239 100.992 163.086 106.411C163.284 107.709 162.38 108.923 161.082 109.12C160.969 109.12 160.828 109.12 160.715 109.12L160.743 109.177Z" fill="#C9B38F"/>
<path d="M68.768 101.613C68.768 98.3111 66.087 95.6582 62.8132 95.6582C59.5394 95.6582 56.8584 98.3393 56.8584 101.613C56.8584 104.887 59.5394 107.568 62.8132 107.568C66.087 107.568 68.768 104.887 68.768 101.613Z" fill="#3F3B3A"/>
<path d="M95.1836 101.613C95.1836 98.3111 97.8646 95.6582 101.138 95.6582C104.412 95.6582 107.093 98.3393 107.093 101.613C107.093 104.887 104.44 107.568 101.138 107.568C97.8364 107.568 95.1836 104.887 95.1836 101.613Z" fill="#3F3B3A"/>
<path d="M86.7453 105.113C86.7453 103.758 84.6289 102.657 81.976 102.657C79.3231 102.657 77.2063 103.758 77.2063 105.113C77.2063 106.467 79.3513 107.568 81.976 107.568C84.6006 107.568 86.7453 106.467 86.7453 105.113Z" fill="#3F3B3A"/>
<path d="M78.2503 113.156C75.9644 113.156 73.9323 112.055 73.6219 111.886C72.4648 111.237 72.0698 109.798 72.7189 108.64C73.3681 107.512 74.8074 107.088 75.9645 107.737C76.783 108.189 78.2788 108.612 78.8432 108.274C79.1819 108.076 79.6049 107.173 79.6049 105.31C79.6049 104.012 80.6776 102.94 81.9758 102.94C83.2741 102.94 84.3746 104.012 84.3746 105.31C84.3746 108.81 83.3305 111.18 81.242 112.394C80.2825 112.958 79.2381 113.156 78.2503 113.156Z" fill="#3F3B3A"/>
<path d="M85.701 113.156C84.7132 113.156 83.6974 112.958 82.7096 112.394C80.6494 111.18 79.5767 108.81 79.5767 105.31C79.5767 104.012 80.6494 102.94 81.9758 102.94C83.3022 102.94 84.3464 104.012 84.3464 105.31C84.3464 107.173 84.7415 108.048 85.1084 108.274C85.7293 108.64 87.3098 108.132 87.9871 107.737C89.116 107.088 90.5833 107.483 91.2324 108.64C91.8815 109.769 91.4865 111.237 90.3294 111.886C90.019 112.055 87.9869 113.156 85.701 113.156Z" fill="#3F3B3A"/>
<path d="M65.6072 18.3581C65.6072 18.3581 85.0521 16.7777 87.4227 2.46912C87.4227 2.46912 95.6354 16.3826 83.9797 23.5227" fill="#ADA081"/>
<path d="M83.9794 25.9217C83.1892 25.9217 82.3991 25.5265 81.9475 24.7928C81.242 23.6639 81.609 22.1964 82.7378 21.519C88.1 18.217 88.3256 13.1089 87.4789 9.21422C81.383 19.3459 66.5384 20.7006 65.8046 20.757C64.5064 20.8699 63.3492 19.8821 63.2363 18.5839C63.1234 17.2575 64.1113 16.1286 65.4095 16.0157C65.5788 16.0157 83.0199 14.4071 85.0519 2.1305C85.2212 1.14273 85.9834 0.352512 86.9711 0.18318C87.9589 0.0138482 88.9463 0.465399 89.4543 1.31206C92.6999 6.81535 96.0018 18.979 85.221 25.6112C84.8259 25.8652 84.4028 25.9499 83.9794 25.9499V25.9217Z" fill="#C9B38F"/>
</svg>
