<svg width="24" height="24" viewBox="0 0 24 24" fill="none" xmlns="http://www.w3.org/2000/svg">
<g id="Group 1">
<path id="Vector" d="M20.6432 24H3.35683C2.46654 24 1.61272 23.6463 0.983193 23.0168C0.353665 22.3873 0 21.5335 0 20.6432V3.35683C0 2.46654 0.353665 1.61272 0.983193 0.983193C1.61272 0.353665 2.46654 0 3.35683 0H20.6432C21.5335 0 22.3873 0.353665 23.0168 0.983193C23.6463 1.61272 24 2.46654 24 3.35683V20.6432C24 21.5335 23.6463 22.3873 23.0168 23.0168C22.3873 23.6463 21.5335 24 20.6432 24ZM3.35683 1.34273C2.82266 1.34273 2.31037 1.55493 1.93265 1.93265C1.55493 2.31037 1.34273 2.82266 1.34273 3.35683V20.6432C1.34273 21.1773 1.55493 21.6896 1.93265 22.0674C2.31037 22.4451 2.82266 22.6573 3.35683 22.6573H20.6432C21.1773 22.6573 21.6896 22.4451 22.0674 22.0674C22.4451 21.6896 22.6573 21.1773 22.6573 20.6432V3.35683C22.6573 2.82266 22.4451 2.31037 22.0674 1.93265C21.6896 1.55493 21.1773 1.34273 20.6432 1.34273H3.35683Z" fill="#7D67FF"/>
<path id="Vector_2" d="M12.0001 18.1686C10.78 18.1672 9.58774 17.8042 8.57396 17.1254C7.56019 16.4466 6.77043 15.4824 6.30452 14.3549C5.8386 13.2273 5.71746 11.9869 5.95639 10.7904C6.19532 9.594 6.7836 8.49527 7.64687 7.63312C8.51014 6.77098 9.60964 6.18413 10.8064 5.94676C12.0031 5.70939 13.2434 5.83216 14.3704 6.29954C15.4973 6.76692 16.4604 7.55794 17.1379 8.5726C17.8154 9.58726 18.1769 10.78 18.1766 12.0001C18.1745 13.6368 17.5228 15.2058 16.3647 16.3623C15.2066 17.5189 13.6368 18.1686 12.0001 18.1686ZM12.0001 7.16622C11.0459 7.16755 10.1136 7.45161 9.32078 7.98253C8.528 8.51345 7.91033 9.26741 7.54581 10.1492C7.18129 11.0309 7.08626 12.001 7.27273 12.9367C7.4592 13.8725 7.9188 14.7319 8.59349 15.4066C9.26817 16.0813 10.1277 16.5409 11.0634 16.7274C11.9991 16.9138 12.9692 16.8188 13.8509 16.4543C14.7327 16.0898 15.4867 15.4721 16.0176 14.6793C16.5485 13.8865 16.8326 12.9542 16.8339 12.0001C16.8339 10.718 16.3246 9.48854 15.4181 8.58202C14.5116 7.6755 13.2821 7.16622 12.0001 7.16622Z" fill="#7D67FF"/>
<path id="Vector_3" d="M18.982 6.50162C19.7792 6.50162 20.4254 5.85537 20.4254 5.05818C20.4254 4.26099 19.7792 3.61475 18.982 3.61475C18.1848 3.61475 17.5386 4.26099 17.5386 5.05818C17.5386 5.85537 18.1848 6.50162 18.982 6.50162Z" fill="#7D67FF"/>
</g>
</svg>
